if (_typeface_js && _typeface_js.loadFace) _typeface_js.loadFace({"glyphs":{"¦":{"x_min":76,"x_max":229,"ha":306,"o":"m 76 1006 l 229 1006 l 229 -11 l 76 -11 l 76 1006 "},"Ž":{"x_min":-90.375,"x_max":831,"ha":875,"o":"m 54 689 l 33 689 l 33 705 q 140 922 33 854 q 379 992 247 990 l 404 992 q 653 914 539 985 q 777 721 768 844 l 777 714 q 778 708 777 711 l 778 694 q 707 508 778 582 q 480 425 636 433 q 734 305 637 393 q 831 86 831 218 q 705 -215 831 -113 q 430 -328 580 -316 q 410 -328 420 -328 q 390 -329 399 -329 q 151 -265 258 -330 q 33 -76 44 -200 q 14 -9 29 -36 q -15 22 0 16 q -49 0 -33 29 q -65 -105 -65 -27 l -65 -123 q -63 -132 -63 -127 l -63 -141 l -87 -141 q -89 -114 -88 -127 q -90 -89 -90 -101 q -47 51 -90 5 q 47 98 -4 97 l 56 98 q 65 97 61 98 q 214 27 180 84 q 256 -97 248 -29 q 258 -114 258 -105 q 261 -132 259 -123 q 288 -246 267 -197 q 393 -296 308 -296 l 404 -296 q 504 -227 474 -296 q 543 -76 534 -158 q 548 11 548 -30 q 548 86 549 54 l 548 125 q 549 132 548 129 l 549 144 q 480 339 547 272 q 328 406 412 406 l 315 406 q 185 350 247 401 q 99 196 124 299 l 76 197 q 121 309 93 265 q 179 378 149 353 q 211 399 196 390 q 240 414 226 408 q 152 471 185 435 q 108 547 119 507 q 104 566 105 557 q 103 585 103 575 q 132 664 103 630 q 217 699 161 699 l 229 699 q 295 666 272 694 q 320 604 318 637 l 320 600 q 303 545 320 571 q 251 512 286 519 q 230 499 238 508 q 221 479 222 490 l 221 473 q 236 451 224 462 q 274 436 249 440 l 299 433 q 321 432 311 432 q 464 491 422 432 q 514 622 505 550 q 516 647 515 635 q 517 672 517 660 q 516 697 517 685 q 514 721 515 710 q 444 891 507 838 q 304 944 382 944 l 293 944 q 282 943 287 944 q 125 872 197 936 q 54 707 54 809 l 54 689 m 632 1223 q 604 1196 619 1212 q 572 1162 588 1180 l 569 1159 l 569 1158 q 518 1102 541 1127 q 490 1072 495 1077 q 461 1050 475 1057 q 436 1043 447 1043 q 407 1050 420 1043 q 380 1072 394 1058 l 238 1223 q 228 1238 231 1232 q 223 1252 225 1245 q 231 1265 223 1262 q 259 1258 240 1268 l 434 1180 l 598 1245 q 622 1259 612 1255 q 638 1263 633 1263 q 649 1252 651 1263 q 632 1225 647 1241 l 632 1223 "},"Á":{"x_min":1,"x_max":1038.84375,"ha":1050,"o":"m 700 830 q 776 914 726 883 q 880 962 826 945 q 966 979 924 975 q 1038 983 1009 983 l 1038 962 q 945 936 969 961 q 919 883 921 912 q 918 872 918 877 l 918 295 q 929 208 918 243 q 965 172 941 173 q 988 180 976 172 q 1016 207 1001 188 l 1038 197 l 809 0 q 702 88 727 38 q 678 227 678 138 l 426 0 q 404 27 419 9 q 367 65 390 45 q 300 116 338 93 q 222 143 262 138 l 212 143 q 145 123 177 144 q 87 52 113 102 l 65 65 q 128 164 98 129 q 191 225 159 200 q 203 235 197 230 q 216 245 210 240 q 265 284 241 263 q 316 337 290 305 q 344 418 335 361 q 354 544 354 475 l 354 569 q 353 595 354 582 q 341 725 350 662 q 316 829 332 789 q 265 904 297 880 q 198 930 233 927 l 190 930 q 112 903 147 930 q 77 840 77 876 q 79 825 77 833 q 84 809 82 816 q 116 774 94 791 q 175 741 137 757 q 255 666 223 722 q 289 547 287 611 l 289 540 q 243 419 287 476 q 98 337 199 362 l 98 361 q 161 385 135 370 q 198 416 186 400 q 208 432 205 423 q 211 447 211 440 q 202 467 211 458 q 174 479 193 476 q 49 568 97 504 q 1 711 1 633 q 3 748 1 729 q 12 784 6 766 q 48 858 24 822 q 109 927 71 894 q 199 978 148 961 q 304 995 250 995 l 319 995 q 513 912 425 990 q 602 665 602 834 q 551 458 602 518 q 418 355 501 398 q 369 331 394 344 q 316 304 344 318 q 359 293 337 300 q 405 277 381 286 q 505 231 458 259 q 568 162 551 202 l 678 262 l 678 711 q 674 775 678 737 q 662 852 671 812 q 642 916 654 884 q 612 972 630 947 l 634 984 q 679 910 666 950 q 700 829 691 870 l 700 830 m 529 1051 q 545 1079 536 1064 q 563 1111 554 1094 q 578 1133 570 1122 q 594 1155 586 1144 q 629 1202 612 1180 q 659 1236 647 1223 q 693 1260 676 1253 q 725 1267 709 1267 q 779 1246 757 1268 q 801 1196 801 1223 q 793 1165 801 1180 q 769 1137 786 1150 q 745 1121 758 1129 q 718 1105 733 1114 q 646 1076 688 1091 q 540 1039 604 1061 l 529 1051 "},"":{"x_min":22.21875,"x_max":1102.71875,"ha":1089,"o":"m 365 546 l 365 567 q 427 604 409 573 q 445 689 445 636 q 445 719 445 703 q 441 752 444 735 q 440 757 441 754 q 377 718 408 722 q 309 730 347 716 q 228 775 270 745 q 170 810 186 804 q 144 816 155 816 q 129 810 134 816 q 123 793 123 804 q 127 770 123 784 q 141 741 131 757 q 245 668 172 689 q 338 546 318 648 q 327 370 338 489 q 298 121 315 252 q 281 0 290 60 q 262 -111 272 -58 q 239 -236 251 -182 q 218 -317 227 -290 l 197 -317 q 177 -206 188 -275 q 154 -55 166 -137 q 142 28 148 -14 q 130 113 136 70 q 106 332 116 226 q 97 506 97 438 l 97 527 q 98 545 97 537 l 22 546 l 22 567 q 84 605 66 573 q 102 689 102 637 q 102 719 102 703 q 98 752 101 735 q 97 777 97 764 l 97 799 q 131 948 95 909 q 209 988 166 988 q 334 930 263 984 q 430 878 404 877 q 448 895 443 877 q 473 948 456 930 q 552 988 509 988 q 607 977 580 989 q 648 949 633 964 q 689 913 673 925 q 715 900 705 900 q 732 923 729 899 q 736 994 736 946 l 758 995 q 761 959 761 975 q 762 927 762 942 q 728 783 762 821 q 654 743 694 745 l 644 743 q 601 751 622 743 q 563 768 580 759 q 550 777 555 772 q 540 785 544 782 q 511 808 525 800 q 487 816 498 816 q 472 810 477 816 q 466 793 466 804 q 470 770 466 784 q 484 741 475 757 q 588 668 515 689 q 682 546 661 648 q 670 370 682 489 q 641 121 658 252 q 624 0 633 60 q 605 -111 615 -58 q 582 -236 594 -182 q 561 -317 570 -290 l 540 -317 q 520 -206 531 -275 q 497 -55 509 -137 q 485 28 491 -14 q 473 113 479 70 q 450 332 459 225 q 440 506 440 438 l 440 527 q 441 545 440 536 l 365 546 m 709 579 l 698 601 q 733 618 715 608 q 769 641 751 629 q 835 693 802 665 q 895 752 867 720 q 970 674 927 712 q 1070 611 1012 636 l 1070 590 l 1055 590 q 1013 575 1027 591 q 994 537 998 558 q 993 530 993 534 l 993 208 q 1005 154 993 175 q 1036 134 1018 134 q 1058 141 1047 134 q 1080 162 1069 148 l 1102 152 q 1029 90 1058 116 q 973 43 999 63 q 940 16 956 29 q 904 -5 924 4 q 900 -8 902 -6 q 895 -11 898 -9 q 813 70 830 27 q 797 162 797 113 l 797 547 q 787 584 797 573 q 766 594 778 594 q 754 593 760 594 q 741 590 748 591 q 735 587 738 588 q 727 584 731 586 q 718 581 723 583 q 709 577 713 579 l 709 579 m 873 776 q 805 847 825 810 q 784 913 784 883 q 814 979 784 954 q 895 1004 843 1004 q 962 976 939 1004 q 987 913 985 949 q 985 897 987 905 q 982 881 984 888 q 946 820 973 849 q 873 774 918 791 l 873 776 "},"Î":{"x_min":12,"x_max":897.296875,"ha":918,"o":"m 840 554 q 799 596 820 580 q 772 612 785 607 q 745 617 758 617 q 710 603 724 617 q 697 562 697 590 q 710 503 697 537 q 753 425 723 469 q 819 305 799 361 q 840 200 840 248 q 735 8 840 75 q 502 -58 630 -58 q 301 -7 395 -58 q 174 151 206 43 q 157 204 166 181 q 138 243 148 227 q 115 275 127 265 q 92 284 103 284 q 55 247 70 286 q 40 144 40 208 q 40 115 40 130 q 43 86 41 101 l 21 87 q 14 130 16 109 q 12 169 12 151 q 68 322 12 272 q 194 373 124 373 l 199 373 q 317 332 262 372 q 392 216 371 293 q 394 209 394 212 q 397 201 395 205 q 460 32 426 90 q 551 -25 494 -25 l 565 -25 q 579 -22 572 -25 q 627 0 612 -16 q 643 44 643 16 q 613 154 643 84 q 536 326 584 223 q 510 394 518 362 q 503 455 503 426 q 563 598 503 546 q 701 653 624 651 l 708 653 q 817 614 766 650 q 895 503 869 578 l 874 491 q 840 554 859 529 m 371 646 l 382 623 q 308 600 344 607 q 241 593 273 593 q 106 637 156 591 q 57 751 57 682 q 66 816 57 782 q 98 884 76 850 q 198 985 141 957 q 316 1014 254 1014 q 362 1011 339 1014 q 409 1002 386 1008 q 502 975 455 993 q 590 937 548 956 q 636 915 614 926 q 677 895 658 905 q 726 877 705 883 q 762 872 747 872 q 800 883 789 872 q 812 910 812 895 q 812 919 812 915 q 809 930 811 924 q 789 960 804 945 q 754 983 775 974 l 765 1016 q 842 946 818 985 q 868 865 866 906 q 814 746 868 799 q 672 693 761 693 q 577 708 629 693 q 471 763 526 724 q 349 830 404 810 q 251 851 294 849 q 148 817 186 851 q 100 745 111 784 q 97 729 98 737 q 96 714 96 722 q 104 673 96 691 q 130 644 112 654 q 141 637 134 642 q 158 629 148 633 q 191 618 172 624 q 237 613 211 613 q 296 619 263 613 q 371 644 330 626 l 371 646 m 262 1072 q 290 1099 275 1083 q 322 1133 305 1115 l 323 1134 l 325 1137 q 375 1193 352 1168 q 404 1223 398 1218 q 433 1246 419 1239 q 458 1253 447 1253 q 486 1245 473 1253 q 513 1223 500 1237 l 655 1072 q 666 1057 662 1064 q 670 1043 669 1050 q 662 1030 670 1033 q 634 1037 654 1027 l 459 1115 l 295 1050 q 271 1036 281 1040 q 254 1032 261 1032 q 243 1043 241 1032 q 262 1071 245 1054 l 262 1072 m 897 502 l 895 502 l 897 501 l 897 502 "},"e":{"x_min":50,"x_max":579.046875,"ha":590,"o":"m 415 743 l 567 502 l 262 305 q 329 193 287 227 q 416 154 370 158 q 423 152 420 152 l 431 152 q 506 170 470 152 q 567 216 542 187 l 579 197 q 534 158 556 176 q 488 122 512 140 q 399 54 442 87 q 316 -11 355 20 q 138 93 194 27 q 63 227 81 158 q 57 255 59 241 q 54 283 55 269 q 51 326 52 304 q 50 372 50 348 l 50 390 q 51 409 50 400 q 78 542 54 479 q 163 633 102 605 l 415 743 m 251 645 l 251 338 l 392 426 l 251 645 "},"»":{"x_min":65.28125,"x_max":512.421875,"ha":558,"o":"m 175 383 l 65 635 l 98 635 l 305 404 l 315 394 q 322 386 319 390 q 325 366 327 376 q 305 337 323 355 l 98 110 l 65 110 l 175 383 m 361 383 l 251 635 l 284 635 l 491 404 l 501 394 q 508 386 505 390 q 511 366 513 376 q 491 337 509 355 l 284 110 l 251 110 l 361 383 "},"ò":{"x_min":33.84375,"x_max":615,"ha":666,"o":"m 88 634 q 121 630 103 632 q 157 629 139 629 q 275 642 210 629 q 407 696 340 655 q 439 716 423 705 q 470 741 455 728 q 521 703 499 722 q 559 666 542 685 q 607 562 600 615 q 612 439 613 508 l 612 391 q 613 366 612 379 q 614 343 614 354 q 614 319 614 330 q 615 297 615 308 q 587 175 615 229 q 448 97 559 121 q 420 87 436 94 q 388 69 405 79 q 343 29 365 53 q 305 -22 320 5 q 285 8 300 -8 q 248 41 271 25 q 193 82 223 62 q 130 115 162 101 q 81 133 106 126 q 33 140 56 140 l 33 164 q 72 184 57 162 q 88 239 88 207 l 88 634 m 415 514 q 390 579 415 555 q 338 612 366 602 q 309 620 323 618 q 285 622 296 622 l 285 229 l 415 141 l 415 514 m 415 764 q 388 774 402 769 q 360 784 374 778 q 344 790 352 787 q 328 796 335 794 q 244 833 281 816 q 196 862 208 851 q 170 894 178 878 q 162 924 162 910 q 185 971 160 952 q 241 990 210 990 q 270 985 256 990 q 295 971 284 981 q 341 917 313 959 q 401 828 369 876 q 414 808 408 817 q 427 787 421 798 q 432 780 430 784 q 437 774 434 777 l 415 764 "},"ﬄ":{"x_min":21.984375,"x_max":1187.84375,"ha":1170,"o":"m 860 831 q 978 958 883 928 q 1187 1004 1073 989 l 1187 984 q 1086 928 1105 966 q 1067 840 1067 890 l 1067 217 q 1075 166 1067 187 q 1115 144 1083 145 q 1146 148 1128 144 q 1187 162 1164 152 l 1187 141 q 1130 108 1162 130 q 1062 60 1097 87 q 1022 27 1042 44 q 985 -5 1003 10 l 979 -11 q 962 5 971 -3 q 943 23 953 13 q 871 86 908 56 q 794 128 833 116 l 794 152 q 808 148 801 149 q 821 146 815 146 q 851 162 844 146 q 860 195 858 177 l 860 733 q 852 774 860 748 q 832 830 844 801 q 805 881 821 856 q 796 897 801 890 q 762 783 791 816 q 689 745 729 746 l 679 745 q 636 752 657 745 q 598 770 615 760 q 584 779 590 774 q 575 786 579 783 q 546 809 559 801 q 522 817 533 817 q 506 811 512 817 q 501 795 501 806 q 505 772 501 785 q 519 742 509 758 q 623 670 550 690 q 777 645 695 649 l 815 645 l 815 547 l 716 547 q 704 371 716 490 q 676 121 693 252 q 659 1 668 60 q 640 -111 650 -58 q 617 -236 629 -182 q 595 -317 605 -290 l 575 -317 q 555 -206 566 -275 q 531 -55 544 -137 q 520 28 526 -14 q 508 113 513 70 q 484 332 494 226 q 475 507 475 439 l 475 527 q 476 546 475 537 l 399 547 l 338 547 q 327 371 338 490 q 298 121 315 252 q 281 1 290 60 q 262 -111 272 -58 q 239 -236 251 -182 q 217 -317 227 -290 l 197 -317 q 177 -206 188 -275 q 153 -55 166 -137 q 142 28 148 -14 q 130 113 135 70 q 106 332 116 226 q 97 507 97 439 l 97 527 q 98 546 97 537 l 21 547 l 21 568 q 84 605 66 573 q 103 690 103 637 q 102 720 103 704 q 98 753 101 736 q 97 778 97 765 l 97 800 q 131 949 95 910 q 209 989 166 989 q 263 978 237 990 q 305 950 290 965 q 346 914 330 926 q 371 901 362 901 q 389 924 385 900 q 392 995 392 947 l 415 996 q 418 960 417 976 q 419 928 419 943 q 384 784 419 822 q 310 745 350 746 l 300 745 q 257 752 278 745 q 220 770 237 760 q 206 779 212 774 q 196 786 200 783 q 168 809 181 801 q 143 817 155 817 q 128 811 134 817 q 123 795 123 806 q 127 772 123 785 q 141 742 131 758 q 244 670 171 690 q 399 645 317 649 l 437 645 q 480 690 480 638 q 479 720 480 704 q 476 753 478 736 q 474 778 474 765 l 474 800 q 508 949 473 910 q 587 989 544 989 q 641 978 615 990 q 683 950 668 965 q 724 914 708 926 q 750 901 740 901 q 767 924 764 900 q 770 995 770 947 l 793 996 q 805 946 796 976 q 828 894 814 915 q 860 829 844 868 l 860 831 "},"ţ":{"x_min":33.5,"x_max":480.796875,"ha":481,"o":"m 121 547 l 33 547 l 33 567 q 150 639 94 577 q 243 773 207 701 q 279 856 265 816 q 296 927 293 897 l 328 929 l 328 646 l 471 646 l 471 547 l 328 547 l 328 217 q 346 171 333 188 q 382 155 359 155 q 421 165 398 155 q 471 195 443 174 l 480 174 q 404 110 434 137 q 347 60 373 84 q 344 58 346 59 l 343 56 q 300 19 322 38 q 251 -22 279 0 q 204 37 233 8 q 143 85 175 66 q 96 110 119 101 q 54 119 72 119 l 54 141 q 108 156 96 140 q 121 206 121 173 l 121 547 m 121 -161 l 121 -134 q 175 -113 150 -131 q 214 -72 200 -94 q 224 -54 221 -62 q 231 -40 228 -47 l 257 -38 q 291 -97 264 -72 q 358 -136 318 -122 l 358 -159 q 354 -162 356 -162 l 350 -162 q 312 -189 332 -169 q 267 -273 292 -209 q 256 -302 261 -288 q 244 -327 250 -316 q 204 -405 228 -373 q 136 -468 181 -437 q 132 -469 135 -469 l 131 -472 l 131 -445 q 177 -402 160 -429 q 203 -345 194 -374 q 210 -311 208 -327 q 212 -280 212 -295 q 211 -263 212 -272 q 207 -247 210 -255 q 181 -198 201 -222 q 121 -161 161 -174 "},"^":{"x_min":109.734375,"x_max":733.390625,"ha":831,"o":"m 109 438 l 350 940 l 491 940 l 733 438 l 662 438 l 425 710 l 170 438 l 109 438 "},"«":{"x_min":66.671875,"x_max":513.9375,"ha":558,"o":"m 327 646 l 208 383 l 327 110 l 295 110 l 87 339 q 72 357 77 348 q 66 375 66 366 q 72 395 66 386 q 87 414 77 404 l 295 646 l 327 646 m 513 646 l 393 383 l 513 110 l 480 110 l 273 339 q 258 357 263 348 q 252 375 252 366 q 258 395 252 386 q 273 414 263 404 l 480 646 l 513 646 "},"í":{"x_min":11.484375,"x_max":404.625,"ha":405,"o":"m 99 514 q 90 565 99 548 q 67 582 82 582 q 46 576 57 582 q 22 557 35 569 l 11 579 q 116 669 68 628 q 197 742 164 710 q 225 712 211 728 q 256 680 240 697 q 310 637 281 658 q 372 600 338 615 l 372 579 q 318 567 330 578 q 306 523 306 555 l 306 197 q 316 150 306 165 q 343 136 326 136 q 367 142 354 136 q 393 162 379 148 l 404 141 l 208 -22 q 191 -12 200 -17 q 174 0 182 -6 q 122 62 146 23 q 99 151 99 101 l 99 514 m 98 765 q 114 793 105 778 q 133 825 123 808 q 148 847 140 836 q 164 869 155 858 q 199 916 182 894 q 229 950 216 937 q 262 974 246 967 q 294 981 279 981 q 348 960 326 982 q 371 910 371 937 q 363 879 371 894 q 339 851 355 864 q 318 837 329 844 q 294 824 307 830 q 221 792 265 808 q 109 753 177 776 l 98 765 "},"ﬅ":{"x_min":22.21875,"x_max":826.78125,"ha":849,"o":"m 22 547 l 22 567 q 84 605 66 573 q 102 690 102 637 q 102 720 102 704 q 98 752 101 736 q 97 777 97 765 l 97 799 q 131 949 95 909 q 209 989 166 989 q 263 977 237 990 q 355 925 290 965 q 436 873 420 886 q 462 861 452 861 q 479 883 476 859 q 483 954 483 907 l 505 955 q 509 919 508 936 q 509 887 509 902 q 475 743 509 781 q 401 704 441 705 l 391 704 q 281 736 325 713 q 220 769 237 759 q 206 778 212 773 q 197 786 201 783 q 168 809 181 801 q 144 816 155 816 q 129 811 134 816 q 123 794 123 805 q 127 771 123 784 q 141 741 131 758 q 245 669 172 690 q 338 547 318 648 q 327 371 338 490 q 298 122 315 252 q 281 1 290 60 q 262 -111 272 -58 q 239 -236 251 -182 q 218 -317 227 -290 l 197 -317 q 177 -206 188 -275 q 154 -55 166 -137 q 142 28 148 -14 q 130 113 136 70 q 106 332 116 226 q 97 506 97 438 l 97 527 q 98 545 97 537 l 22 547 m 467 547 l 379 547 l 379 567 q 496 639 440 577 q 589 773 553 701 q 625 857 611 816 q 642 927 639 897 l 674 929 l 674 646 l 817 646 l 817 547 l 674 547 l 674 217 q 692 171 679 188 q 728 155 705 155 q 767 165 744 155 q 817 195 789 174 l 826 174 q 750 110 780 137 q 693 60 719 84 q 690 58 692 59 l 689 56 q 646 19 668 38 q 597 -22 625 0 q 550 37 579 8 q 489 85 521 66 q 442 110 465 101 q 400 119 418 119 l 400 141 q 454 156 442 140 q 467 206 467 173 l 467 547 "},"ˆ":{"x_min":-17.65625,"x_max":408.359375,"ha":601,"o":"m 0 809 q 27 836 12 820 q 59 870 43 852 l 61 871 l 62 874 q 113 930 90 905 q 141 960 136 955 q 170 983 156 976 q 195 990 184 990 q 224 982 211 990 q 251 960 237 974 l 393 809 q 403 794 400 801 q 408 780 406 787 q 400 767 408 770 q 372 774 391 764 l 197 852 l 33 787 q 9 773 19 777 q -6 769 -1 769 q -17 780 -19 769 q 0 808 -15 791 l 0 809 "},"":{"x_min":21.796875,"x_max":803.84375,"ha":782,"o":"m 476 831 q 594 958 499 928 q 803 1004 689 989 l 803 984 q 702 928 721 966 q 683 840 683 890 l 683 217 q 691 166 683 187 q 731 144 699 145 q 762 148 744 144 q 803 162 780 152 l 803 141 q 746 108 778 130 q 678 60 713 87 q 638 27 658 44 q 601 -5 619 10 l 595 -11 q 578 5 587 -3 q 559 23 569 13 q 487 86 524 56 q 410 128 449 116 l 410 152 q 424 148 417 149 q 437 146 431 146 q 467 162 460 146 q 476 195 474 177 l 476 733 q 468 774 476 748 q 448 830 460 801 q 421 881 437 856 q 417 890 419 885 q 384 783 412 815 q 310 744 351 745 l 300 744 q 257 751 278 744 q 220 769 237 759 q 206 778 212 773 q 196 785 200 783 q 168 808 181 801 q 144 816 155 816 q 128 810 134 816 q 123 794 123 805 q 127 771 123 784 q 141 741 131 758 q 244 669 171 690 q 338 547 317 648 q 326 371 338 490 q 298 121 314 252 q 280 1 289 60 q 262 -111 271 -58 q 239 -236 250 -182 q 217 -317 227 -290 l 196 -317 q 177 -206 188 -275 q 153 -55 166 -137 q 141 28 148 -14 q 130 113 135 70 q 106 332 116 226 q 96 507 96 439 l 96 528 q 98 546 96 537 l 21 547 l 21 568 q 84 605 66 573 q 102 690 102 637 q 101 720 102 704 q 98 753 100 736 q 96 778 96 765 l 96 800 q 130 949 95 910 q 209 989 166 989 q 263 978 237 990 q 305 950 289 965 q 346 914 330 926 q 371 901 362 901 q 388 924 385 900 q 389 926 388 925 l 388 928 l 389 932 q 392 995 392 954 l 414 996 q 418 960 417 976 q 419 928 419 943 q 444 894 432 913 q 476 829 460 868 l 476 831 "},"µ":{"x_min":-8.34375,"x_max":734.34375,"ha":734,"o":"m 308 195 q 319 135 309 195 q 351 70 330 75 q 393 91 373 65 q 429 186 413 118 l 429 513 q 420 570 429 552 q 395 588 412 588 l 395 612 q 451 640 426 616 q 496 691 476 663 q 512 712 505 702 q 527 732 520 722 q 549 707 537 722 q 577 679 562 693 q 632 636 601 655 q 702 611 663 616 l 702 590 q 647 572 669 588 q 626 523 626 555 l 626 196 q 640 151 626 169 q 674 134 655 134 q 699 141 687 134 q 724 162 712 148 l 734 141 l 549 -22 q 456 46 475 16 q 437 113 437 77 q 291 48 403 -87 q 289 34 291 41 l 276 -65 q 234 -245 255 -200 q 204 -313 213 -290 l 187 -313 q 164 -231 180 -278 q 124 -74 148 -183 q 100 239 101 34 l 101 491 q 90 549 101 524 q 59 574 79 574 q 38 567 49 574 q 13 545 26 560 l 13 546 l -8 567 l 199 733 q 260 688 231 725 q 301 611 288 652 q 305 588 303 600 q 308 566 308 577 l 308 195 "},"č":{"x_min":49,"x_max":568.578125,"ha":558,"o":"m 263 666 l 263 316 q 310 204 263 254 q 424 154 358 154 q 454 157 439 154 q 486 166 469 159 q 517 182 501 172 q 547 207 532 193 l 568 186 q 508 149 544 172 q 431 100 471 126 q 413 88 422 94 q 396 75 404 82 q 331 27 361 51 q 285 -11 301 4 q 256 8 272 0 q 224 26 240 16 l 207 34 q 190 44 199 38 q 97 117 139 72 q 55 261 55 162 q 54 309 55 284 q 52 358 53 333 q 51 375 52 366 q 50 391 50 383 q 49 408 50 400 q 49 425 49 416 q 62 546 49 490 q 121 633 76 602 l 426 743 l 536 536 l 361 448 l 263 666 m 473 945 q 446 918 461 934 q 414 884 430 902 l 411 881 l 411 880 q 360 824 383 849 q 332 794 337 799 q 303 771 316 778 q 278 765 289 765 q 249 772 262 765 q 222 794 236 780 l 80 945 q 70 960 73 953 q 65 974 66 967 q 73 987 65 984 q 101 980 82 990 l 276 902 l 440 967 q 464 981 454 977 q 480 985 475 985 q 491 974 493 985 q 473 946 489 963 l 473 945 "},"’":{"x_min":109.734375,"x_max":383.359375,"ha":499,"o":"m 109 545 l 109 568 q 189 636 163 590 q 233 737 215 681 q 245 768 238 752 q 256 801 251 784 q 303 891 275 847 q 383 972 331 935 l 383 951 q 313 859 340 912 q 283 751 286 806 l 283 740 q 306 646 283 691 q 383 566 330 601 l 383 547 q 310 495 341 529 q 262 414 279 462 l 240 415 q 202 483 225 457 q 156 525 180 509 q 132 538 144 533 q 109 545 120 543 "},"-":{"x_min":109.734375,"x_max":491.703125,"ha":613,"o":"m 109 438 l 491 438 l 491 328 l 109 328 l 109 438 "},"Q":{"x_min":-0.390625,"x_max":1274,"ha":1280,"o":"m 76 676 l 76 690 q 219 904 74 820 q 545 989 364 989 l 564 989 q 585 988 576 989 q 855 909 727 979 q 1049 687 984 839 q 1081 581 1067 642 q 1097 441 1095 521 q 1093 371 1097 408 q 1083 294 1090 334 q 1081 276 1082 284 q 1081 259 1081 268 q 1107 174 1081 205 q 1165 137 1133 143 l 1172 137 q 1226 165 1202 137 q 1250 252 1250 193 l 1250 272 q 1247 294 1250 283 l 1268 296 q 1272 255 1271 277 q 1274 208 1274 233 q 1273 186 1274 197 q 1273 164 1273 175 q 1238 50 1267 101 q 1137 0 1210 0 q 1048 36 1072 0 q 1025 126 1025 73 q 1027 163 1025 144 q 1031 201 1029 182 q 1035 220 1033 211 q 1038 239 1037 229 q 865 47 977 109 q 631 -14 754 -14 q 490 5 559 -14 q 361 63 422 24 q 327 87 347 70 q 284 122 308 104 q 231 160 259 143 q 174 183 202 177 q 163 185 169 184 q 152 186 158 186 q 89 161 120 186 q 33 74 58 137 l 11 76 q 16 91 13 83 q 23 109 19 100 q 147 259 59 191 q 341 328 236 328 q 406 320 373 328 q 470 294 438 312 q 517 268 491 282 q 570 238 543 254 q 648 199 608 217 q 730 169 688 181 q 783 155 756 160 q 834 151 809 151 q 895 158 866 151 q 951 184 925 166 q 1025 278 1000 216 q 1051 409 1051 340 l 1051 420 q 1050 431 1051 426 q 978 615 1044 532 q 776 699 912 699 q 744 698 762 699 q 705 696 726 697 q 662 693 684 694 q 616 693 640 693 l 594 693 q 435 721 508 695 q 362 831 363 747 q 369 885 362 855 q 392 950 377 915 q 306 893 331 923 q 282 831 282 863 q 293 781 282 806 q 322 730 304 756 q 338 707 329 719 q 355 683 347 695 q 399 623 379 652 q 426 566 419 594 q 432 541 430 554 q 434 517 434 529 q 366 385 436 440 q 213 329 297 331 l 205 329 q 76 373 135 329 q 0 523 16 417 l 21 524 q 62 421 31 462 q 128 367 94 380 q 144 363 137 365 q 159 362 152 362 q 185 367 173 362 q 208 381 198 372 q 214 389 212 385 q 219 395 216 392 q 221 401 220 398 q 222 409 222 405 q 199 456 222 431 q 148 512 176 480 q 101 582 123 542 q 76 676 80 622 "},"M":{"x_min":-11.25,"x_max":1443.125,"ha":1431,"o":"m 361 175 q 359 310 361 219 q 353 500 358 401 q 332 683 346 595 q 295 819 319 770 q 254 879 277 858 q 205 908 230 900 q 188 912 197 911 q 172 914 180 914 q 111 893 137 914 q 84 844 86 873 q 88 824 84 834 q 98 802 91 813 q 131 770 111 786 q 186 741 152 755 q 275 668 243 716 q 307 563 307 619 l 307 558 q 243 425 305 487 q 43 348 182 362 l 43 372 q 151 402 108 382 q 194 444 194 422 q 193 452 194 448 q 189 459 191 455 q 172 475 183 468 q 141 490 161 483 q 32 574 65 522 q -1 686 -1 626 q 0 706 -1 695 q 1 726 0 716 q 103 909 18 826 q 302 992 189 992 q 366 984 334 992 q 430 959 398 976 q 495 916 462 943 q 558 851 527 889 q 619 963 565 927 q 739 1000 673 998 l 750 1000 q 764 999 757 1000 q 886 955 829 993 q 962 851 943 916 q 1028 959 975 922 q 1141 999 1080 996 l 1151 999 q 1271 962 1216 1000 q 1334 851 1325 925 q 1337 822 1337 837 l 1337 782 q 1343 693 1337 733 q 1391 651 1350 653 q 1400 652 1395 651 q 1410 654 1405 653 l 1410 635 q 1292 562 1308 633 q 1279 401 1277 490 l 1279 360 q 1279 335 1279 347 q 1282 308 1280 322 q 1309 209 1288 254 q 1363 164 1329 164 q 1391 171 1376 164 q 1422 196 1405 179 l 1443 175 l 1180 -22 q 1109 59 1134 25 q 1069 125 1083 93 q 1052 202 1054 161 q 1050 311 1050 244 l 1050 348 q 1098 537 1050 480 q 1205 616 1147 594 q 1255 632 1230 626 q 1300 641 1280 637 q 1306 642 1303 641 q 1312 644 1309 643 q 1290 642 1300 643 q 1269 641 1280 641 q 1136 690 1162 641 q 1107 795 1109 738 l 1107 825 q 1105 850 1105 837 q 1104 873 1105 862 q 1092 913 1102 901 q 1070 925 1083 925 q 1055 922 1063 925 q 1039 914 1047 919 q 1008 885 1023 902 q 985 848 993 868 q 976 827 979 837 q 974 808 974 818 q 975 736 974 770 q 978 672 976 702 q 979 612 978 640 q 981 558 981 584 q 977 481 981 518 q 962 408 974 444 q 937 347 953 377 q 897 283 921 316 l 646 -10 l 481 130 l 383 11 l 361 33 l 579 305 l 734 164 q 733 439 734 348 q 728 602 732 530 q 721 685 725 642 q 711 785 716 727 q 688 865 707 834 q 647 905 669 896 q 640 907 644 906 q 633 908 637 908 q 594 885 610 909 q 578 808 578 860 q 585 747 580 776 q 594 690 589 717 q 602 643 598 666 q 608 598 606 620 q 610 575 609 587 q 611 552 611 563 q 588 431 611 494 q 502 294 566 369 l 262 -10 l 98 130 l 10 11 l -11 33 l 197 316 l 361 175 "},"œ":{"x_min":43.5625,"x_max":928.6875,"ha":940,"o":"m 567 666 l 775 754 l 917 502 l 612 316 q 677 210 630 258 q 792 161 724 162 q 852 172 820 161 q 917 206 884 183 l 928 186 q 804 102 871 151 q 655 -11 737 52 q 567 31 602 7 q 502 82 532 55 q 486 95 494 89 q 470 108 478 101 q 389 67 423 93 q 323 0 355 41 q 320 -5 322 -2 q 316 -11 318 -8 q 285 16 302 1 q 247 48 268 32 q 155 107 207 79 q 43 151 103 136 l 43 175 q 82 198 76 181 q 88 238 88 215 l 88 634 q 99 632 93 633 q 110 631 104 631 l 130 631 q 158 632 144 631 q 185 634 171 633 q 349 669 269 641 q 480 741 429 697 q 532 699 513 717 q 567 665 552 681 l 567 666 m 415 502 q 385 585 415 557 q 319 619 355 613 q 307 621 313 620 q 296 622 301 622 l 296 240 q 330 218 315 227 q 359 198 345 208 q 388 176 374 187 q 415 151 402 165 l 415 502 m 732 426 l 623 666 q 611 598 616 633 q 605 527 607 563 q 601 432 602 479 q 601 348 601 386 l 732 426 "},"ě":{"x_min":50,"x_max":579.046875,"ha":590,"o":"m 415 743 l 567 502 l 262 305 q 329 193 287 227 q 416 154 370 158 q 423 152 420 152 l 431 152 q 506 170 470 152 q 567 216 542 187 l 579 197 q 534 158 556 176 q 488 122 512 140 q 399 54 442 87 q 316 -11 355 20 q 138 93 194 27 q 63 227 81 158 q 57 255 59 241 q 54 283 55 269 q 51 326 52 304 q 50 372 50 348 l 50 390 q 51 409 50 400 q 78 542 54 479 q 163 633 102 605 l 415 743 m 488 945 q 461 918 476 934 q 429 884 445 902 l 426 882 l 426 880 q 375 825 398 850 q 347 794 352 800 q 318 772 331 779 q 293 765 304 765 q 264 772 277 765 q 237 794 251 780 l 95 945 q 85 961 88 954 q 80 975 81 968 q 88 987 80 984 q 116 980 97 990 l 291 902 l 455 968 q 479 982 469 977 q 495 986 490 986 q 506 975 508 986 q 488 947 504 963 l 488 945 m 251 645 l 251 338 l 392 426 l 251 645 "},"{":{"x_min":43.265625,"x_max":404,"ha":460,"o":"m 43 350 q 121 396 101 365 q 141 501 141 427 l 141 798 q 202 936 141 887 q 369 985 262 985 l 385 985 q 404 983 394 985 l 404 939 q 340 900 363 930 q 317 797 317 870 l 317 502 q 298 408 317 436 q 258 368 280 380 q 246 362 251 365 l 235 357 q 226 353 230 355 q 218 348 222 351 l 218 347 l 221 347 q 289 286 261 322 q 317 162 317 251 l 317 -87 q 319 -118 317 -101 q 325 -154 321 -136 q 352 -220 333 -190 q 404 -251 372 -251 l 404 -296 l 381 -296 q 218 -261 265 -297 q 158 -184 171 -226 q 153 -154 154 -169 q 152 -127 152 -140 l 152 -115 q 153 -105 152 -109 l 153 163 q 123 279 153 236 q 43 348 93 323 l 43 350 "},"¼":{"x_min":34.375,"x_max":1012.671875,"ha":1054,"o":"m 764 131 l 533 131 l 533 164 l 816 564 l 921 564 l 921 171 l 1005 171 l 1005 138 l 921 138 l 921 52 q 927 23 921 27 q 959 19 934 19 l 1012 19 l 1012 0 l 670 0 l 670 19 l 716 19 q 750 25 737 19 q 764 51 764 32 l 764 131 m 720 996 l 830 996 l 334 -11 l 224 -11 l 720 996 m 133 503 l 133 836 q 132 844 133 840 q 122 862 129 854 q 100 869 115 869 l 34 871 l 34 890 l 93 890 q 168 913 133 889 q 222 968 202 938 q 231 981 227 975 q 237 995 234 988 l 297 995 l 297 496 q 306 463 297 475 q 328 450 315 450 l 401 450 l 401 431 l 34 431 l 34 450 l 99 450 q 126 458 119 450 q 133 503 133 467 m 764 171 l 764 446 l 566 171 l 764 171 "},"#":{"x_min":130.5625,"x_max":754.234375,"ha":897,"o":"m 284 678 l 327 940 l 448 940 l 404 678 l 547 678 l 590 940 l 711 940 l 666 678 l 754 678 l 754 559 l 655 559 l 634 393 l 722 393 l 722 274 l 612 274 l 568 0 l 448 0 l 491 274 l 350 274 l 305 0 l 186 0 l 229 274 l 130 274 l 130 393 l 240 393 l 262 559 l 163 559 l 163 678 l 284 678 m 525 559 l 393 559 l 372 393 l 502 393 l 525 559 "},"":{"x_min":22.21875,"x_max":762.5625,"ha":724,"o":"m 365 547 l 365 568 q 427 605 409 573 q 445 690 445 637 q 445 720 445 704 q 441 752 444 736 q 440 758 441 755 q 377 719 408 723 q 309 731 347 716 q 228 775 270 745 q 170 811 186 805 q 144 817 155 817 q 129 811 134 817 q 123 794 123 805 q 127 771 123 785 q 141 741 131 758 q 245 669 172 690 q 338 547 318 648 q 327 371 338 490 q 298 122 315 252 q 281 1 290 61 q 262 -111 272 -58 q 239 -236 251 -182 q 218 -317 227 -290 l 197 -317 q 177 -206 188 -275 q 154 -55 166 -137 q 142 28 148 -14 q 130 113 136 70 q 106 332 116 226 q 97 506 97 438 l 97 527 q 98 545 97 537 l 22 547 l 22 568 q 84 605 66 573 q 102 690 102 637 q 102 720 102 704 q 98 752 101 736 q 97 777 97 765 l 97 800 q 131 949 95 909 q 209 989 166 989 q 334 931 263 984 q 430 879 404 877 q 448 895 443 877 q 473 948 456 930 q 552 989 509 989 q 607 977 580 990 q 648 950 633 965 q 689 914 673 926 q 715 901 705 901 q 732 923 729 900 q 736 995 736 947 l 758 996 q 761 959 761 976 q 762 928 762 943 q 728 784 762 822 q 654 744 694 746 l 644 744 q 601 752 622 744 q 563 769 580 760 q 550 778 555 773 q 540 786 544 783 q 511 809 525 801 q 487 817 498 817 q 472 811 477 817 q 466 794 466 805 q 470 771 466 785 q 484 741 475 758 q 588 669 515 690 q 682 547 661 648 q 670 371 682 490 q 641 122 658 252 q 624 1 633 61 q 605 -111 615 -58 q 582 -236 594 -182 q 561 -317 570 -290 l 540 -317 q 520 -206 531 -275 q 497 -55 509 -137 q 485 28 491 -14 q 473 113 479 70 q 450 332 459 226 q 440 506 440 438 l 440 527 q 441 545 440 537 l 365 547 "},"Ê":{"x_min":33,"x_max":1084,"ha":1105,"o":"m 645 896 l 841 1005 q 855 982 847 994 q 871 956 862 970 q 914 910 889 931 q 975 890 940 890 q 1025 901 999 890 q 1084 938 1051 912 l 1084 917 q 1074 898 1079 908 q 1064 880 1069 888 q 978 798 1033 835 q 861 762 923 762 q 830 764 846 762 q 799 773 815 767 q 737 808 768 784 q 678 873 707 832 q 636 855 647 868 q 625 823 625 841 q 626 814 625 818 q 626 807 626 810 q 635 783 629 795 q 646 763 640 771 q 717 657 678 714 q 799 534 757 599 l 799 547 q 842 658 799 619 q 936 697 885 697 q 1020 667 981 697 q 1073 577 1059 638 q 1074 568 1074 572 l 1074 559 q 1043 479 1074 512 q 960 446 1012 446 l 950 446 q 940 447 946 446 q 893 476 908 452 q 878 530 878 501 q 886 575 878 553 q 908 610 894 597 q 918 625 915 617 q 922 640 922 633 q 914 658 923 651 q 893 666 905 666 q 878 663 886 666 q 862 655 871 660 q 852 645 857 651 q 841 633 847 640 q 821 586 828 610 q 815 538 815 562 q 819 491 815 515 q 829 445 823 467 q 839 406 834 424 q 843 372 843 387 l 843 365 q 841 359 843 362 q 763 221 823 269 q 633 172 703 173 l 625 172 q 480 243 546 176 q 404 447 414 310 l 426 448 q 464 311 439 363 q 515 234 489 259 q 543 216 529 222 q 568 211 557 211 q 600 226 587 211 q 614 269 614 241 q 596 342 614 299 q 536 436 579 384 q 481 519 504 472 q 453 615 458 566 q 452 628 453 622 q 451 641 451 634 q 468 724 451 684 q 525 797 486 765 l 634 886 q 583 927 611 909 q 528 949 555 944 q 516 952 522 951 q 505 952 511 952 q 394 869 446 954 q 328 556 343 784 l 325 504 q 322 454 323 477 q 419 115 322 211 q 636 19 516 19 l 657 19 q 852 83 761 25 q 973 217 944 141 l 996 218 q 855 51 975 112 q 587 -10 736 -8 q 553 -9 570 -10 q 518 -6 536 -8 q 185 137 335 10 q 33 530 34 263 l 33 556 q 135 833 37 717 q 352 991 234 949 q 406 1005 380 1001 q 459 1010 433 1010 q 569 983 519 1010 q 645 895 619 955 l 645 896 m 356 1087 q 384 1114 369 1098 q 416 1148 400 1130 l 418 1149 l 419 1152 q 470 1208 447 1183 q 498 1238 493 1233 q 527 1261 513 1254 q 552 1268 541 1268 q 581 1260 568 1268 q 608 1238 594 1252 l 750 1087 q 760 1072 757 1079 q 765 1058 763 1065 q 757 1045 765 1048 q 729 1052 748 1042 l 554 1130 l 390 1065 q 366 1051 376 1055 q 350 1047 355 1047 q 339 1058 337 1047 q 356 1086 341 1069 l 356 1087 "},")":{"x_min":-0.234375,"x_max":476,"ha":480,"o":"m 0 -317 l 0 -285 q 128 -191 85 -272 q 187 -14 172 -109 q 194 47 192 16 q 197 108 197 79 l 197 525 q 156 782 197 664 q 0 950 115 901 l 0 985 q 351 715 235 890 q 476 349 467 540 l 476 326 q 353 -63 476 117 q 0 -317 231 -244 "},"Å":{"x_min":1,"x_max":1037.84375,"ha":1049,"o":"m 699 830 q 775 915 725 883 q 879 963 825 946 q 965 979 923 975 q 1037 983 1008 983 l 1037 963 q 944 937 968 961 q 918 883 920 912 q 917 872 917 878 l 917 295 q 928 208 917 243 q 964 172 940 173 q 987 180 975 172 q 1015 206 1000 188 l 1037 197 l 808 0 q 701 88 726 38 q 677 227 677 138 l 426 0 q 404 27 419 9 q 367 65 390 45 q 300 115 338 93 q 222 143 262 138 l 212 143 q 145 123 177 144 q 87 52 113 102 l 65 65 q 128 164 98 129 q 191 225 159 200 q 203 235 197 230 q 216 245 210 240 q 265 284 241 263 q 316 337 290 305 q 344 418 335 361 q 354 544 354 475 l 354 569 q 353 595 354 582 q 341 725 350 662 q 316 829 332 789 q 265 904 297 880 q 198 930 233 927 l 190 930 q 112 903 147 930 q 77 840 77 876 q 79 825 77 833 q 84 809 82 816 q 116 774 94 791 q 175 741 137 757 q 255 666 223 722 q 289 547 287 611 l 289 540 q 243 419 287 476 q 98 337 199 362 l 98 361 q 161 385 135 370 q 198 416 186 400 q 208 432 205 423 q 211 447 211 440 q 202 467 211 458 q 174 479 193 476 q 49 568 97 504 q 1 711 1 633 q 3 748 1 729 q 12 784 6 766 q 48 858 24 822 q 109 927 71 894 q 199 978 148 961 q 304 996 250 996 l 319 996 q 513 912 425 990 q 602 665 602 834 q 551 458 602 518 q 417 355 501 398 q 368 331 394 344 q 315 304 343 317 q 359 292 336 299 q 405 277 381 286 q 505 231 458 259 q 568 162 551 202 l 677 262 l 677 711 q 673 775 677 737 q 661 853 670 812 q 641 916 653 885 q 611 972 629 947 l 633 985 q 678 910 665 950 q 699 829 690 871 l 699 830 m 558 1258 q 564 1257 561 1257 l 570 1257 q 692 1221 649 1258 q 740 1140 735 1184 l 740 1133 q 697 1051 740 1088 q 568 1015 655 1015 q 437 1051 479 1015 q 395 1133 395 1088 l 395 1137 q 438 1219 396 1181 q 558 1257 480 1257 l 558 1258 m 568 1191 q 525 1173 540 1190 q 508 1137 509 1156 l 508 1133 q 522 1097 508 1113 q 568 1082 536 1082 q 611 1098 597 1082 q 626 1134 626 1115 q 611 1172 626 1155 q 568 1190 597 1190 l 568 1191 "},"":{"x_min":21.984375,"x_max":766.734375,"ha":763,"o":"m 21 547 l 21 568 q 84 605 66 573 q 103 690 103 637 q 102 720 103 704 q 98 753 101 736 q 97 778 97 765 l 97 800 q 131 949 95 910 q 209 989 166 989 q 263 978 237 990 q 305 950 290 965 q 346 914 330 926 q 371 901 362 901 q 389 924 385 900 q 392 995 392 947 l 415 996 q 418 960 417 976 q 419 928 419 943 q 384 784 419 822 q 310 744 350 746 l 301 744 q 258 752 278 744 q 220 769 237 760 q 206 778 212 774 q 196 786 201 783 q 168 809 181 801 q 144 817 155 817 q 128 811 134 817 q 123 794 123 805 q 127 771 123 785 q 141 742 131 758 q 244 669 171 690 q 338 547 317 648 q 326 371 338 490 q 298 122 314 252 q 280 1 289 61 q 262 -111 271 -58 q 239 -236 251 -182 q 217 -317 227 -290 l 196 -317 q 177 -206 188 -275 q 153 -55 166 -137 q 142 28 148 -14 q 130 113 135 70 q 106 332 116 226 q 97 507 97 439 l 97 528 q 98 546 97 537 l 21 547 m 373 578 l 362 601 q 397 618 379 608 q 433 641 415 628 q 499 692 466 665 q 559 752 531 720 q 634 674 591 712 q 734 610 676 635 l 734 590 l 719 590 q 677 574 691 591 q 658 537 662 558 q 657 530 657 534 l 657 208 q 669 154 657 174 q 700 134 682 134 q 722 141 711 134 q 744 162 733 148 l 766 152 q 693 89 722 116 q 637 42 663 63 q 604 16 620 28 q 568 -5 588 3 q 564 -8 566 -7 q 559 -11 562 -10 q 477 70 494 27 q 461 162 461 113 l 461 546 q 451 583 461 573 q 430 594 442 594 q 418 592 424 594 q 405 590 412 591 q 399 587 402 588 q 391 584 395 585 q 382 581 387 583 q 373 577 377 578 l 373 578 m 537 776 q 469 847 489 810 q 448 913 448 883 q 478 979 448 954 q 559 1004 507 1004 q 626 976 603 1004 q 651 913 649 949 q 649 897 651 905 q 646 881 648 888 q 610 820 637 849 q 537 774 582 791 l 537 776 "},"¸":{"x_min":54.765625,"x_max":249,"ha":624,"o":"m 88 -121 q 75 -107 79 -112 q 71 -98 71 -102 q 75 -89 71 -94 q 88 -76 79 -84 l 164 -11 q 195 -7 185 1 q 212 -30 206 -16 q 215 -37 214 -33 q 218 -43 217 -40 q 224 -55 221 -48 q 230 -69 228 -61 q 243 -104 237 -84 q 249 -146 249 -123 q 245 -179 249 -162 q 230 -214 242 -196 q 171 -274 212 -244 q 54 -328 129 -304 l 54 -305 q 108 -268 89 -291 q 127 -215 127 -246 q 117 -172 127 -196 q 88 -121 107 -148 "},"a":{"x_min":65,"x_max":688.609375,"ha":689,"o":"m 403 733 q 433 700 413 717 q 478 665 452 683 q 547 622 509 642 q 624 588 585 602 q 646 583 635 585 q 666 577 656 580 l 666 558 l 648 558 q 603 541 617 559 q 590 501 590 523 l 590 197 q 600 141 590 158 q 633 123 610 123 q 658 127 644 123 q 688 140 671 132 l 688 120 q 603 56 648 94 q 502 -22 559 18 l 496 -16 q 492 -14 495 -15 q 477 0 485 -5 q 460 13 468 6 q 413 61 435 36 q 391 116 392 86 l 391 119 q 393 123 391 120 l 392 129 q 335 92 363 112 q 281 50 308 72 q 233 12 256 30 q 185 -22 209 -5 q 125 21 148 2 q 88 58 102 40 q 69 102 73 79 q 65 162 65 126 l 65 490 q 65 508 65 498 q 71 528 66 517 q 92 560 76 544 q 141 588 108 576 q 197 612 166 599 q 261 640 229 624 q 338 680 301 658 q 403 731 376 703 l 403 733 m 262 174 q 271 126 262 142 q 296 110 280 110 q 311 112 303 110 q 327 119 319 115 l 383 152 l 383 524 q 317 560 344 538 q 268 605 291 581 l 262 610 l 262 174 "},"Ę":{"x_min":33,"x_max":1084,"ha":1105,"o":"m 994 -205 l 1003 -222 q 811 -226 892 -249 q 701 -154 730 -203 q 698 -151 700 -153 l 697 -150 q 697 -44 671 -103 q 740 9 711 -15 q 587 -10 668 -8 q 553 -9 571 -10 q 518 -6 536 -8 q 185 137 336 10 q 33 530 34 263 l 33 556 q 135 833 37 717 q 352 991 234 949 q 406 1006 380 1001 q 459 1011 433 1011 q 569 983 519 1011 q 645 896 619 955 l 645 897 l 841 1006 q 855 982 847 994 q 871 957 862 971 q 914 910 889 931 q 975 890 940 890 q 1025 901 999 890 q 1084 938 1051 912 l 1084 917 q 1074 898 1079 908 q 1064 880 1069 888 q 978 798 1033 835 q 861 762 923 762 q 830 764 846 762 q 799 773 815 767 q 737 808 768 784 q 678 873 707 832 q 636 855 647 868 q 625 823 625 841 q 626 814 625 818 q 626 807 626 810 q 635 783 629 795 q 646 763 640 771 q 717 657 678 714 q 799 534 757 599 l 799 547 q 842 658 799 619 q 936 697 885 697 q 1020 667 981 697 q 1073 577 1059 638 q 1074 568 1074 572 l 1074 559 q 1043 479 1074 512 q 960 446 1012 446 l 950 446 q 940 447 946 446 q 893 476 908 452 q 878 530 878 501 q 886 575 878 553 q 908 610 894 597 q 918 625 915 617 q 922 640 922 633 q 914 658 923 651 q 893 666 905 666 q 878 663 886 666 q 862 655 871 660 q 852 645 857 651 q 841 633 847 640 q 821 586 828 610 q 815 538 815 562 q 819 491 815 515 q 829 445 823 467 q 839 406 834 424 q 843 372 843 387 l 843 365 q 841 359 843 362 q 763 221 823 269 q 633 172 703 173 l 625 172 q 480 243 546 176 q 404 447 414 310 l 426 448 q 464 311 439 363 q 515 234 489 259 q 543 216 529 222 q 568 211 557 211 q 600 226 587 211 q 614 269 614 241 q 596 342 614 299 q 536 436 579 384 q 481 519 504 472 q 453 615 458 566 q 452 628 453 622 q 451 641 451 634 q 468 724 451 684 q 525 797 486 765 l 634 886 q 583 927 611 909 q 528 949 555 944 q 516 952 522 951 q 505 952 511 952 q 394 869 446 954 q 328 556 343 784 l 325 504 q 322 454 323 477 q 419 115 322 211 q 636 19 516 19 l 657 19 q 852 83 761 25 q 973 217 944 141 l 996 218 q 855 51 975 112 q 815 33 836 41 q 791 -18 791 10 q 816 -100 791 -60 q 819 -104 818 -101 q 822 -108 821 -107 q 903 -185 854 -154 q 993 -207 953 -215 l 994 -205 "},"=":{"x_min":65.28125,"x_max":776.453125,"ha":831,"o":"m 776 142 l 65 142 l 65 285 l 776 285 l 776 142 m 65 579 l 776 579 l 776 437 l 65 437 l 65 579 "},"˚":{"x_min":33,"x_max":379,"ha":383,"o":"m 196 1017 q 202 1015 199 1015 l 209 1015 q 333 978 290 1016 q 379 897 377 941 l 379 892 q 336 811 379 848 q 208 775 294 775 q 76 811 119 775 q 33 891 34 848 l 33 895 q 76 977 34 940 q 196 1015 119 1015 l 196 1017 m 208 951 q 163 932 179 950 q 146 894 147 915 q 161 856 146 873 q 208 840 176 840 q 250 856 236 840 q 265 894 265 873 q 252 932 266 915 q 208 950 237 950 l 208 951 "},"ú":{"x_min":0.265625,"x_max":743.34375,"ha":743,"o":"m 22 547 l 0 568 l 208 733 q 269 689 240 725 q 310 611 297 653 q 314 589 312 600 q 317 566 317 578 l 317 186 q 331 137 319 150 q 357 123 343 123 q 371 126 364 123 q 387 133 379 129 q 403 144 396 137 q 419 157 411 150 q 429 165 425 161 l 438 173 l 438 514 q 429 571 438 553 q 404 589 421 589 l 404 612 q 460 640 435 616 q 505 691 485 664 q 521 712 514 703 q 536 732 529 722 q 558 707 546 722 q 586 679 571 693 q 641 636 610 655 q 711 611 672 616 l 711 590 q 656 572 678 589 q 635 523 635 555 l 635 197 q 649 152 635 169 q 683 134 664 134 q 708 141 696 134 q 733 162 721 148 l 743 141 l 558 -22 q 460 51 485 16 q 435 115 435 86 q 435 128 435 122 q 438 140 436 134 l 208 -22 q 134 55 175 18 q 43 108 93 91 l 43 130 q 97 147 85 129 q 110 207 110 165 l 110 491 q 98 550 110 525 q 68 575 87 575 q 46 568 58 575 q 22 546 34 561 l 22 547 m 263 765 q 279 793 270 778 q 299 825 288 808 q 313 846 306 835 q 327 867 320 857 q 363 915 346 893 q 393 950 381 937 q 427 974 410 967 q 458 981 443 981 q 513 960 490 982 q 535 910 535 937 q 527 879 535 894 q 503 851 520 864 q 482 837 493 844 q 458 824 471 830 q 386 792 429 808 q 274 753 342 776 l 263 765 "},"¯":{"x_min":-11.109375,"x_max":688.9375,"ha":689,"o":"m -11 982 l 688 982 l 688 900 l -11 900 l -11 982 "},"Z":{"x_min":-90.375,"x_max":831,"ha":875,"o":"m 54 689 l 33 689 l 33 705 q 140 922 33 854 q 379 992 247 990 l 404 992 q 653 914 539 985 q 777 721 768 844 l 777 714 q 778 708 777 711 l 778 694 q 707 508 778 582 q 480 425 636 433 q 734 305 637 393 q 831 86 831 218 q 705 -215 831 -113 q 430 -328 580 -316 q 410 -328 420 -328 q 390 -329 399 -329 q 151 -265 258 -330 q 33 -76 44 -200 q 14 -9 29 -36 q -15 22 0 16 q -49 0 -33 29 q -65 -105 -65 -27 l -65 -123 q -63 -132 -63 -127 l -63 -141 l -87 -141 q -89 -114 -88 -127 q -90 -89 -90 -101 q -47 51 -90 5 q 47 98 -4 97 l 56 98 q 65 97 61 98 q 214 27 180 84 q 256 -97 248 -29 q 258 -114 258 -105 q 261 -132 259 -123 q 288 -246 267 -197 q 393 -296 308 -296 l 404 -296 q 504 -227 474 -296 q 543 -76 534 -158 q 548 11 548 -30 q 548 86 549 54 l 548 125 q 549 132 548 129 l 549 144 q 480 339 547 272 q 328 406 412 406 l 315 406 q 185 350 247 401 q 99 196 124 299 l 76 197 q 121 309 93 265 q 179 378 149 353 q 211 399 196 390 q 240 414 226 408 q 152 471 185 435 q 108 547 119 507 q 104 566 105 557 q 103 585 103 575 q 132 664 103 630 q 217 699 161 699 l 229 699 q 295 666 272 694 q 320 604 318 637 l 320 600 q 303 545 320 571 q 251 512 286 519 q 230 499 238 508 q 221 479 222 490 l 221 473 q 236 451 224 462 q 274 436 249 440 l 299 433 q 321 432 311 432 q 464 491 422 432 q 514 622 505 550 q 516 647 515 635 q 517 672 517 660 q 516 697 517 685 q 514 721 515 710 q 444 891 507 838 q 304 944 382 944 l 293 944 q 282 943 287 944 q 125 872 197 936 q 54 707 54 809 l 54 689 "},"":{"x_min":94.453125,"x_max":331.96875,"ha":449,"o":"m 94 -161 l 94 -134 q 148 -113 123 -131 q 187 -72 173 -94 q 197 -54 194 -62 q 204 -40 201 -47 l 230 -39 q 264 -97 237 -72 q 331 -136 291 -122 l 331 -159 q 327 -162 329 -162 l 323 -162 q 285 -189 305 -169 q 240 -273 265 -209 q 229 -302 234 -288 q 218 -327 223 -316 q 177 -405 201 -373 q 109 -468 154 -437 q 105 -469 108 -469 l 104 -472 l 104 -445 q 150 -401 133 -428 q 176 -345 168 -374 q 184 -311 181 -327 q 186 -280 186 -295 q 184 -263 186 -272 q 180 -247 183 -255 q 154 -198 175 -222 q 94 -161 134 -175 "},"u":{"x_min":0.265625,"x_max":743.34375,"ha":743,"o":"m 22 547 l 0 567 l 208 733 q 269 688 240 725 q 310 611 297 652 q 314 588 312 600 q 317 566 317 577 l 317 186 q 331 136 319 150 q 357 123 343 123 q 371 126 364 123 q 387 133 379 129 q 403 143 396 137 q 419 156 411 150 q 429 165 425 161 l 438 173 l 438 513 q 429 570 438 552 q 404 588 421 588 l 404 612 q 460 640 435 616 q 505 691 485 663 q 521 712 514 702 q 536 732 529 722 q 558 707 546 722 q 586 679 571 693 q 641 636 610 655 q 711 611 672 616 l 711 590 q 656 572 678 588 q 635 523 635 555 l 635 197 q 649 152 635 169 q 683 134 664 134 q 708 141 696 134 q 733 162 721 148 l 743 141 l 558 -22 q 460 51 485 16 q 435 115 435 86 q 435 128 435 122 q 438 140 436 134 l 208 -22 q 134 55 175 18 q 43 108 93 91 l 43 130 q 97 147 85 129 q 110 207 110 165 l 110 491 q 98 549 110 524 q 68 574 87 574 q 46 567 58 574 q 22 545 34 560 l 22 547 "},"k":{"x_min":22.484375,"x_max":754.546875,"ha":711,"o":"m 317 568 l 536 733 q 587 698 562 718 q 630 658 612 679 q 655 623 646 640 q 664 593 664 607 q 660 577 664 584 q 646 566 655 571 l 536 491 q 564 465 551 477 q 586 440 576 452 q 621 387 608 414 q 646 326 635 359 q 652 301 650 316 q 657 269 654 286 q 658 257 657 264 q 660 246 658 251 q 674 178 664 208 q 712 148 685 148 q 731 152 721 148 q 754 162 742 155 l 754 141 q 666 74 701 105 q 600 16 630 43 q 574 -3 587 5 q 547 -22 561 -12 q 476 60 492 5 q 454 175 461 115 q 433 286 447 233 q 372 371 419 339 l 317 339 l 317 191 q 323 150 317 169 q 350 130 329 130 q 365 132 357 130 q 383 140 373 134 l 383 121 q 372 113 378 116 q 361 105 367 109 q 274 45 311 76 q 208 -22 237 14 q 128 62 175 25 q 33 108 82 100 l 33 130 q 91 141 73 129 q 110 196 110 154 l 110 689 q 104 733 110 707 q 89 787 98 759 q 73 831 82 809 q 55 871 64 852 q 37 900 46 887 q 22 916 29 912 l 33 940 q 69 901 54 923 q 94 855 83 879 q 103 831 98 843 q 110 808 107 819 q 171 924 110 883 q 307 982 233 965 q 374 992 342 989 q 433 996 407 996 l 453 996 q 471 995 462 996 l 471 974 q 357 936 397 972 q 317 851 317 900 l 317 568 m 317 361 l 492 480 q 485 487 489 483 q 478 496 482 491 q 469 509 473 502 q 460 523 464 516 q 426 564 444 546 q 385 583 408 583 q 354 575 371 583 q 317 546 337 566 l 317 361 "},"Ù":{"x_min":-42.6875,"x_max":939.796875,"ha":918,"o":"m 99 304 l 99 698 q 85 755 97 729 q 47 780 72 780 q 17 773 33 782 q -20 741 0 764 l -42 765 l 175 984 q 202 966 187 975 q 233 947 218 957 q 306 883 273 921 q 340 782 338 846 l 340 773 q 339 768 339 771 l 339 240 l 448 186 l 547 273 l 547 689 q 521 751 547 727 q 448 775 496 775 l 448 798 q 450 797 449 797 l 453 797 l 455 796 l 457 796 q 499 806 477 796 q 544 833 521 816 q 600 886 573 855 q 651 948 628 916 q 658 960 655 954 q 666 972 662 966 q 679 950 671 961 q 695 929 687 940 q 781 838 731 879 q 885 797 831 797 l 885 776 q 803 748 820 775 q 787 687 787 721 l 787 284 q 804 216 787 245 q 852 186 821 186 q 887 195 867 186 q 928 227 906 205 l 939 208 l 699 -11 q 645 29 669 11 q 603 64 621 47 q 560 126 574 91 q 547 227 547 161 l 284 -11 q 243 25 270 1 q 183 73 216 48 q 141 103 162 89 q 99 130 121 118 q 48 157 73 145 q 0 173 22 168 l 0 197 q 86 221 73 195 q 99 304 99 247 m 567 1027 q 542 1036 555 1031 q 515 1046 528 1041 q 498 1053 506 1049 q 481 1059 490 1056 q 398 1096 435 1078 q 349 1124 360 1113 q 323 1157 331 1141 q 315 1187 315 1173 q 340 1233 315 1214 q 395 1253 365 1253 l 401 1253 q 409 1251 405 1253 q 429 1245 419 1249 q 448 1234 440 1241 q 494 1180 466 1221 q 554 1091 522 1138 q 567 1070 560 1080 q 580 1049 574 1060 q 585 1043 583 1046 q 590 1037 587 1039 l 567 1027 "},"Ů":{"x_min":-42.6875,"x_max":939.796875,"ha":918,"o":"m 99 304 l 99 698 q 85 754 97 728 q 47 780 72 780 q 17 772 33 781 q -20 741 0 763 l -42 765 l 175 984 q 202 965 187 974 q 233 947 218 956 q 306 883 273 920 q 340 781 338 845 l 340 773 q 339 767 339 770 l 339 240 l 448 186 l 547 273 l 547 688 q 522 751 547 727 q 448 774 497 774 l 448 798 q 451 797 449 797 l 453 797 l 455 796 l 458 796 q 499 806 477 796 q 544 833 522 816 q 601 886 573 855 q 651 948 628 916 q 658 960 655 954 q 666 972 662 966 q 679 950 671 961 q 695 929 687 940 q 781 838 731 879 q 885 797 831 797 l 885 776 q 803 747 820 774 q 787 687 787 720 l 787 284 q 804 216 787 246 q 852 186 821 186 q 887 196 867 186 q 928 227 906 205 l 939 208 l 699 -11 q 645 29 669 11 q 603 64 621 47 q 560 126 574 91 q 547 227 547 161 l 284 -11 q 243 25 270 1 q 183 73 216 48 q 141 103 162 88 q 99 130 121 118 q 48 156 73 145 q 0 173 22 168 l 0 197 q 86 221 73 195 q 99 304 99 247 m 449 1295 q 455 1293 452 1293 l 462 1293 q 586 1256 543 1294 q 632 1175 630 1219 l 632 1170 q 589 1089 632 1126 q 461 1053 547 1053 q 329 1089 372 1053 q 286 1169 287 1126 l 286 1173 q 329 1255 287 1218 q 449 1293 372 1293 l 449 1295 m 461 1229 q 416 1210 432 1228 q 399 1172 400 1193 q 414 1134 399 1151 q 461 1118 429 1118 q 503 1134 489 1118 q 518 1172 518 1151 q 505 1210 519 1193 q 461 1228 490 1228 l 461 1229 "},"¢":{"x_min":77,"x_max":743,"ha":787,"o":"m 460 711 q 496 707 478 709 q 533 701 514 705 q 669 634 608 683 q 733 510 731 584 q 727 469 733 490 q 710 425 721 449 q 664 383 695 397 q 596 370 633 370 q 510 394 549 368 q 472 468 472 420 q 474 490 472 479 q 480 513 476 500 q 500 538 485 526 q 531 561 515 550 q 537 566 534 564 q 545 571 541 568 q 574 594 562 582 q 585 620 585 606 q 583 636 587 626 q 567 654 578 645 q 524 673 552 670 q 466 676 497 676 l 460 676 l 460 33 q 469 32 465 32 l 479 32 q 640 88 583 30 q 713 218 697 147 q 718 239 716 229 q 722 261 720 250 l 743 262 q 736 209 743 240 q 713 145 730 179 q 627 45 687 90 q 460 0 568 0 l 460 -218 l 427 -218 l 427 0 q 376 4 402 0 q 322 16 350 8 q 158 124 233 47 q 77 315 83 202 l 77 331 q 136 542 77 463 q 265 660 195 620 q 356 698 313 687 q 427 709 400 709 l 427 897 l 460 897 l 460 711 m 427 677 q 345 593 368 669 q 318 427 323 516 q 317 381 318 404 q 317 337 317 358 q 339 110 317 182 q 427 32 361 38 l 427 677 "},"é":{"x_min":50,"x_max":579.046875,"ha":590,"o":"m 415 743 l 567 502 l 262 305 q 329 193 287 227 q 416 154 370 158 q 423 152 420 152 l 431 152 q 506 170 470 152 q 567 216 542 187 l 579 197 q 534 158 556 176 q 488 122 512 140 q 399 54 442 87 q 316 -11 355 20 q 138 93 194 27 q 63 227 81 158 q 57 255 59 241 q 54 283 55 269 q 51 326 52 304 q 50 372 50 348 l 50 390 q 51 409 50 400 q 78 542 54 479 q 163 633 102 605 l 415 743 m 197 798 q 213 826 204 811 q 231 858 222 841 q 246 880 238 869 q 262 902 254 891 q 297 949 280 927 q 327 983 315 970 q 361 1007 344 1000 q 393 1014 377 1014 q 447 993 425 1015 q 469 943 469 970 q 461 912 469 927 q 437 884 454 897 q 413 868 426 876 q 384 852 400 859 q 313 823 355 838 q 208 786 272 807 l 197 798 m 251 645 l 251 339 l 392 426 l 251 645 "},"B":{"x_min":14,"x_max":1093.609375,"ha":1149,"o":"m 579 841 q 651 955 593 919 q 775 992 708 992 q 888 966 835 992 q 963 896 940 941 q 978 850 974 876 q 985 794 982 823 q 1001 702 989 744 q 1064 661 1014 661 q 1078 662 1071 661 q 1093 665 1085 663 l 1093 645 q 1029 638 1061 644 q 968 625 997 631 q 942 617 954 620 q 918 611 929 613 q 949 583 928 598 q 992 547 969 568 q 1047 481 1022 520 q 1072 387 1072 442 q 1070 352 1072 370 q 1061 315 1067 334 q 917 107 1020 189 q 700 0 814 25 q 646 -9 672 -6 q 593 -13 619 -13 q 483 2 535 -13 q 393 52 432 17 q 249 165 304 127 q 161 203 194 203 q 115 176 131 203 q 87 97 98 150 l 65 98 q 65 111 65 104 q 66 125 66 118 q 139 264 76 200 q 339 338 202 329 q 344 372 340 350 q 350 422 347 394 q 358 496 354 455 q 363 579 361 536 q 364 607 364 593 l 364 635 q 361 712 364 675 q 350 775 358 748 q 304 867 331 834 q 249 912 277 900 q 230 918 239 916 q 210 921 220 921 q 144 898 173 921 q 110 847 116 875 q 109 841 109 844 l 109 836 q 115 809 107 822 q 141 786 123 795 q 248 696 214 747 q 283 593 283 645 q 223 457 283 520 q 54 370 163 394 l 54 393 q 61 391 58 391 q 68 393 65 391 q 133 418 104 397 q 163 468 162 440 q 162 479 163 473 q 156 490 160 484 q 143 507 152 498 q 120 523 134 516 q 39 601 65 554 q 14 700 14 648 q 14 714 14 707 q 15 730 15 722 q 53 835 23 784 q 130 916 83 886 q 161 936 145 927 q 193 951 177 944 q 271 977 232 969 q 346 985 310 985 q 499 944 433 985 q 579 840 564 903 l 579 841 m 464 292 q 553 233 513 265 q 632 160 601 194 q 677 119 664 127 q 690 108 684 113 q 703 99 696 103 q 742 81 723 87 q 780 76 762 76 q 878 119 838 76 q 920 215 917 163 l 920 219 q 917 246 920 233 q 907 272 914 259 q 881 324 899 288 q 827 398 863 359 q 737 472 792 437 q 601 523 682 506 q 492 412 553 451 q 368 340 431 373 q 364 338 365 340 l 362 338 q 464 292 416 322 m 917 634 q 779 704 805 654 q 753 813 753 755 l 753 851 q 728 913 749 891 q 684 937 707 934 l 680 937 q 636 916 656 937 q 612 851 616 895 q 610 833 611 843 q 610 813 610 823 q 609 802 610 808 q 608 791 608 797 q 609 761 608 777 q 610 729 610 745 q 610 711 610 720 q 611 694 611 702 l 611 661 q 610 600 612 630 q 601 547 608 570 l 917 634 "},"…":{"x_min":87.5,"x_max":1290.375,"ha":1389,"o":"m 240 263 q 276 180 248 212 q 361 140 304 149 l 361 110 q 280 58 312 92 q 240 -22 248 25 l 208 -22 q 179 40 202 11 q 130 87 156 69 q 108 100 119 95 q 87 108 97 105 l 87 141 q 168 176 144 148 q 208 261 191 204 l 240 263 m 722 263 q 757 180 730 212 q 841 140 784 149 l 841 110 q 761 58 793 92 q 722 -22 730 25 l 688 -22 q 659 41 683 11 q 608 89 636 72 q 587 101 597 96 q 568 108 577 105 l 568 142 q 647 175 625 148 q 687 256 670 201 q 688 258 687 257 q 688 261 688 259 l 722 263 m 1170 263 q 1205 180 1177 212 q 1290 140 1233 149 l 1290 110 q 1209 58 1241 92 q 1170 -22 1177 25 l 1137 -22 q 1108 41 1132 11 q 1057 88 1084 72 q 1036 100 1045 95 q 1016 108 1026 105 l 1016 141 q 1097 176 1073 148 q 1137 261 1120 204 l 1170 263 "},"ē":{"x_min":50,"x_max":579.046875,"ha":590,"o":"m 415 743 l 567 502 l 262 305 q 329 193 287 227 q 416 154 370 158 q 423 152 420 152 l 431 152 q 506 170 470 152 q 567 216 542 187 l 579 197 q 534 158 556 176 q 488 122 512 140 q 399 54 442 87 q 316 -11 355 20 q 138 93 194 27 q 63 227 81 158 q 57 255 59 241 q 54 283 55 269 q 51 326 52 304 q 50 372 50 348 l 50 390 q 51 409 50 400 q 78 542 54 479 q 163 633 102 605 l 415 743 m 251 645 l 251 338 l 392 426 l 251 645 m 70 873 l 515 873 l 515 798 l 70 798 l 70 873 "},"H":{"x_min":16.640625,"x_max":1110.125,"ha":1181,"o":"m 448 502 q 619 618 536 583 q 776 653 703 653 q 1012 549 919 654 q 1110 318 1105 444 l 1110 309 q 1096 216 1110 262 q 1050 129 1082 169 q 949 34 1008 76 q 828 -41 890 -8 q 687 -111 754 -81 q 579 -163 619 -141 q 570 -151 575 -156 q 560 -140 565 -145 q 493 -86 526 -102 q 432 -68 460 -69 q 367 -93 393 -68 q 342 -155 342 -119 q 344 -176 342 -166 q 350 -196 346 -187 q 421 -267 367 -238 q 543 -295 475 -295 q 588 -292 565 -295 q 635 -281 611 -288 q 720 -239 678 -267 q 798 -163 762 -210 l 821 -174 q 738 -249 782 -219 q 648 -295 694 -278 q 592 -310 621 -305 q 536 -315 564 -315 q 376 -264 443 -315 q 308 -131 309 -213 q 310 -104 308 -117 q 316 -76 312 -91 q 402 47 341 8 q 531 86 462 86 q 659 51 599 86 q 743 -42 719 17 q 838 37 808 -24 q 867 175 867 99 q 866 201 867 187 q 864 228 865 215 q 823 373 854 304 q 743 479 792 442 q 678 515 715 504 q 603 527 642 527 q 526 517 564 527 q 459 490 489 507 q 518 390 500 438 q 538 300 536 342 q 468 145 538 207 q 315 58 398 83 q 260 46 287 50 q 208 42 233 42 q 83 82 126 42 q 24 171 40 122 q 18 201 20 186 q 16 229 16 215 q 18 253 16 242 q 22 272 19 264 q 58 322 31 306 q 115 338 84 338 l 119 338 q 190 310 158 336 q 222 237 222 285 q 221 223 222 230 q 218 207 220 215 q 206 184 215 197 q 188 157 198 171 q 185 151 187 154 q 181 146 183 148 q 166 119 173 132 q 159 95 159 107 q 170 75 159 84 q 208 64 180 66 l 216 64 q 219 63 218 63 l 223 63 q 296 88 268 63 q 325 158 325 114 q 315 211 325 182 q 284 272 306 240 q 271 291 277 282 q 258 308 265 300 q 250 319 254 314 q 243 331 247 325 q 158 468 195 397 q 121 633 121 539 q 212 777 125 725 q 408 874 299 829 q 416 877 412 875 q 424 881 420 879 q 544 933 486 906 q 645 995 602 960 q 716 881 670 918 q 813 839 762 843 l 827 839 q 917 865 876 839 q 973 939 958 892 l 995 929 q 892 798 948 849 q 779 723 837 747 q 728 707 754 712 q 677 703 702 703 q 545 744 605 703 q 448 862 484 785 q 369 819 402 849 q 336 737 336 790 q 361 639 336 697 q 448 501 387 580 l 448 502 "},"î":{"x_min":-17.65625,"x_max":408.359375,"ha":405,"o":"m 99 513 q 90 565 99 548 q 67 581 82 581 q 46 575 57 581 q 22 556 35 569 l 11 579 q 116 668 68 627 q 197 741 164 709 q 226 712 211 727 q 257 680 240 697 q 310 636 282 658 q 372 599 339 615 l 372 579 q 318 566 331 577 q 306 523 306 555 l 306 197 q 316 150 306 165 q 343 136 326 136 q 367 142 354 136 q 393 162 379 148 l 404 141 l 208 -22 q 191 -12 200 -17 q 174 0 182 -6 q 122 62 146 23 q 99 151 99 101 l 99 513 m 0 809 q 27 836 12 820 q 59 870 43 852 l 61 871 l 62 874 q 113 930 90 905 q 141 960 136 955 q 170 983 156 976 q 195 990 184 990 q 224 982 211 990 q 251 960 237 974 l 393 809 q 403 794 400 801 q 408 780 406 787 q 400 767 408 770 q 372 774 391 764 l 197 852 l 33 787 q 9 773 19 777 q -6 769 -1 769 q -17 780 -19 769 q 0 808 -15 791 l 0 809 "},"−":{"x_min":-11.109375,"x_max":688.9375,"ha":689,"o":"m -11 449 l 688 449 l 688 328 l -11 328 l -11 449 "},"¥":{"x_min":-22.359375,"x_max":897.03125,"ha":897,"o":"m 513 502 l 699 842 q 710 866 706 854 q 715 888 715 878 q 683 935 715 920 q 601 951 651 951 l 601 996 l 897 996 l 897 952 q 843 934 863 945 q 805 904 823 924 q 785 881 795 894 q 765 851 776 868 l 567 514 l 742 514 l 742 471 l 547 471 l 547 328 l 742 328 l 742 285 l 547 285 l 547 98 q 581 48 547 55 q 655 42 615 42 l 655 0 l 251 0 l 251 43 l 252 42 l 255 42 q 327 49 294 42 q 361 97 361 57 l 361 285 l 163 285 l 163 328 l 361 328 l 361 471 l 163 471 l 163 514 l 327 514 l 120 875 q 57 932 95 914 q -20 951 19 951 l -22 996 l 426 996 l 426 952 q 354 938 376 950 q 333 901 333 926 q 337 875 333 890 q 349 840 341 860 l 513 502 "},"U":{"x_min":-42.6875,"x_max":939.796875,"ha":918,"o":"m 99 304 l 99 698 q 85 755 97 729 q 47 780 72 780 q 17 773 33 782 q -20 741 0 764 l -42 765 l 175 985 q 202 966 187 975 q 233 947 218 957 q 306 883 273 921 q 340 782 338 846 l 340 773 q 339 768 339 771 l 339 240 l 448 186 l 547 273 l 547 689 q 521 751 547 728 q 448 775 496 775 l 448 798 q 450 797 449 797 l 453 797 l 455 796 l 457 796 q 499 806 477 796 q 544 833 521 816 q 600 886 573 855 q 651 948 628 916 q 658 960 655 954 q 666 972 662 966 q 679 950 671 961 q 695 929 687 940 q 781 838 731 879 q 885 797 831 797 l 885 776 q 803 748 820 775 q 787 687 787 721 l 787 284 q 804 216 787 245 q 852 186 821 186 q 887 195 867 186 q 928 227 906 205 l 939 208 l 699 -11 q 645 29 669 11 q 603 64 621 47 q 560 126 574 91 q 547 227 547 161 l 284 -11 q 243 25 270 1 q 183 73 216 48 q 141 103 162 89 q 99 130 121 118 q 48 157 73 145 q 0 173 22 168 l 0 197 q 86 221 73 195 q 99 304 99 247 "},"Ñ":{"x_min":11.125,"x_max":1104.171875,"ha":1072,"o":"m 87 372 q 193 416 162 398 q 224 447 223 433 q 221 457 224 452 q 211 466 218 462 q 172 487 197 476 q 123 511 148 497 q 56 559 87 530 q 22 633 24 587 l 22 647 q 20 652 20 650 l 20 659 q 117 916 20 829 q 329 1012 213 1004 q 340 1014 334 1014 l 351 1014 q 509 970 436 1014 q 612 840 582 926 q 659 933 626 901 q 726 979 691 965 q 777 991 752 989 q 820 994 802 994 q 970 934 937 986 q 1007 819 1002 882 q 1008 798 1008 809 l 1008 777 q 1020 684 1009 723 q 1092 644 1031 644 l 1103 644 l 1103 623 l 1074 623 q 973 590 1017 625 q 929 469 929 555 q 926 416 927 444 q 925 361 925 389 l 925 357 q 939 208 925 276 q 1000 140 954 140 q 1036 150 1016 140 q 1083 184 1056 161 l 1104 164 l 852 -22 q 793 16 818 -1 q 750 54 768 34 q 705 135 714 93 q 692 243 696 178 q 691 267 692 254 q 689 294 690 280 q 686 327 687 311 q 686 358 686 344 q 753 552 686 509 q 938 618 820 596 q 950 620 944 619 q 962 622 956 621 q 819 671 855 626 q 774 771 783 716 q 770 796 772 783 q 768 822 769 809 q 756 891 765 862 q 710 919 747 919 q 700 918 705 919 q 688 916 695 918 q 645 866 656 904 q 634 776 634 829 q 636 720 634 750 q 640 658 638 690 q 642 627 641 643 q 645 596 643 611 q 645 563 645 579 q 646 532 646 547 q 643 471 646 501 q 634 414 641 441 q 584 323 623 377 q 494 212 544 269 q 468 182 482 197 l 440 151 q 336 47 386 94 q 262 -22 287 0 l 98 130 l 33 65 l 11 87 l 229 305 l 404 164 q 404 175 404 162 q 407 211 405 189 q 407 266 407 234 q 408 336 408 298 q 406 447 408 387 q 400 568 405 507 q 390 675 397 622 q 372 775 383 727 q 322 859 362 825 q 234 901 281 894 q 222 903 229 902 q 211 904 216 904 q 152 889 180 904 q 109 840 124 875 q 106 830 108 834 q 105 819 105 825 q 121 782 105 798 q 162 748 137 765 q 183 735 172 741 q 204 722 194 729 q 249 691 227 707 q 284 654 270 675 q 308 608 300 633 q 316 555 316 583 l 316 541 q 315 529 316 536 q 250 409 306 464 q 87 348 194 354 l 87 372 m 295 1099 q 349 1225 310 1188 q 432 1270 388 1263 q 444 1270 438 1270 q 456 1271 450 1271 q 506 1264 482 1271 q 546 1250 530 1258 q 558 1243 552 1247 q 570 1236 564 1239 q 625 1205 598 1220 q 678 1190 652 1190 q 718 1204 699 1190 q 753 1250 737 1217 l 776 1251 q 726 1120 766 1160 q 641 1072 687 1081 q 629 1072 635 1072 q 617 1071 623 1071 q 566 1079 591 1071 q 524 1097 541 1086 q 448 1139 485 1124 q 384 1154 412 1154 q 341 1142 359 1156 q 317 1097 324 1128 l 295 1099 "},"F":{"x_min":18,"x_max":996,"ha":1028,"o":"m 624 634 q 556 661 594 644 q 475 697 518 679 q 424 717 450 706 q 372 737 399 727 q 282 764 326 754 q 198 775 237 775 q 128 762 160 775 q 76 720 97 750 q 59 687 65 704 q 53 654 53 670 q 109 549 53 594 q 243 503 166 504 q 268 504 255 503 q 294 508 280 505 q 369 543 332 518 q 437 611 407 568 l 459 601 q 373 518 422 547 q 273 482 323 490 q 255 480 264 480 q 239 479 247 479 q 85 536 153 479 q 18 693 18 593 q 19 716 18 704 l 21 741 q 121 911 37 840 q 345 982 206 982 q 559 940 441 983 q 810 797 676 897 q 856 771 833 779 q 897 763 879 763 q 944 778 926 763 q 963 815 963 793 q 959 835 963 825 q 949 856 956 844 q 903 894 935 875 q 821 928 872 914 l 821 951 q 944 894 907 929 q 989 819 982 858 q 989 809 989 814 q 990 799 990 804 q 985 764 990 781 q 973 732 980 747 q 901 649 952 685 q 753 614 851 614 q 707 616 731 614 q 655 622 683 618 q 638 597 644 611 q 633 568 633 583 q 635 543 633 555 q 642 518 638 530 q 661 481 651 500 q 683 445 672 462 q 704 415 694 429 q 722 391 715 401 q 719 416 720 404 q 718 439 718 427 q 761 552 718 516 q 855 588 804 588 l 859 588 q 950 555 908 586 q 996 469 991 525 q 963 393 996 418 q 890 368 930 368 q 823 388 854 368 q 793 449 793 409 q 802 493 793 469 q 830 545 811 518 q 822 549 826 548 q 813 550 818 550 q 768 520 788 551 q 749 440 749 488 q 757 381 749 412 q 785 319 765 351 q 801 295 792 306 q 821 272 810 283 q 853 234 839 254 q 878 197 867 215 q 909 120 899 158 q 920 47 920 83 q 817 -179 920 -80 q 593 -307 715 -279 q 553 -314 574 -312 q 514 -317 533 -317 l 496 -317 q 470 -316 483 -317 q 443 -314 457 -315 q 198 -215 310 -298 q 85 -4 86 -132 q 103 90 85 40 q 164 195 122 141 q 204 261 192 231 q 216 309 216 290 q 205 341 216 330 q 178 354 195 352 q 147 346 164 354 q 114 323 130 338 q 75 276 94 305 q 42 206 56 247 l 22 218 q 103 346 37 290 q 251 402 169 402 q 387 346 347 394 q 427 233 427 298 q 421 175 427 205 q 404 115 415 145 q 376 50 393 83 q 339 -11 360 17 q 306 -77 317 -47 q 295 -134 295 -108 q 355 -248 293 -208 q 490 -287 417 -287 l 494 -287 q 627 -244 566 -286 q 689 -115 689 -202 q 673 -29 689 -76 q 623 74 658 17 q 548 195 583 145 q 496 288 512 244 q 484 324 487 306 q 481 361 481 341 q 486 406 481 381 q 503 458 492 430 q 506 464 504 461 q 508 470 507 468 q 527 500 518 488 q 546 523 536 512 q 581 563 562 540 q 624 633 600 586 l 624 634 "},"ā":{"x_min":57,"x_max":688.609375,"ha":689,"o":"m 403 733 q 433 700 413 718 q 478 665 452 683 q 547 623 509 643 q 624 589 585 603 q 646 583 635 586 q 666 578 656 580 l 666 558 l 648 558 q 603 541 617 559 q 590 501 590 523 l 590 197 q 600 141 590 158 q 633 123 610 123 q 658 128 644 123 q 688 140 671 132 l 688 121 q 603 56 648 94 q 502 -22 559 18 l 496 -16 q 492 -14 495 -15 q 477 0 485 -5 q 460 13 468 6 q 413 61 435 36 q 391 116 392 86 l 391 119 q 393 123 391 120 l 392 129 q 335 92 363 112 q 281 49 308 72 q 233 12 256 30 q 185 -22 209 -5 q 125 21 148 3 q 88 58 102 40 q 69 103 73 79 q 65 162 65 126 l 65 490 q 65 508 65 498 q 71 529 66 518 q 92 560 76 544 q 141 589 108 576 q 197 612 166 600 q 261 640 229 625 q 338 681 301 658 q 403 732 376 704 l 403 733 m 262 175 q 271 127 262 143 q 296 111 280 111 q 311 113 303 111 q 327 119 319 115 l 383 152 l 383 525 q 317 560 344 538 q 268 605 291 581 l 262 611 l 262 175 m 57 897 l 613 897 l 613 815 l 57 815 l 57 897 "},"*":{"x_min":50,"x_max":525,"ha":558,"o":"m 273 743 q 265 788 273 766 q 245 829 256 809 l 244 830 l 244 832 q 226 872 234 851 q 218 916 218 893 l 218 923 q 238 970 216 954 q 287 986 261 986 q 330 972 311 986 q 350 927 350 958 l 350 916 q 349 908 350 912 q 348 900 348 904 q 339 870 345 886 q 328 841 333 855 q 311 801 318 822 q 305 758 305 780 l 305 750 q 306 741 305 745 q 330 764 319 752 q 351 788 342 776 q 367 811 360 800 q 383 832 375 822 q 403 856 393 845 q 426 873 414 866 q 443 879 435 877 q 458 882 451 882 q 503 859 486 882 q 521 810 521 837 q 511 776 521 792 q 480 753 501 760 q 457 748 472 750 q 423 745 441 746 q 415 743 419 743 q 408 742 412 743 q 352 734 377 739 q 327 721 327 729 q 363 703 344 708 q 401 696 381 698 q 417 695 409 696 q 431 693 424 694 q 456 691 444 693 q 480 687 469 690 q 513 665 504 680 q 525 632 523 650 l 525 625 q 502 578 522 599 q 455 558 483 558 q 430 562 443 558 q 404 578 418 567 q 386 603 396 587 q 364 639 376 620 q 337 674 351 658 q 306 699 322 691 q 313 646 306 670 q 329 601 321 621 q 341 572 336 585 q 349 546 347 559 q 353 534 352 541 q 354 522 354 528 q 333 479 354 494 q 287 464 312 464 q 239 481 261 464 q 218 536 218 498 l 218 546 q 227 579 218 559 q 246 622 236 599 q 265 665 257 645 q 274 699 274 686 q 239 677 253 690 q 218 650 226 664 q 207 634 212 642 q 198 618 203 625 q 193 609 196 613 q 186 600 190 604 q 168 581 178 589 q 151 568 159 574 q 132 561 141 563 q 115 559 123 559 q 70 577 88 559 q 50 619 51 595 q 51 633 50 626 q 57 649 53 640 q 64 662 59 656 q 76 676 69 669 q 112 693 89 689 q 159 699 134 697 l 168 699 q 214 705 191 701 q 251 721 236 710 q 216 737 239 733 q 169 742 194 740 l 158 742 q 117 744 136 742 q 87 753 98 746 q 61 779 69 764 q 53 809 53 794 q 73 859 53 837 q 120 882 94 880 q 143 877 132 882 q 163 862 154 873 q 168 857 166 859 q 173 851 170 854 q 188 831 181 841 q 204 809 195 821 q 236 766 219 786 q 273 742 254 747 l 273 743 "},"†":{"x_min":69.375,"x_max":793.125,"ha":842,"o":"m 688 689 q 693 688 691 688 l 697 688 q 768 654 744 688 q 793 581 793 621 l 793 576 q 768 505 791 538 q 700 470 745 472 q 653 478 677 470 q 604 499 629 486 q 588 507 597 503 q 573 515 580 511 q 510 546 540 532 q 455 560 480 560 l 451 560 q 447 558 448 560 q 442 558 444 558 q 437 557 440 557 q 482 439 445 483 q 568 371 519 394 q 538 269 555 329 q 501 123 520 208 q 466 -59 483 44 q 437 -296 450 -163 l 415 -296 q 402 -173 409 -236 q 386 -47 394 -111 q 345 173 369 64 q 284 371 320 282 q 374 451 341 403 q 415 557 406 499 q 400 559 408 558 q 386 560 393 560 q 326 546 351 560 q 279 515 301 532 l 276 513 q 231 483 254 496 q 175 470 208 470 q 97 504 123 470 q 69 578 70 538 l 69 582 q 92 655 68 622 q 163 688 116 688 l 175 688 q 220 680 200 688 q 259 661 240 672 q 275 652 268 657 q 291 643 283 647 q 344 617 315 629 q 415 600 373 604 q 397 685 411 650 q 366 750 383 721 q 354 771 359 761 q 343 793 348 782 q 324 836 331 814 q 316 884 316 858 q 350 963 316 937 q 426 990 384 990 l 430 990 q 507 962 472 990 q 547 884 543 935 q 529 823 547 855 q 493 755 512 790 q 454 681 472 719 q 437 600 437 642 q 511 617 483 607 q 559 640 540 628 q 577 651 569 646 q 593 661 584 656 q 632 680 611 672 q 688 688 654 688 l 688 689 "},"°":{"x_min":33,"x_max":379,"ha":383,"o":"m 196 1017 q 202 1015 199 1015 l 209 1015 q 333 978 290 1016 q 379 897 377 941 l 379 892 q 336 811 379 848 q 208 775 294 775 q 76 811 119 775 q 33 891 34 848 l 33 895 q 76 977 34 940 q 196 1015 119 1015 l 196 1017 m 208 951 q 163 932 179 950 q 146 894 147 915 q 161 856 146 873 q 208 840 176 840 q 250 856 236 840 q 265 894 265 873 q 252 932 266 915 q 208 950 237 950 l 208 951 "},"å":{"x_min":65,"x_max":689.609375,"ha":689,"o":"m 404 733 q 433 701 414 718 q 479 665 453 683 q 548 623 510 643 q 625 589 586 603 q 647 583 636 586 q 667 578 657 580 l 667 558 l 649 558 q 604 541 618 560 q 591 501 591 523 l 591 197 q 601 141 591 158 q 634 123 611 123 q 659 128 645 123 q 689 140 672 132 l 689 121 q 604 56 649 94 q 503 -22 560 18 l 497 -16 q 493 -14 496 -15 q 478 0 486 -5 q 461 13 469 6 q 414 61 436 36 q 392 116 393 86 l 392 119 q 394 123 392 121 l 393 129 q 336 92 363 112 q 281 50 308 72 q 233 12 256 30 q 185 -22 209 -5 q 125 21 148 3 q 88 58 102 40 q 69 103 73 79 q 65 162 65 126 l 65 490 q 65 508 65 498 q 70 529 66 518 q 92 560 76 544 q 141 589 108 576 q 197 612 166 600 q 261 640 229 625 q 339 681 301 658 q 404 732 376 704 l 404 733 m 327 1017 q 333 1015 330 1015 l 341 1015 q 465 978 422 1016 q 510 897 508 941 l 510 892 q 468 811 510 848 q 338 775 426 775 q 207 811 249 775 q 165 891 165 848 l 165 895 q 208 977 166 940 q 327 1015 249 1015 l 327 1017 m 262 175 q 271 127 262 143 q 297 111 280 111 q 311 113 304 111 q 327 119 319 115 l 384 153 l 384 525 q 318 560 344 539 q 267 605 291 582 l 262 611 l 262 175 m 338 951 q 295 933 311 950 q 277 897 279 916 l 277 892 q 292 856 277 873 q 338 840 306 840 q 381 856 366 840 q 395 894 395 873 q 382 932 397 915 q 338 950 368 950 l 338 951 "},"0":{"x_min":36,"x_max":869,"ha":897,"o":"m 437 951 q 763 795 657 941 q 869 474 869 649 l 869 470 q 760 139 869 290 q 448 -11 652 -11 q 140 135 242 -11 q 36 458 37 281 l 36 466 q 139 789 38 641 q 437 949 240 937 l 437 951 m 536 830 q 507 897 536 873 q 443 922 479 922 l 438 922 q 377 895 405 920 q 350 819 350 870 l 350 109 q 381 35 354 60 q 441 9 409 10 l 445 9 q 508 33 480 8 q 536 108 536 58 l 536 830 "},"”":{"x_min":109.734375,"x_max":711.171875,"ha":821,"o":"m 437 545 l 437 568 q 517 636 491 590 q 561 737 543 681 q 572 768 566 752 q 584 801 579 784 q 631 891 602 847 q 711 972 659 935 l 711 951 q 644 864 670 913 q 613 763 618 815 q 612 752 612 758 l 612 741 q 635 647 612 693 q 711 566 658 601 l 711 547 q 638 495 669 529 q 590 414 607 462 l 568 415 q 530 483 552 457 q 484 525 508 509 q 460 538 472 533 q 437 545 448 543 m 109 545 l 109 568 q 189 636 163 590 q 233 737 215 681 q 245 768 238 752 q 256 801 251 784 q 303 891 275 847 q 383 972 331 935 l 383 951 q 313 859 340 912 q 283 751 286 806 l 283 740 q 306 646 283 691 q 383 566 330 601 l 383 547 q 310 495 341 529 q 262 414 279 462 l 240 415 q 202 483 225 457 q 156 525 180 509 q 132 538 144 533 q 109 545 120 543 "},"ö":{"x_min":33.84375,"x_max":615,"ha":666,"o":"m 88 634 q 121 630 103 632 q 157 629 139 629 q 275 642 210 629 q 407 696 340 655 q 439 716 423 705 q 470 741 455 728 q 521 703 499 722 q 559 666 542 685 q 607 562 600 615 q 612 439 613 508 l 612 391 q 613 366 612 379 q 614 343 614 354 q 614 319 614 330 q 615 297 615 308 q 587 175 615 229 q 448 97 559 121 q 420 87 436 94 q 388 69 405 79 q 343 29 365 53 q 305 -22 320 5 q 285 8 300 -8 q 248 41 271 25 q 193 82 223 62 q 130 115 162 101 q 81 133 106 126 q 33 140 56 140 l 33 164 q 72 184 57 162 q 88 239 88 207 l 88 634 m 415 514 q 390 579 415 555 q 338 612 366 602 q 309 620 323 618 q 285 622 296 622 l 285 229 l 415 141 l 415 514 m 437 787 q 388 825 408 801 q 358 874 368 849 q 352 894 354 884 q 350 913 350 903 q 370 962 350 942 q 437 983 391 983 q 513 962 490 983 q 536 912 536 941 q 535 897 536 905 q 531 881 534 889 q 498 826 523 852 q 437 785 473 799 l 437 787 m 186 787 q 120 851 141 819 q 100 910 100 884 q 126 962 100 942 q 197 983 152 983 q 261 960 238 983 q 286 906 284 938 q 283 885 286 896 q 275 864 280 874 q 243 822 265 842 q 186 785 220 802 l 186 787 "},"Õ":{"x_min":0.1875,"x_max":1096,"ha":1127,"o":"m 426 962 q 337 915 362 942 q 311 853 311 888 q 331 776 311 817 q 376 691 351 734 q 378 688 378 690 q 380 685 379 687 q 422 604 403 644 q 441 529 441 565 q 441 515 441 522 q 437 501 440 508 q 357 393 421 433 q 219 353 293 353 q 77 400 143 353 q 0 556 12 448 l 22 558 q 25 528 22 544 q 37 497 29 513 q 84 428 52 459 q 155 397 116 398 l 162 397 q 171 398 166 397 q 178 399 175 398 q 186 402 182 401 q 207 416 201 408 q 214 434 214 424 q 197 478 214 453 q 161 534 180 503 q 130 582 144 556 q 109 633 115 608 q 107 644 108 638 q 105 655 107 649 q 105 666 105 660 q 104 677 104 671 l 104 694 q 197 871 112 788 q 415 982 282 953 q 492 991 455 989 q 564 994 529 994 q 891 905 783 995 q 1046 706 1000 814 q 1060 669 1054 688 q 1072 633 1066 651 q 1090 550 1084 591 q 1096 469 1096 509 q 971 125 1096 272 q 637 -22 846 -22 q 562 -16 601 -22 q 480 0 522 -10 q 409 32 443 9 q 341 81 375 54 q 328 91 334 86 q 315 102 322 97 q 234 165 276 135 q 141 206 191 194 l 137 206 q 133 208 136 206 l 125 208 q 62 186 83 208 q 32 139 41 164 l 26 123 q 22 108 23 114 l 0 109 q 89 246 19 183 q 239 336 159 309 q 280 346 259 343 q 321 350 301 350 l 330 350 q 334 349 332 349 l 339 349 q 443 312 384 343 q 568 246 503 282 q 614 221 590 233 l 661 196 q 757 157 709 172 q 850 142 805 142 q 934 161 894 142 q 1005 228 973 180 q 1044 303 1030 261 q 1060 387 1057 344 l 1060 409 q 1024 559 1058 489 q 929 665 990 630 q 847 696 890 687 q 759 707 804 705 l 730 707 q 697 706 714 707 q 665 705 680 705 q 633 704 648 705 q 603 704 618 704 q 530 709 564 704 q 471 731 496 715 q 456 742 468 734 q 430 765 444 751 q 403 805 415 781 q 390 860 390 828 q 398 907 390 881 q 426 960 407 932 l 426 962 m 316 1093 q 371 1219 331 1181 q 455 1265 411 1258 q 467 1266 461 1265 q 479 1267 473 1267 q 528 1260 505 1267 q 568 1246 551 1254 q 579 1239 573 1243 q 591 1232 586 1234 q 647 1200 619 1215 q 701 1186 675 1186 q 741 1199 722 1186 q 776 1245 759 1212 l 798 1247 q 749 1115 788 1155 q 663 1068 709 1074 q 650 1067 657 1068 q 638 1067 644 1067 q 588 1073 612 1067 q 547 1091 563 1080 q 472 1134 508 1118 q 406 1150 436 1150 q 364 1136 381 1150 q 338 1091 347 1123 l 316 1093 "},"þ":{"x_min":28.9375,"x_max":689,"ha":743,"o":"m 147 830 q 265 958 170 927 q 475 1004 361 988 l 475 984 q 373 928 392 966 q 354 840 354 890 l 354 592 l 590 742 q 648 677 625 717 q 681 592 671 637 q 687 557 685 574 q 689 523 689 540 l 689 228 q 661 165 689 187 q 597 123 634 142 q 578 114 587 119 q 559 103 569 109 q 486 55 520 84 q 437 -22 451 26 q 389 17 412 1 q 350 41 366 34 q 339 -28 347 10 q 322 -107 331 -66 q 312 -148 318 -128 q 302 -187 306 -168 q 280 -265 291 -230 q 262 -317 269 -300 l 240 -317 q 185 -74 208 -186 q 163 119 163 37 q 141 136 156 128 q 108 145 126 144 l 102 145 q 67 133 83 145 q 51 90 52 121 q 51 77 51 84 q 53 63 52 70 l 33 65 q 30 92 31 78 q 28 117 28 105 q 65 242 28 199 q 147 292 99 284 l 147 733 q 139 774 147 748 q 119 830 131 801 q 93 881 108 856 q 63 923 78 906 l 59 927 l 70 951 q 73 947 72 948 l 76 944 q 115 894 98 920 q 147 828 131 867 l 147 830 m 372 237 l 397 223 q 443 190 420 208 q 481 151 465 173 l 481 513 q 466 570 481 549 q 427 592 451 591 q 390 580 411 592 q 354 549 372 570 l 354 246 q 372 237 363 242 "},"]":{"x_min":21.875,"x_max":393,"ha":460,"o":"m 120 941 l 33 941 l 33 974 l 393 974 l 393 -306 l 21 -306 l 21 -274 l 130 -274 q 189 -254 171 -274 q 208 -186 208 -235 l 208 853 q 184 928 208 917 q 120 940 160 940 l 120 941 "},"8":{"x_min":31.609375,"x_max":867,"ha":896,"o":"m 806 482 q 866 346 859 416 q 867 332 867 339 l 867 321 q 856 244 867 282 q 829 173 846 207 q 678 34 782 76 q 456 -8 574 -8 l 447 -8 q 172 52 298 -6 q 33 207 46 111 q 32 212 33 209 q 31 219 31 215 l 31 230 q 77 339 31 294 q 228 414 123 384 q 87 525 131 455 q 43 676 43 594 q 170 898 52 831 q 426 968 287 965 l 438 968 q 587 951 515 968 q 710 906 659 934 q 793 838 765 877 q 822 756 822 798 q 776 659 822 705 q 636 588 730 612 q 806 482 754 547 m 262 393 q 193 320 219 366 q 168 220 168 273 l 168 215 q 219 92 169 150 q 383 20 269 34 q 417 16 401 18 q 449 15 434 15 q 622 62 558 15 q 697 165 685 109 q 697 174 697 169 q 698 183 698 179 q 674 247 698 218 q 600 294 650 277 l 262 393 m 589 601 q 657 665 635 626 q 680 745 680 704 l 680 751 q 627 869 678 813 q 480 938 577 925 q 453 941 466 941 l 430 941 q 283 900 338 941 q 219 811 228 859 q 218 801 219 805 q 218 793 218 797 q 233 739 218 765 q 284 698 249 713 l 589 601 "},"":{"x_min":21.984375,"x_max":726.40625,"ha":726,"o":"m 21 547 l 21 568 q 84 605 66 573 q 103 690 103 637 q 102 720 103 704 q 98 752 101 736 q 97 777 97 765 l 97 800 q 131 949 95 909 q 209 989 166 989 q 263 977 237 990 q 305 950 290 965 q 346 914 330 926 q 371 901 362 901 q 389 923 385 900 q 392 994 392 947 l 415 996 q 418 959 417 976 q 419 927 419 943 q 384 784 419 822 q 310 744 350 745 l 301 744 q 258 752 278 744 q 220 769 237 759 q 206 778 212 773 q 196 786 201 783 q 168 809 181 801 q 144 816 155 816 q 128 811 134 816 q 123 794 123 805 q 127 771 123 784 q 141 741 131 758 q 244 669 171 690 q 338 547 317 648 q 326 371 338 490 q 298 122 314 252 q 280 1 289 60 q 262 -111 271 -58 q 239 -236 251 -182 q 217 -317 227 -290 l 196 -317 q 177 -206 188 -275 q 153 -55 166 -137 q 142 28 148 -14 q 130 113 135 70 q 106 332 116 226 q 97 506 97 438 l 97 527 q 98 545 97 537 l 21 547 m 279 -251 q 393 -232 352 -251 q 443 -98 434 -214 l 443 513 q 436 565 443 548 q 415 584 429 583 q 398 580 408 584 q 375 566 388 576 l 366 590 q 410 619 387 601 q 459 656 434 637 q 482 677 470 666 q 505 698 494 687 q 528 720 517 709 q 551 741 540 730 q 563 725 556 733 q 577 706 569 716 q 614 672 594 690 q 654 641 634 655 q 692 617 673 627 q 726 600 711 606 l 726 579 q 714 581 720 580 q 701 581 708 581 q 664 564 679 581 q 650 501 650 547 l 650 33 q 663 -63 655 -21 q 690 -147 672 -105 q 706 -177 697 -161 q 726 -208 715 -193 l 705 -218 q 684 -187 693 -201 q 668 -158 675 -172 q 663 -149 665 -154 q 658 -139 661 -144 q 648 -119 654 -129 l 638 -98 q 558 -219 622 -180 q 419 -269 494 -258 q 375 -275 397 -273 q 333 -276 354 -276 q 306 -275 319 -276 q 280 -273 292 -275 l 279 -251 m 530 765 q 502 790 515 776 q 479 817 489 803 q 455 860 464 839 q 446 903 446 882 q 473 965 446 939 q 551 995 500 990 q 618 965 587 995 q 649 896 649 936 q 645 870 649 883 q 633 844 642 857 q 596 803 621 824 q 530 764 571 782 l 530 765 "},"R":{"x_min":9.609375,"x_max":1127.015625,"ha":1149,"o":"m 65 359 l 65 383 q 160 392 122 382 q 199 426 198 402 q 196 441 199 433 q 186 458 192 448 q 152 493 174 473 q 106 534 130 512 l 74 565 q 48 598 59 582 q 32 621 38 609 q 22 644 26 633 q 13 684 16 665 q 9 722 9 704 q 101 908 8 836 q 312 981 195 981 l 330 981 q 349 979 340 981 q 488 930 420 972 q 601 808 555 888 q 667 942 611 901 q 790 989 723 983 l 807 989 q 881 978 846 989 q 940 950 917 968 q 998 892 979 927 q 1024 819 1017 857 q 1028 781 1026 800 q 1029 745 1029 762 l 1029 707 q 1028 690 1028 697 l 1028 676 q 1044 628 1028 648 q 1088 608 1061 608 q 1096 609 1092 608 q 1104 611 1100 609 l 1104 590 q 1067 578 1088 583 q 1024 573 1046 573 q 1004 575 1014 573 l 985 577 l 940 568 q 992 512 976 566 q 1010 393 1007 458 q 1012 371 1012 382 l 1012 348 q 1010 294 1012 319 q 1006 250 1009 269 q 1003 223 1004 236 q 1002 197 1002 209 q 1009 149 1002 169 q 1036 127 1017 129 q 1065 136 1047 127 q 1104 162 1082 144 l 1127 141 l 875 -22 q 755 65 783 12 q 728 173 728 118 q 728 193 728 183 q 729 212 729 203 q 731 230 730 221 q 734 250 732 240 q 736 284 734 265 q 741 325 738 304 q 743 344 742 334 q 745 362 743 353 q 747 387 746 375 q 748 411 748 400 q 734 484 748 454 q 676 516 720 515 q 662 516 669 516 q 646 512 654 515 l 646 491 q 645 462 646 476 q 643 432 644 447 q 523 119 626 261 q 273 -22 420 -22 q 122 17 174 -22 q 53 129 70 57 q 49 157 51 144 q 47 182 47 171 q 83 282 47 247 q 164 323 120 318 q 173 325 168 325 l 181 325 q 250 303 220 325 q 284 239 281 282 q 286 221 285 229 q 287 204 287 212 q 267 136 287 152 q 225 116 248 119 q 215 114 220 115 q 205 114 210 114 q 175 108 188 112 q 163 86 163 104 q 193 25 163 50 q 262 1 224 1 l 268 1 q 321 21 296 4 q 361 75 347 37 q 388 200 380 127 q 396 354 396 273 q 395 405 396 379 q 393 457 394 430 q 370 670 387 566 q 327 840 352 773 q 289 891 315 872 q 236 916 263 909 q 220 920 227 919 q 204 921 212 921 q 176 917 188 921 q 152 907 163 914 q 138 893 144 900 q 129 879 131 886 q 122 865 124 872 q 120 851 120 858 l 120 843 q 148 787 124 815 q 199 736 172 759 q 234 709 217 722 q 262 687 251 697 q 300 636 287 669 q 313 564 313 602 q 313 549 313 557 q 311 533 312 541 q 251 414 302 468 q 95 358 199 359 l 80 358 q 65 359 73 358 m 646 546 l 940 590 q 834 652 872 617 q 778 721 796 687 q 759 783 763 753 q 755 840 755 813 l 755 888 q 741 911 753 901 q 711 922 728 922 q 704 921 707 922 q 696 920 700 920 q 657 883 675 913 q 635 785 639 852 l 646 546 "},"ť":{"x_min":33.5,"x_max":669.5,"ha":617,"o":"m 121 547 l 33 547 l 33 567 q 150 639 94 577 q 243 773 207 701 q 279 857 265 816 q 296 927 293 897 l 328 929 l 328 646 l 471 646 l 471 547 l 328 547 l 328 218 q 346 172 333 188 q 382 155 359 155 q 421 165 398 155 q 471 195 443 175 l 480 175 q 404 111 434 137 q 347 61 373 84 q 344 58 346 59 l 343 57 q 300 19 322 39 q 251 -22 279 0 q 204 37 233 8 q 143 86 175 66 q 96 110 119 101 q 54 119 72 119 l 54 141 q 108 157 96 140 q 121 206 121 173 l 121 547 m 395 747 l 395 769 q 475 837 450 792 q 519 939 501 883 q 531 970 525 954 q 543 1003 537 986 q 589 1093 561 1048 q 669 1174 618 1137 l 669 1153 q 599 1061 626 1114 q 569 953 572 1008 l 569 942 q 593 848 569 893 q 669 768 616 803 l 669 748 q 596 697 627 730 q 548 615 565 664 l 526 617 q 488 685 511 658 q 443 726 466 711 q 418 739 430 735 q 395 747 406 744 "},"Ľ":{"x_min":10.546875,"x_max":798.109375,"ha":820,"o":"m 32 87 l 10 87 l 10 96 q 44 212 10 169 q 118 285 78 256 q 164 316 142 302 q 202 342 185 330 q 220 362 213 352 q 227 384 227 373 q 220 408 227 395 q 196 435 213 420 q 183 447 189 441 q 170 459 177 453 q 94 547 130 498 q 42 649 59 597 q 35 679 38 665 q 32 709 32 694 q 150 915 36 845 q 399 986 264 986 q 594 945 502 986 q 732 819 687 904 q 755 770 748 794 q 762 723 762 747 q 734 625 762 672 q 676 535 707 579 q 648 496 662 515 q 623 458 634 478 q 613 437 616 447 q 609 421 610 428 q 620 397 609 406 q 649 388 631 388 q 680 393 663 388 q 714 410 698 399 q 746 439 731 422 q 775 479 762 456 l 798 471 q 782 450 791 460 q 767 432 774 440 q 691 373 728 390 q 619 356 653 356 q 514 394 559 356 q 452 479 469 433 q 450 485 451 482 q 448 490 449 487 q 442 515 444 503 q 441 539 441 528 q 463 621 441 585 q 509 689 484 657 q 522 705 516 697 q 535 721 528 712 q 566 768 554 744 q 579 819 579 792 q 523 924 579 890 q 398 958 467 958 l 394 958 q 268 925 326 958 q 209 831 210 892 q 227 765 209 801 q 284 687 245 729 q 299 669 291 679 q 316 651 308 660 q 363 587 341 621 q 384 514 384 553 q 344 419 384 469 q 197 314 303 369 q 313 292 259 314 q 408 241 366 269 q 442 217 426 228 q 470 195 458 205 q 486 183 477 189 q 506 169 495 176 q 552 145 527 156 q 603 130 577 134 q 614 129 609 130 q 623 128 619 128 q 695 156 662 128 q 742 260 728 184 l 765 262 q 667 47 745 113 q 500 -24 589 -18 l 485 -24 q 387 -7 434 -24 q 305 41 341 9 q 167 151 220 119 q 84 183 114 183 q 43 155 53 183 q 32 87 32 127 m 602 1193 q 575 1166 590 1182 q 543 1132 559 1150 l 540 1129 l 540 1127 q 489 1072 512 1097 q 461 1041 466 1047 q 431 1019 445 1026 q 406 1012 418 1012 q 378 1020 391 1012 q 351 1041 365 1027 l 209 1193 q 199 1208 202 1201 q 194 1222 195 1215 q 202 1234 194 1232 q 230 1227 211 1237 l 405 1150 l 569 1215 q 593 1229 583 1225 q 609 1233 604 1233 q 620 1222 622 1233 q 602 1194 618 1211 l 602 1193 "},"Ż":{"x_min":-90.375,"x_max":831,"ha":875,"o":"m 54 689 l 33 689 l 33 705 q 140 922 33 854 q 379 992 247 990 l 404 992 q 653 914 539 985 q 777 721 768 844 l 777 714 q 778 708 777 711 l 778 694 q 707 508 778 582 q 481 425 636 433 q 734 305 637 393 q 831 86 831 218 q 705 -215 831 -113 q 430 -328 580 -316 q 410 -328 420 -328 q 390 -329 399 -329 q 151 -265 258 -330 q 33 -76 44 -200 q 14 -9 29 -36 q -15 22 0 16 q -49 0 -33 29 q -65 -105 -65 -27 l -65 -123 q -63 -132 -63 -127 l -63 -141 l -87 -141 q -89 -114 -88 -127 q -90 -89 -90 -101 q -47 51 -90 5 q 47 98 -4 97 l 56 98 q 65 97 61 98 q 214 27 180 84 q 256 -97 248 -29 q 258 -114 258 -105 q 261 -132 259 -123 q 288 -246 267 -197 q 393 -296 308 -296 l 404 -296 q 504 -227 474 -296 q 543 -76 534 -158 q 548 11 548 -30 q 548 86 549 54 l 548 125 q 549 132 548 129 l 549 144 q 480 339 547 272 q 328 406 412 406 l 315 406 q 185 350 247 401 q 99 196 124 299 l 76 197 q 121 309 93 265 q 179 378 149 353 q 211 399 196 390 q 240 414 226 408 q 152 471 185 435 q 108 547 119 507 q 104 566 105 557 q 103 585 103 575 q 132 664 103 630 q 217 699 161 699 l 229 699 q 295 666 272 694 q 320 604 318 637 l 320 600 q 303 545 320 571 q 251 512 286 519 q 230 499 238 508 q 221 479 222 490 l 221 473 q 236 451 224 462 q 274 436 249 440 l 299 433 q 321 432 311 432 q 464 491 422 432 q 514 622 505 550 q 516 647 515 635 q 517 672 517 660 q 516 697 517 685 q 514 721 515 710 q 444 891 507 838 q 304 944 382 944 l 293 944 q 282 943 287 944 q 125 872 197 936 q 54 707 54 809 l 54 689 m 331 1160 q 356 1226 331 1199 q 418 1254 382 1254 q 480 1226 454 1254 q 506 1160 506 1199 q 480 1096 506 1123 q 418 1069 454 1069 q 356 1096 382 1069 q 331 1160 331 1123 "},"o":{"x_min":33.84375,"x_max":615,"ha":666,"o":"m 88 635 q 121 630 103 632 q 157 629 139 629 q 275 642 210 629 q 407 696 340 655 q 439 717 423 705 q 470 742 455 728 q 521 703 499 722 q 559 666 542 685 q 607 562 600 615 q 612 439 613 508 l 612 391 q 613 366 612 379 q 614 343 614 354 q 614 319 614 330 q 615 297 615 308 q 587 175 615 229 q 448 97 559 121 q 420 87 436 94 q 388 69 405 79 q 343 29 365 53 q 305 -22 320 5 q 285 8 300 -8 q 248 41 271 25 q 193 82 223 62 q 130 115 162 101 q 81 133 106 126 q 33 140 56 140 l 33 164 q 72 184 57 162 q 88 239 88 207 l 88 635 m 415 514 q 390 579 415 555 q 338 612 366 603 q 309 620 323 618 q 285 622 296 622 l 285 229 l 415 141 l 415 514 "},"5":{"x_min":17.46875,"x_max":776,"ha":820,"o":"m 87 940 q 145 933 112 937 q 218 923 179 929 l 276 918 q 336 912 305 915 q 384 909 359 910 q 430 908 408 908 q 571 926 512 908 q 634 994 630 944 l 655 996 q 536 758 637 822 q 294 693 434 694 q 209 697 252 693 q 121 709 165 702 l 121 491 q 242 597 164 563 q 409 633 320 631 l 429 633 q 663 553 556 627 q 776 348 770 480 q 635 68 776 159 q 305 -22 495 -22 q 113 36 187 -22 q 23 165 39 95 q 18 186 20 175 q 17 206 17 196 q 33 274 16 242 q 87 327 50 306 q 108 338 98 334 q 130 345 118 342 q 152 349 141 347 q 173 350 163 350 q 270 318 230 350 q 310 238 310 285 q 304 203 310 221 q 284 167 298 185 q 256 137 273 152 q 217 109 239 122 l 207 104 q 189 95 199 102 q 164 71 174 85 q 174 42 155 57 q 223 18 193 28 q 287 9 252 9 q 304 9 295 9 q 321 11 313 10 q 440 81 387 22 q 494 276 494 140 q 493 305 494 290 q 491 337 492 320 q 435 534 478 474 q 335 594 392 594 q 304 590 320 594 q 271 580 288 587 q 191 520 231 560 q 120 424 152 480 l 87 425 q 93 541 91 480 q 96 666 96 602 q 95 747 96 706 q 93 829 94 788 l 90 884 q 87 938 88 912 l 87 940 "},"õ":{"x_min":33.84375,"x_max":615,"ha":666,"o":"m 88 634 q 121 630 103 631 q 157 629 139 629 q 275 642 210 629 q 407 695 340 655 q 439 716 423 705 q 470 741 455 727 q 521 703 499 722 q 559 666 542 684 q 607 561 600 615 q 612 438 613 508 l 612 391 q 613 366 612 379 q 614 343 614 354 q 614 319 614 330 q 615 297 615 308 q 587 175 615 229 q 448 97 559 120 q 420 86 436 94 q 388 69 405 79 q 343 29 365 52 q 305 -22 320 5 q 285 8 300 -8 q 248 41 271 25 q 193 82 223 62 q 130 115 162 101 q 81 133 106 126 q 33 140 56 140 l 33 164 q 72 184 57 162 q 88 238 88 207 l 88 634 m 113 817 q 165 942 127 903 q 247 988 204 980 q 261 989 254 989 q 275 990 268 990 q 325 983 301 990 q 365 969 348 977 q 377 962 370 966 q 388 955 383 957 q 443 923 416 938 q 497 909 470 909 q 537 922 518 909 q 573 969 556 935 l 595 970 q 545 836 586 877 q 456 791 504 796 q 445 789 451 789 l 436 789 q 385 797 409 789 q 343 816 361 804 q 268 857 304 842 q 204 873 231 873 q 161 860 179 874 q 136 816 143 846 l 113 817 m 415 513 q 390 578 415 555 q 338 612 366 602 q 309 619 323 617 q 285 622 296 622 l 285 229 l 415 141 l 415 513 "},",":{"x_min":76.390625,"x_max":361.140625,"ha":449,"o":"m 76 108 l 76 142 q 141 169 111 146 q 188 221 172 193 q 200 242 195 232 q 208 261 205 251 l 240 263 q 280 189 248 221 q 361 140 312 157 l 361 110 q 356 106 358 107 q 351 105 354 105 q 305 72 329 97 q 251 -33 281 47 q 238 -69 244 -52 q 225 -102 231 -87 q 176 -200 204 -159 q 94 -279 148 -241 q 90 -282 93 -280 q 87 -285 88 -283 l 87 -251 q 144 -196 123 -230 q 175 -125 165 -162 q 184 -81 181 -102 q 186 -42 186 -61 q 184 -21 186 -31 q 180 0 183 -11 q 149 60 173 30 q 76 108 125 90 "},"d":{"x_min":54.546875,"x_max":623,"ha":688,"o":"m 285 623 q 146 698 196 652 q 82 791 97 743 q 77 814 79 802 q 75 836 75 825 q 129 947 75 900 q 278 996 183 994 l 292 996 q 298 995 294 996 q 306 995 301 995 l 306 974 q 211 958 239 972 q 182 925 183 944 q 183 917 182 921 q 185 910 183 914 q 206 884 192 897 q 240 863 219 871 q 260 854 250 858 q 283 846 271 850 q 339 826 310 836 q 400 804 369 817 q 549 721 481 774 q 623 567 617 668 l 623 255 q 586 151 623 177 q 501 108 550 125 q 469 98 485 104 q 437 86 453 93 q 372 50 403 73 q 316 -11 341 27 q 198 84 268 44 q 54 140 128 125 l 54 164 q 89 179 80 162 q 99 216 97 195 l 99 590 q 135 579 114 583 q 178 575 155 575 q 244 585 214 575 q 285 622 275 595 l 285 623 m 350 200 q 383 173 369 187 q 400 155 392 164 q 415 140 408 147 l 415 502 q 391 570 415 544 q 340 609 368 597 q 323 617 332 614 q 306 622 314 621 l 306 218 q 350 200 330 212 "},"":{"x_min":33.5,"x_max":783.828125,"ha":764,"o":"m 506 312 q 469 319 481 319 q 435 308 449 319 q 411 287 422 298 q 365 284 383 267 q 362 321 347 301 q 412 342 376 341 q 485 381 457 348 q 514 451 514 413 q 488 532 514 491 q 414 578 462 573 q 328 480 341 578 l 328 217 q 346 172 333 188 q 382 155 359 155 q 421 165 398 155 q 471 195 443 174 l 480 174 q 404 110 434 137 q 347 60 373 84 l 343 56 q 300 19 322 38 q 251 -22 279 0 q 204 37 233 8 q 143 85 175 66 q 96 110 119 101 q 54 119 72 119 l 54 141 q 108 156 96 140 q 121 206 121 173 l 121 547 l 33 547 l 33 567 q 150 639 94 577 q 243 773 207 701 q 279 856 265 816 q 296 927 293 897 l 328 929 l 327 609 l 568 745 q 661 649 625 695 q 703 553 697 602 q 704 545 704 549 l 704 538 q 667 449 704 492 q 543 370 630 405 q 591 363 568 370 q 630 348 613 356 q 758 199 725 276 q 781 -5 791 123 q 693 -216 770 -134 q 459 -314 616 -298 q 236 -243 312 -328 q 205 -194 218 -225 l 223 -172 q 303 -259 254 -234 q 418 -269 353 -283 q 521 -191 483 -254 q 567 -66 558 -128 q 574 45 575 -4 q 558 195 574 95 q 506 312 543 295 "},"\"":{"x_min":205.578125,"x_max":630.609375,"ha":821,"o":"m 205 872 q 238 939 205 915 q 295 963 270 963 l 300 963 q 353 942 323 961 q 383 887 383 924 q 382 876 383 882 q 380 864 381 871 l 327 480 q 315 429 327 445 q 290 414 304 414 q 263 429 275 414 q 251 479 251 445 l 205 872 m 462 869 l 462 879 q 491 942 461 923 q 545 961 520 961 q 600 941 570 961 q 630 879 630 922 l 630 865 l 579 470 q 568 428 579 442 q 543 415 558 415 l 537 415 q 516 430 526 417 q 502 469 506 444 l 462 869 "},"":{"x_min":23.046875,"x_max":765.34375,"ha":744,"o":"m 339 579 l 568 743 q 592 717 579 730 q 617 690 604 704 q 674 640 643 664 q 743 611 706 616 l 743 590 q 679 573 703 589 q 656 501 656 558 l 656 207 q 657 197 656 203 q 667 159 658 176 q 698 141 676 143 q 722 146 709 141 q 754 162 736 151 l 765 153 l 558 -22 q 467 78 485 33 q 449 162 449 122 l 449 525 q 439 573 449 559 q 414 587 429 587 q 394 583 404 587 q 372 572 383 579 q 355 559 364 566 l 339 546 l 339 183 q 340 171 339 178 q 348 146 341 158 q 371 129 355 134 l 371 109 q 299 75 338 100 q 218 -22 259 50 q 182 30 208 5 q 128 75 157 55 q 87 96 107 87 q 54 108 68 105 l 54 130 q 109 143 87 129 q 131 207 131 157 l 131 503 q 130 513 131 507 q 130 526 130 519 q 116 562 125 546 q 91 578 107 578 q 66 571 80 579 q 34 546 52 564 l 23 568 l 208 743 q 305 672 273 710 q 339 579 337 634 m 101 954 l 660 954 l 660 872 l 101 872 l 101 954 "},"˙":{"x_min":64,"x_max":239,"ha":325,"o":"m 64 883 q 89 949 64 922 q 151 977 115 977 q 213 949 187 977 q 239 883 239 922 q 213 819 239 846 q 151 792 187 792 q 89 819 115 792 q 64 883 64 846 "},"ê":{"x_min":50,"x_max":579.046875,"ha":590,"o":"m 415 743 l 567 502 l 262 305 q 329 193 287 227 q 416 154 370 158 q 423 152 420 152 l 431 152 q 506 170 470 152 q 567 216 542 187 l 579 197 q 534 158 556 176 q 488 122 512 140 q 399 54 442 87 q 316 -11 355 20 q 138 93 194 27 q 63 227 81 158 q 57 255 59 241 q 54 283 55 269 q 51 326 52 304 q 50 372 50 348 l 50 390 q 51 409 50 400 q 78 542 54 479 q 163 633 102 605 l 415 743 m 98 830 q 126 858 111 841 q 158 892 141 874 l 158 894 l 161 895 q 211 951 188 926 q 240 983 234 977 q 269 1004 255 998 q 294 1011 283 1011 q 322 1003 309 1011 q 350 983 336 995 l 491 830 q 496 823 494 826 q 501 817 498 820 q 504 809 502 813 q 506 802 506 805 q 498 790 506 792 q 470 797 490 787 l 295 874 l 130 809 q 106 795 116 799 q 90 791 97 791 q 79 802 77 791 q 98 829 81 813 l 98 830 m 251 645 l 251 338 l 392 426 l 251 645 "},"„":{"x_min":109.734375,"x_max":711.171875,"ha":821,"o":"m 109 119 l 109 153 q 174 180 144 157 q 222 232 204 204 q 233 253 229 243 q 240 272 237 262 l 273 274 q 313 199 281 230 q 393 151 344 168 l 393 121 q 343 89 369 111 q 284 -22 316 66 q 270 -61 277 -43 q 256 -95 263 -79 q 205 -194 233 -153 q 120 -274 177 -236 l 120 -240 q 177 -186 156 -219 q 206 -116 197 -153 q 215 -73 213 -94 q 218 -33 218 -51 q 217 -13 218 -23 q 213 5 216 -4 q 183 69 206 38 q 109 119 159 100 m 426 119 l 426 152 q 491 180 461 156 q 538 231 522 203 q 550 252 545 242 q 558 272 555 262 l 590 273 q 630 199 598 230 q 711 151 662 167 l 711 120 q 706 117 708 117 q 701 116 704 116 q 655 83 679 108 q 601 -22 632 58 q 588 -59 594 -41 q 575 -92 581 -76 q 524 -192 552 -150 q 437 -274 495 -235 l 437 -240 q 494 -186 473 -219 q 525 -117 515 -153 q 533 -73 530 -94 q 536 -33 536 -51 q 535 -14 536 -23 q 531 5 534 -4 q 500 69 525 38 q 426 119 476 99 "},"ľ":{"x_min":11.484375,"x_max":608.375,"ha":546,"o":"m 99 830 q 217 958 122 928 q 426 1004 312 989 l 426 984 q 325 928 344 966 q 306 840 306 890 l 306 218 q 314 166 306 187 q 354 144 322 146 q 385 148 367 144 q 426 162 403 152 l 426 141 q 369 109 401 130 q 301 61 336 87 q 261 27 281 44 q 224 -5 242 11 l 218 -11 q 201 5 210 -2 q 182 23 192 14 q 110 86 147 57 q 33 129 72 116 l 33 152 q 47 148 40 150 q 60 147 54 147 q 90 162 83 147 q 99 196 97 177 l 99 733 q 91 775 99 748 q 71 830 83 801 q 45 882 60 857 q 15 923 30 907 l 11 928 l 22 951 q 25 947 23 948 l 28 944 q 67 894 50 921 q 99 829 83 868 l 99 830 m 334 629 l 334 651 q 414 719 388 674 q 458 821 440 765 q 470 852 463 836 q 481 885 476 868 q 528 975 500 930 q 608 1056 556 1019 l 608 1035 q 538 943 565 996 q 508 835 511 890 l 508 824 q 531 730 508 775 q 608 650 555 685 l 608 630 q 535 579 566 612 q 487 497 504 546 l 465 499 q 427 567 450 540 q 381 608 405 593 q 357 621 369 617 q 334 629 345 626 "},"Â":{"x_min":12,"x_max":1049.84375,"ha":1050,"o":"m 711 830 q 787 914 737 883 q 891 962 837 945 q 977 979 935 975 q 1049 983 1020 983 l 1049 962 q 956 936 980 961 q 930 883 932 912 q 929 872 929 877 l 929 295 q 940 208 929 243 q 976 172 952 173 q 999 180 987 172 q 1027 207 1012 188 l 1049 197 l 820 0 q 713 88 738 38 q 689 227 689 138 l 437 0 q 415 27 430 9 q 378 65 401 45 q 311 116 349 93 q 233 143 273 138 l 223 143 q 156 123 188 144 q 98 52 124 102 l 76 65 q 139 164 109 129 q 202 225 170 200 q 214 235 208 230 q 227 245 221 240 q 276 284 252 263 q 327 337 301 305 q 355 418 346 361 q 365 544 365 475 l 365 569 q 364 595 365 582 q 352 725 361 662 q 327 829 343 789 q 276 904 308 880 q 209 930 244 927 l 201 930 q 123 903 158 930 q 88 840 88 876 q 90 825 88 833 q 95 809 93 816 q 127 774 105 791 q 186 741 148 757 q 266 666 234 722 q 300 547 298 611 l 300 540 q 254 419 298 476 q 109 337 210 362 l 109 361 q 172 385 146 370 q 209 416 197 400 q 219 432 216 423 q 222 447 222 440 q 213 467 222 458 q 185 479 204 476 q 60 568 108 504 q 12 711 12 633 q 14 748 12 729 q 23 784 17 766 q 59 858 35 822 q 120 927 82 894 q 210 978 159 961 q 315 996 261 996 l 330 996 q 524 912 436 990 q 613 665 613 834 q 562 458 613 518 q 429 355 512 398 q 380 331 405 344 q 327 304 355 318 q 370 293 348 300 q 416 277 392 286 q 516 231 469 259 q 579 162 562 202 l 689 262 l 689 711 q 685 775 689 737 q 673 852 682 812 q 653 916 665 884 q 623 972 641 947 l 645 984 q 690 910 677 950 q 711 829 702 870 l 711 830 m 404 1083 q 431 1110 416 1093 q 463 1143 447 1126 q 466 1146 465 1144 q 468 1149 466 1147 q 518 1204 495 1179 q 547 1235 541 1229 q 575 1256 562 1250 q 601 1263 588 1263 q 629 1255 616 1263 q 655 1235 643 1247 l 798 1083 q 809 1068 805 1075 q 813 1054 812 1061 q 804 1042 813 1044 q 776 1049 795 1039 l 601 1126 l 437 1061 q 413 1047 423 1051 q 397 1043 404 1043 q 388 1045 391 1043 q 386 1051 386 1047 q 390 1065 386 1057 q 404 1082 394 1072 l 404 1083 "},"Ţ":{"x_min":-4,"x_max":973.984375,"ha":974,"o":"m 285 546 q 228 530 254 535 q 178 525 201 525 q 41 582 87 525 q -4 713 -4 638 q -2 739 -4 726 q 0 766 -1 753 q 43 867 11 817 q 130 949 76 916 q 233 996 183 981 q 330 1011 283 1011 q 508 969 425 1011 q 662 878 592 927 q 790 786 733 828 q 887 745 847 745 q 910 749 900 745 q 929 764 921 754 q 933 770 932 767 q 935 779 933 774 q 928 806 935 790 q 911 839 922 822 q 858 890 892 867 q 776 917 825 913 l 776 940 q 919 881 873 932 q 965 768 965 829 q 916 651 967 704 q 769 599 865 599 l 757 599 q 749 599 753 599 q 743 600 746 600 q 687 610 721 600 q 615 634 653 620 l 593 643 q 571 652 582 647 q 512 679 539 666 q 471 698 485 691 q 468 686 469 693 q 467 675 467 680 q 489 627 467 647 q 543 588 511 606 q 557 579 550 584 q 573 570 565 575 q 647 517 614 547 q 680 440 680 487 q 680 427 680 434 q 678 414 679 420 q 637 341 665 373 q 576 284 608 308 q 550 266 562 275 q 525 250 537 257 q 555 230 532 246 q 612 197 579 214 q 676 168 642 182 q 746 147 711 154 q 770 143 758 144 q 794 142 782 142 q 885 167 843 140 q 951 261 928 193 l 973 262 q 833 36 921 97 q 647 -25 744 -25 q 627 -24 637 -25 q 607 -22 617 -23 q 465 12 535 -15 q 340 70 396 39 q 316 84 327 77 q 296 97 305 90 q 277 110 287 102 q 254 125 266 118 q 221 144 239 134 q 186 161 204 154 q 154 172 169 168 q 123 176 138 176 q 69 153 93 177 q 43 64 45 129 l 22 65 q 97 259 37 182 q 255 338 156 337 l 265 338 q 269 337 266 337 l 273 337 q 308 331 290 336 q 344 320 326 326 l 366 312 q 387 304 377 308 q 451 281 422 291 q 500 270 480 270 q 518 276 511 270 q 525 295 525 281 l 525 304 q 490 340 520 320 q 425 383 461 359 q 364 427 393 404 q 327 479 336 451 q 325 486 326 483 q 325 494 325 490 l 325 499 q 324 504 325 502 q 324 509 324 506 q 355 607 324 562 q 426 684 387 652 q 443 697 435 691 q 460 709 451 703 q 454 712 457 710 q 449 716 451 714 q 369 756 414 737 q 278 788 325 776 q 230 797 254 794 q 183 801 205 801 q 88 773 128 801 q 49 677 49 746 q 50 650 49 664 q 54 621 51 637 q 101 571 61 592 q 193 548 142 549 q 235 552 214 548 q 274 566 255 556 l 285 546 m 368 -161 l 368 -134 q 422 -113 397 -131 q 461 -72 447 -94 q 471 -54 468 -62 q 478 -40 475 -47 l 504 -38 q 538 -97 511 -72 q 605 -136 565 -122 l 605 -159 q 601 -162 603 -162 l 597 -162 q 559 -189 579 -169 q 514 -273 539 -209 q 503 -302 508 -288 q 491 -327 497 -316 q 451 -405 475 -373 q 383 -468 428 -437 q 379 -469 382 -469 l 378 -472 l 378 -445 q 424 -402 407 -429 q 450 -345 441 -374 q 457 -311 455 -327 q 460 -280 460 -295 q 458 -263 460 -272 q 454 -247 457 -255 q 428 -198 448 -222 q 368 -161 408 -174 "},"Í":{"x_min":12,"x_max":897.296875,"ha":918,"o":"m 840 554 q 799 596 820 580 q 772 612 785 607 q 745 617 758 617 q 710 603 724 617 q 697 562 697 590 q 710 503 697 537 q 753 425 723 469 q 819 305 799 361 q 840 200 840 248 q 735 8 840 75 q 502 -58 630 -58 q 301 -7 395 -58 q 174 151 206 43 q 157 204 166 181 q 138 243 148 227 q 115 275 127 265 q 92 284 103 284 q 55 247 70 286 q 40 144 40 208 q 40 115 40 130 q 43 86 41 101 l 21 87 q 14 130 16 109 q 12 169 12 151 q 68 322 12 272 q 194 373 124 373 l 199 373 q 317 332 262 372 q 392 216 371 293 q 394 209 394 212 q 397 201 395 205 q 460 32 426 90 q 551 -25 494 -25 l 565 -25 q 579 -22 572 -25 q 627 0 612 -16 q 643 44 643 16 q 613 154 643 84 q 536 326 584 223 q 510 394 518 362 q 503 455 503 426 q 563 598 503 546 q 701 653 624 651 l 708 653 q 817 614 766 650 q 895 503 869 578 l 874 491 q 840 554 859 529 m 371 646 l 382 623 q 308 600 344 607 q 241 593 273 593 q 106 637 156 591 q 57 751 57 682 q 66 816 57 782 q 98 884 76 850 q 198 985 141 957 q 316 1014 254 1014 q 362 1011 339 1014 q 409 1002 386 1008 q 502 975 455 993 q 590 937 548 956 q 636 915 614 926 q 677 895 658 905 q 726 877 705 883 q 762 872 747 872 q 800 883 789 872 q 812 910 812 895 q 812 919 812 915 q 809 930 811 924 q 789 960 804 945 q 754 983 775 974 l 765 1016 q 842 946 818 985 q 868 865 866 906 q 814 746 868 799 q 672 693 761 693 q 577 708 629 693 q 471 763 526 724 q 349 830 404 810 q 251 851 294 849 q 148 817 186 851 q 100 745 111 784 q 97 729 98 737 q 96 714 96 722 q 104 673 96 691 q 130 644 112 654 q 141 637 134 642 q 158 629 148 633 q 191 618 172 624 q 237 613 211 613 q 296 619 263 613 q 371 644 330 626 l 371 646 m 360 1027 q 376 1055 367 1040 q 395 1087 385 1070 q 410 1109 402 1098 q 426 1131 417 1120 q 461 1178 444 1156 q 491 1212 478 1199 q 524 1236 507 1229 q 556 1243 541 1243 q 610 1222 588 1244 q 633 1172 633 1199 q 625 1141 633 1156 q 601 1113 617 1126 q 580 1099 591 1106 q 556 1086 569 1092 q 483 1054 527 1070 q 371 1015 439 1038 l 360 1027 m 897 502 l 895 502 l 897 501 l 897 502 "},"´":{"x_min":98.625,"x_max":370.859375,"ha":624,"o":"m 98 776 q 114 804 105 789 q 133 836 123 819 q 147 858 140 847 q 163 880 155 869 q 199 927 181 905 q 229 961 216 948 q 262 985 245 978 q 294 992 279 992 q 348 971 326 993 q 370 921 370 948 q 363 890 370 905 q 338 862 355 875 q 315 846 327 854 q 287 830 302 839 q 215 801 258 816 q 109 764 173 786 l 98 776 "},"":{"x_min":22.046875,"x_max":1465.53125,"ha":1427,"o":"m 1028 568 l 1247 733 q 1298 698 1273 718 q 1341 658 1323 679 q 1366 623 1357 640 q 1375 593 1375 607 q 1371 578 1375 584 q 1357 566 1366 571 l 1247 491 q 1275 465 1262 478 q 1297 440 1287 453 q 1332 387 1319 414 q 1357 326 1346 359 q 1363 301 1361 316 q 1368 269 1365 286 q 1369 257 1368 264 q 1371 246 1369 251 q 1385 178 1375 208 q 1423 148 1396 148 q 1442 152 1432 148 q 1465 162 1453 155 l 1465 141 q 1377 74 1412 105 q 1311 16 1341 43 q 1285 -3 1298 5 q 1258 -22 1272 -12 q 1187 60 1203 5 q 1165 175 1172 115 q 1144 286 1158 233 q 1083 371 1130 339 l 1028 339 l 1028 191 q 1034 150 1028 169 q 1061 130 1040 130 q 1076 132 1068 130 q 1094 140 1084 134 l 1094 121 q 1083 113 1089 116 q 1072 105 1078 109 q 985 45 1022 76 q 919 -22 948 14 q 839 62 886 25 q 744 108 792 100 l 744 130 q 802 141 784 129 q 821 196 821 154 l 821 689 q 815 733 821 707 q 800 787 809 759 q 784 831 793 809 q 766 871 774 853 q 759 880 763 875 q 727 783 754 812 q 654 744 694 746 l 644 744 q 601 752 622 744 q 563 769 580 760 q 549 778 555 773 q 540 786 544 783 q 511 809 524 801 q 487 817 498 817 q 472 811 477 817 q 466 794 466 805 q 470 771 466 785 q 484 741 474 758 q 588 669 515 690 q 681 547 660 648 q 670 371 681 490 q 641 122 658 252 q 624 1 633 61 q 605 -111 615 -58 q 582 -236 594 -182 q 560 -317 570 -290 l 540 -317 q 520 -206 531 -275 q 497 -55 509 -137 q 485 28 491 -14 q 473 113 479 70 q 449 332 459 226 q 440 507 440 439 l 440 527 q 441 546 440 537 l 365 547 l 365 568 q 427 605 409 573 q 445 690 445 637 q 445 720 445 704 q 441 753 444 736 q 440 758 441 755 q 377 719 408 723 q 308 731 347 716 q 228 776 270 746 q 170 811 185 805 q 144 817 155 817 q 129 811 134 817 q 123 794 123 805 q 127 771 123 785 q 141 741 131 758 q 244 669 172 690 q 338 547 317 648 q 326 371 338 490 q 298 122 315 252 q 281 1 290 61 q 262 -111 272 -58 q 239 -236 251 -182 q 217 -317 227 -290 l 197 -317 q 177 -206 188 -275 q 154 -55 166 -137 q 142 28 148 -14 q 130 113 135 70 q 106 332 116 226 q 97 506 97 438 l 97 527 q 98 545 97 537 l 22 547 l 22 568 q 84 605 66 573 q 102 690 102 637 q 101 720 102 704 q 98 752 101 736 q 97 777 97 765 l 97 800 q 131 949 95 909 q 209 989 166 989 q 333 931 263 984 q 430 879 404 877 q 448 895 442 877 q 473 948 456 930 q 552 989 509 989 q 606 977 580 990 q 648 950 633 965 q 689 914 673 926 q 715 901 705 901 q 732 923 729 900 q 736 994 736 947 l 758 996 q 761 959 761 976 q 767 927 762 943 q 779 901 772 912 q 805 855 794 879 q 814 831 809 843 q 821 808 818 819 q 882 924 821 883 q 1018 982 944 965 q 1085 992 1053 989 q 1144 996 1118 996 l 1164 996 q 1182 994 1173 996 l 1182 973 q 1068 936 1108 972 q 1028 851 1028 900 l 1028 568 m 1028 361 l 1202 480 q 1196 487 1200 483 q 1188 495 1193 491 q 1179 509 1184 502 q 1170 523 1175 516 q 1137 564 1155 545 q 1095 583 1119 583 q 1065 575 1082 583 q 1027 545 1048 566 l 1028 361 "},"Ú":{"x_min":-42.6875,"x_max":939.796875,"ha":918,"o":"m 99 304 l 99 698 q 85 754 97 729 q 47 780 72 780 q 17 772 33 781 q -20 741 0 763 l -42 765 l 175 984 q 202 965 187 974 q 233 947 218 956 q 306 883 273 920 q 340 781 338 845 l 340 773 q 339 767 339 770 l 339 240 l 448 186 l 547 273 l 547 688 q 521 751 547 727 q 448 774 496 774 l 448 798 q 450 797 449 797 l 453 797 l 455 795 l 457 795 q 499 806 477 795 q 544 833 521 816 q 600 885 573 855 q 651 948 628 916 q 658 960 655 953 q 666 972 662 966 q 679 950 671 960 q 695 928 687 940 q 781 838 731 879 q 885 797 831 797 l 885 776 q 803 747 820 774 q 787 687 787 720 l 787 284 q 804 216 787 245 q 852 186 821 186 q 887 195 867 186 q 928 227 906 205 l 939 208 l 699 -11 q 645 29 669 11 q 603 63 621 47 q 560 126 574 91 q 547 227 547 161 l 284 -11 q 243 25 270 1 q 183 73 216 48 q 141 103 162 88 q 99 130 121 118 q 48 157 73 145 q 0 173 22 168 l 0 197 q 86 221 73 195 q 99 304 99 247 m 361 1049 q 377 1077 368 1062 q 395 1109 386 1092 q 410 1131 402 1120 q 426 1153 418 1142 q 461 1200 444 1178 q 491 1234 479 1221 q 524 1258 508 1251 q 557 1265 541 1265 q 611 1244 588 1266 q 633 1194 633 1221 q 625 1163 633 1178 q 601 1135 618 1148 q 577 1119 590 1127 q 550 1103 565 1112 q 478 1074 520 1089 q 372 1037 436 1059 l 361 1049 "},"Ý":{"x_min":10,"x_max":1006,"ha":1072,"o":"m 567 853 q 616 947 575 914 q 710 981 656 981 q 747 977 728 981 q 784 965 766 974 q 936 814 867 930 q 1006 480 1006 697 l 1006 448 q 1005 414 1006 432 l 1005 390 q 890 -102 1000 120 q 478 -328 780 -326 l 459 -328 q 247 -284 317 -328 q 165 -188 177 -240 q 163 -177 163 -183 q 162 -165 162 -170 q 199 -88 162 -122 q 305 -54 237 -54 q 420 -85 385 -54 q 455 -156 455 -117 l 455 -163 q 416 -239 451 -205 q 327 -273 381 -273 l 316 -273 q 367 -296 333 -286 q 445 -306 402 -306 q 479 -304 462 -306 q 513 -299 496 -303 q 646 -227 585 -284 q 721 -53 707 -171 q 732 187 728 72 q 737 407 737 301 q 736 535 737 472 l 733 660 q 728 750 730 705 q 722 840 726 794 q 699 900 715 878 q 666 928 684 923 l 660 928 q 620 892 638 928 q 601 775 601 857 q 604 737 602 755 l 606 701 q 611 636 609 666 q 613 576 613 605 q 594 464 615 515 q 509 366 573 414 q 444 325 481 346 q 360 283 408 304 q 483 225 434 258 q 557 151 532 193 l 645 229 l 655 208 l 403 -22 q 339 64 374 27 q 268 118 304 100 q 232 132 250 127 q 195 137 213 137 q 127 118 158 139 q 76 52 96 97 l 54 54 q 172 221 96 168 q 339 283 248 275 q 344 307 342 293 q 348 340 346 322 q 362 452 357 386 q 368 587 368 518 l 368 598 q 347 792 367 701 q 273 916 328 883 q 257 923 267 921 q 240 928 248 926 q 232 930 236 929 q 223 931 228 931 q 151 904 185 931 q 117 840 118 878 q 124 805 117 824 q 150 768 132 787 q 171 751 160 760 q 197 732 183 742 q 265 651 239 705 q 292 536 292 597 q 291 522 292 529 q 290 508 290 515 q 239 385 283 444 q 98 294 194 326 l 87 317 q 181 364 154 343 q 210 401 208 385 q 207 414 210 408 q 197 428 204 421 q 161 457 185 442 q 112 492 137 472 q 60 537 85 511 q 22 600 35 564 q 13 640 16 619 q 10 679 10 660 q 107 895 10 803 q 327 987 205 987 q 343 986 335 987 q 359 986 351 986 q 469 946 415 978 q 567 851 523 914 l 567 853 m 400 1054 q 416 1082 406 1067 q 434 1114 425 1097 q 449 1136 441 1125 q 465 1158 456 1147 q 500 1205 483 1183 q 530 1239 518 1226 q 563 1263 547 1256 q 595 1270 580 1270 q 650 1249 627 1271 q 672 1199 672 1226 q 664 1168 672 1183 q 640 1140 657 1153 q 616 1124 629 1132 q 588 1108 604 1117 q 517 1079 559 1094 q 411 1042 475 1064 l 400 1054 "},"ą":{"x_min":65,"x_max":724.734375,"ha":689,"o":"m 716 -235 l 724 -251 q 532 -255 613 -278 q 423 -183 452 -232 q 420 -180 421 -182 l 418 -179 q 418 -74 392 -132 q 482 -4 436 -36 q 477 0 480 -1 q 460 13 468 6 q 413 60 435 35 q 391 116 392 85 l 391 119 q 393 123 391 120 l 392 128 q 335 91 363 112 q 281 49 308 71 q 233 12 256 30 q 185 -22 209 -5 q 125 21 148 2 q 88 57 102 39 q 69 102 73 78 q 65 162 65 126 l 65 489 q 65 507 65 498 q 71 528 66 517 q 92 560 76 544 q 141 588 108 576 q 197 612 166 599 q 261 639 229 624 q 338 680 301 658 q 403 731 376 703 l 403 733 q 433 700 413 717 q 478 664 452 683 q 547 622 509 642 q 624 588 585 602 q 646 582 635 585 q 666 577 656 580 l 666 557 l 648 557 q 603 541 617 559 q 590 501 590 523 l 590 196 q 600 140 590 157 q 633 123 610 123 q 658 127 644 123 q 688 139 671 131 l 688 120 q 603 55 648 94 q 528 -3 570 27 q 513 -47 513 -22 q 538 -129 513 -89 q 541 -133 539 -130 q 544 -137 542 -136 q 625 -214 576 -183 q 715 -236 674 -244 l 716 -235 m 262 175 q 271 127 262 143 q 296 111 280 111 q 311 113 303 111 q 327 119 319 115 l 383 152 l 383 525 q 317 560 344 538 q 268 605 291 581 l 262 611 l 262 175 "},"Ö":{"x_min":-22.1875,"x_max":1075,"ha":1126,"o":"m 403 962 q 314 917 339 944 q 290 855 290 889 q 310 777 290 819 q 355 691 330 735 l 355 688 l 358 687 q 399 606 380 645 q 419 530 419 566 q 418 516 419 523 q 415 501 417 508 q 335 393 399 433 q 196 353 270 353 q 55 400 120 353 q -21 556 -8 448 l 0 558 q 3 528 0 544 q 14 497 6 513 q 62 428 30 459 q 133 397 94 398 l 139 397 q 148 398 144 397 q 155 399 152 398 q 163 402 159 401 q 185 417 178 409 q 191 435 191 426 q 174 480 191 455 l 138 534 q 107 583 121 558 q 87 633 92 608 q 85 644 85 638 q 83 655 84 649 q 82 666 83 660 q 81 677 81 671 l 81 694 q 174 871 89 788 q 392 982 259 953 q 469 991 433 989 q 541 994 506 994 q 869 905 761 995 q 1023 706 977 814 q 1038 669 1031 688 q 1049 633 1044 651 q 1068 549 1062 591 q 1075 467 1073 508 q 949 124 1075 270 q 616 -22 823 -22 q 540 -16 579 -22 q 459 0 501 -10 q 384 34 420 9 q 313 86 348 58 q 304 94 309 90 q 294 102 298 98 q 211 165 254 135 q 120 206 169 194 l 116 206 q 112 208 115 206 l 104 208 q 41 186 62 208 q 9 139 19 164 l 4 123 q 0 108 1 114 l -22 109 q 68 246 -1 183 q 216 336 137 309 q 258 346 237 343 q 298 350 279 350 l 308 350 q 312 349 309 349 l 316 349 q 421 312 362 343 q 545 246 480 282 q 594 219 569 232 q 643 194 619 205 q 738 157 691 172 q 829 142 786 142 q 913 161 873 142 q 984 228 952 180 q 1025 309 1012 264 q 1039 401 1039 354 l 1039 408 q 1002 558 1037 487 q 908 665 968 629 q 841 692 876 683 q 770 704 805 701 q 740 706 755 705 q 709 707 725 707 q 676 706 693 707 q 644 705 659 705 q 612 704 627 705 q 581 704 597 704 q 508 709 543 704 q 448 731 473 715 q 433 742 445 734 q 408 765 422 751 q 380 805 393 781 q 368 860 368 828 q 376 907 368 881 q 403 960 384 932 l 403 962 m 666 1072 q 616 1112 636 1087 q 586 1161 595 1136 q 581 1180 582 1171 q 580 1197 580 1189 q 600 1246 580 1226 q 666 1267 620 1267 q 742 1246 718 1267 q 766 1196 766 1225 q 764 1179 766 1187 q 759 1162 763 1171 q 725 1110 749 1135 q 666 1071 700 1085 l 666 1072 m 414 1072 q 350 1136 370 1104 q 330 1194 330 1168 q 355 1246 328 1226 q 425 1267 381 1267 q 491 1245 467 1267 q 515 1192 515 1223 q 512 1171 515 1182 q 505 1150 510 1160 q 473 1107 495 1128 q 414 1071 451 1087 l 414 1072 "},"z":{"x_min":-7,"x_max":512,"ha":536,"o":"m 42 546 l 295 733 q 380 648 344 695 q 422 553 416 602 q 423 545 423 549 l 423 538 q 386 448 423 492 q 262 370 349 405 q 310 363 287 370 q 349 348 332 356 q 412 378 374 364 q 491 391 450 391 l 491 371 q 473 365 482 367 q 455 360 464 363 q 406 346 430 355 q 371 326 382 338 q 477 199 443 276 q 512 41 510 123 l 512 33 q 430 -203 509 -94 q 217 -317 352 -311 l 208 -317 q 47 -239 102 -317 q -7 -60 -7 -162 q -5 -27 -7 -43 q -1 3 -4 -11 q 72 178 12 95 q 239 303 131 262 q 212 315 224 312 q 188 319 199 319 q 154 308 167 319 q 130 287 141 298 q 114 271 121 278 q 98 260 106 264 q 89 257 94 259 q 81 255 85 255 q 77 253 78 253 l 73 253 q 51 262 59 253 q 42 284 42 271 q 43 290 42 287 q 45 298 44 294 q 66 322 51 310 q 109 337 81 334 q 204 380 176 348 q 233 451 233 413 q 205 523 233 491 q 134 558 177 556 q 96 549 116 558 q 53 523 76 541 l 42 546 m 251 284 q 128 174 170 255 q 76 2 87 94 q 73 -26 74 -11 q 72 -57 72 -42 q 103 -223 72 -151 q 192 -296 135 -296 l 196 -296 q 272 -209 250 -296 q 294 -15 294 -122 l 294 -1 q 280 179 292 95 q 251 283 267 263 l 251 284 "},"™":{"x_min":22,"x_max":1378.390625,"ha":1237,"o":"m 743 787 l 743 524 q 759 465 743 483 q 809 447 776 447 l 809 415 l 623 415 l 623 448 l 625 447 l 627 447 q 669 466 650 448 q 689 523 689 484 l 689 853 q 665 901 683 885 q 627 926 647 918 q 608 933 618 930 q 590 939 598 936 l 590 974 l 809 974 l 996 601 l 1181 974 l 1378 974 l 1378 940 q 1315 923 1329 939 q 1302 885 1302 908 l 1302 535 q 1315 469 1302 492 q 1378 447 1329 447 l 1378 415 l 1072 415 l 1072 448 q 1125 464 1113 446 q 1138 523 1138 482 l 1138 786 l 951 415 l 918 415 l 743 787 m 197 929 q 187 927 192 927 q 176 929 181 927 l 142 929 q 90 910 115 927 q 53 840 65 894 l 22 841 l 22 974 l 547 974 l 547 852 l 513 852 q 461 919 491 909 q 383 928 430 929 l 361 928 l 361 513 q 372 468 361 478 q 405 452 383 458 q 415 449 411 451 q 426 446 420 448 l 426 415 l 130 415 l 130 448 q 184 467 172 454 q 197 511 197 479 l 197 929 "},"Ř":{"x_min":9.609375,"x_max":1127.015625,"ha":1149,"o":"m 65 359 l 65 383 q 160 392 122 382 q 199 426 198 402 q 196 441 199 433 q 186 458 192 448 q 152 493 174 473 q 106 534 130 512 l 74 565 q 48 598 59 582 q 32 621 38 609 q 22 644 26 633 q 13 684 16 665 q 9 722 9 704 q 101 908 8 836 q 312 981 195 981 l 330 981 q 349 979 340 981 q 488 930 420 972 q 601 808 555 888 q 667 942 611 901 q 790 989 723 983 l 807 989 q 881 978 846 989 q 940 950 917 968 q 998 892 979 927 q 1024 819 1017 857 q 1028 781 1026 800 q 1029 745 1029 762 l 1029 707 q 1028 690 1028 697 l 1028 676 q 1044 628 1028 648 q 1088 608 1061 608 q 1096 609 1092 608 q 1104 611 1100 609 l 1104 590 q 1067 578 1088 583 q 1024 573 1046 573 q 1004 575 1014 573 l 985 577 l 940 568 q 992 512 976 566 q 1010 393 1007 458 q 1012 371 1012 382 l 1012 348 q 1010 294 1012 319 q 1006 250 1009 269 q 1003 223 1004 236 q 1002 197 1002 209 q 1009 149 1002 169 q 1036 127 1017 129 q 1065 136 1047 127 q 1104 162 1082 144 l 1127 141 l 875 -22 q 755 65 783 12 q 728 173 728 118 q 728 193 728 183 q 729 212 729 203 q 731 230 730 221 q 734 250 732 240 q 736 284 734 265 q 741 325 738 304 q 743 344 742 334 q 745 362 743 353 q 747 387 746 375 q 748 411 748 400 q 734 484 748 454 q 676 516 720 515 q 662 516 669 516 q 646 512 654 515 l 646 491 q 645 462 646 476 q 643 432 644 447 q 523 119 626 261 q 273 -22 420 -22 q 122 17 174 -22 q 53 129 70 57 q 49 157 51 144 q 47 182 47 171 q 83 282 47 247 q 164 323 120 318 q 173 325 168 325 l 181 325 q 250 303 220 325 q 284 239 281 282 q 286 221 285 229 q 287 204 287 212 q 267 136 287 152 q 225 116 248 119 q 215 114 220 115 q 205 114 210 114 q 175 108 188 112 q 163 86 163 104 q 193 25 163 50 q 262 1 224 1 l 268 1 q 321 21 296 4 q 361 75 347 37 q 388 200 380 127 q 396 354 396 273 q 395 405 396 379 q 393 457 394 430 q 370 670 387 566 q 327 840 352 773 q 289 891 315 872 q 236 916 263 909 q 220 920 227 919 q 204 921 212 921 q 176 917 188 921 q 152 907 163 914 q 138 893 144 900 q 129 879 131 886 q 122 865 124 872 q 120 851 120 858 l 120 843 q 148 787 124 815 q 199 736 172 759 q 234 709 217 722 q 262 687 251 697 q 300 636 287 669 q 313 564 313 602 q 313 549 313 557 q 311 533 312 541 q 251 414 302 468 q 95 358 199 359 l 80 358 q 65 359 73 358 m 646 546 l 940 590 q 834 652 872 617 q 778 721 796 687 q 759 783 763 753 q 755 840 755 813 l 755 888 q 741 911 753 901 q 711 922 728 922 q 704 921 707 922 q 696 920 700 920 q 657 883 675 913 q 635 785 639 852 l 646 546 m 767 1216 q 740 1189 755 1205 q 708 1155 724 1173 l 705 1152 l 705 1151 q 654 1095 677 1120 q 626 1065 631 1070 q 597 1042 610 1049 q 572 1036 583 1036 q 543 1043 556 1036 q 516 1065 530 1051 l 374 1216 q 364 1231 367 1224 q 359 1245 360 1238 q 367 1258 359 1255 q 395 1251 376 1261 l 570 1173 l 734 1238 q 758 1252 748 1248 q 774 1256 769 1256 q 785 1245 787 1256 q 767 1217 783 1234 l 767 1216 "},"ã":{"x_min":65,"x_max":688.609375,"ha":689,"o":"m 403 733 q 433 701 413 718 q 478 665 452 683 q 547 623 509 643 q 624 589 585 603 q 646 583 635 586 q 666 578 656 580 l 666 558 l 648 558 q 603 542 617 560 q 590 501 590 523 l 590 197 q 600 141 590 158 q 633 123 610 123 q 658 128 644 123 q 688 140 671 132 l 688 121 q 603 56 648 94 q 502 -22 559 18 l 496 -16 q 492 -14 495 -15 q 477 0 485 -5 q 460 13 468 6 q 413 61 435 36 q 391 116 392 86 l 391 119 q 393 123 391 121 l 392 129 q 335 92 363 112 q 281 50 308 72 q 233 12 256 30 q 185 -22 209 -5 q 125 21 148 3 q 88 58 102 40 q 69 103 73 79 q 65 162 65 126 l 65 490 q 65 508 65 498 q 71 529 66 518 q 92 560 76 544 q 141 589 108 576 q 197 612 166 600 q 261 640 229 625 q 338 681 301 658 q 403 732 376 704 l 403 733 m 131 808 q 185 934 146 897 q 270 979 225 972 q 281 980 275 979 q 293 981 288 981 q 343 974 320 981 q 383 959 366 967 q 394 952 388 956 q 406 945 401 948 q 461 914 434 928 q 514 899 488 899 q 554 913 535 899 q 591 959 574 926 l 611 960 q 560 826 602 866 q 471 781 518 785 q 461 780 465 780 l 453 780 q 402 788 427 780 q 360 806 378 795 q 284 848 321 833 q 219 863 247 863 q 177 851 194 865 q 153 806 160 837 l 131 808 m 262 175 q 271 127 262 143 q 296 111 280 111 q 311 113 303 111 q 327 119 319 115 l 383 153 l 383 525 q 317 560 344 539 q 268 605 291 582 l 262 611 l 262 175 "},"Ň":{"x_min":11.125,"x_max":1104.171875,"ha":1072,"o":"m 87 372 q 193 416 162 398 q 224 447 223 433 q 221 457 224 453 q 211 466 218 462 q 172 487 197 476 q 123 511 148 497 q 56 559 87 530 q 22 633 24 587 l 22 647 q 20 653 20 650 l 20 660 q 117 916 20 829 q 329 1012 213 1004 q 340 1014 334 1014 l 351 1014 q 509 970 436 1014 q 612 840 582 926 q 659 933 626 901 q 726 979 691 965 q 777 991 752 989 q 820 994 802 994 q 970 934 937 986 q 1007 819 1002 882 q 1008 798 1008 810 l 1008 778 q 1020 684 1009 723 q 1092 644 1031 644 l 1103 644 l 1103 623 l 1074 623 q 973 590 1017 625 q 929 469 929 555 q 926 416 927 444 q 925 361 925 389 l 925 357 q 939 208 925 276 q 1000 140 954 140 q 1036 150 1016 140 q 1083 184 1056 161 l 1104 164 l 852 -22 q 793 16 818 -1 q 750 54 768 34 q 705 135 714 93 q 692 243 696 178 q 691 267 692 254 q 689 294 690 280 q 686 328 687 311 q 686 358 686 344 q 753 553 686 509 q 938 618 820 596 q 950 620 944 619 q 962 622 956 621 q 819 671 855 626 q 774 771 783 716 q 770 796 772 783 q 768 822 769 810 q 756 891 765 862 q 710 919 747 919 q 700 919 705 919 q 688 916 695 918 q 645 866 656 904 q 634 776 634 829 q 636 720 634 750 q 640 658 638 690 q 642 627 641 643 q 645 596 643 611 q 645 563 645 579 q 646 532 646 547 q 643 471 646 501 q 634 414 641 441 q 584 323 623 378 q 494 212 544 269 q 468 182 482 197 l 440 151 q 336 47 386 94 q 262 -22 287 0 l 98 130 l 33 65 l 11 87 l 229 305 l 404 164 q 404 175 404 162 q 407 211 405 189 q 407 266 407 234 q 408 336 408 298 q 406 447 408 387 q 400 568 405 507 q 390 675 397 622 q 372 775 383 728 q 322 860 362 825 q 234 901 281 894 q 222 903 229 903 q 211 904 216 904 q 152 889 180 904 q 109 840 124 875 q 106 830 108 835 q 105 819 105 825 q 121 782 105 798 q 162 748 137 765 q 183 735 172 741 q 204 722 194 729 q 249 691 227 707 q 284 654 270 675 q 308 608 300 633 q 316 555 316 583 l 316 541 q 315 529 316 536 q 250 409 306 464 q 87 348 194 354 l 87 372 m 813 1193 q 785 1166 800 1182 q 753 1132 770 1150 l 750 1129 l 750 1127 q 700 1072 723 1097 q 671 1041 677 1047 q 642 1019 656 1026 q 617 1012 628 1012 q 589 1020 602 1012 q 561 1041 575 1027 l 420 1193 q 409 1208 413 1201 q 405 1222 406 1215 q 413 1234 405 1232 q 441 1227 421 1237 l 616 1150 l 780 1215 q 804 1229 793 1225 q 820 1233 814 1233 q 830 1222 832 1233 q 813 1194 828 1211 l 813 1193 "},"æ":{"x_min":54,"x_max":908.1875,"ha":897,"o":"m 524 677 q 574 689 547 680 q 629 709 601 698 q 645 717 637 714 q 662 723 654 720 q 713 745 688 734 q 754 764 737 757 l 908 502 l 579 316 q 592 288 584 302 q 610 258 599 273 q 673 192 634 222 q 766 162 712 162 q 826 173 794 162 q 897 207 859 183 l 908 186 q 844 148 883 172 q 766 94 806 123 q 752 85 759 90 q 740 75 745 80 q 674 27 705 51 q 623 -11 644 4 q 583 7 604 -2 q 540 30 562 18 q 490 62 515 45 q 442 97 465 79 q 416 118 429 108 q 393 140 404 129 q 349 103 376 123 q 295 61 323 83 q 290 58 293 59 q 287 55 288 57 q 238 20 262 37 q 197 -11 215 2 q 142 17 165 4 q 104 43 119 30 q 69 91 77 65 q 57 161 61 118 q 54 172 55 166 q 54 184 54 177 l 54 480 q 81 573 58 547 q 148 616 105 598 q 256 661 192 633 q 404 764 320 689 q 414 751 409 757 q 423 740 419 745 q 442 724 433 732 q 462 709 451 716 q 490 694 474 702 q 524 676 505 686 l 524 677 m 393 547 q 317 583 345 561 q 266 629 289 605 l 262 633 l 262 197 q 265 139 262 165 q 288 113 268 113 q 305 117 295 113 q 327 129 314 120 l 393 175 l 393 547 m 589 677 q 587 618 589 650 q 583 552 585 587 q 581 525 581 539 q 579 498 580 512 q 576 455 577 476 q 576 414 576 434 q 576 379 576 395 q 579 348 577 364 l 721 426 l 589 677 "},"É":{"x_min":33,"x_max":1084,"ha":1105,"o":"m 645 896 l 841 1005 q 855 982 847 994 q 871 956 862 970 q 914 910 889 931 q 975 890 940 890 q 1025 901 999 890 q 1084 938 1051 912 l 1084 917 q 1074 898 1079 908 q 1064 880 1069 888 q 978 798 1033 835 q 861 762 923 762 q 830 764 846 762 q 799 773 815 767 q 737 808 768 784 q 678 873 707 832 q 636 855 647 868 q 625 823 625 841 q 626 814 625 818 q 626 807 626 810 q 635 783 629 795 q 646 763 640 771 q 717 657 678 714 q 799 534 757 599 l 799 547 q 842 658 799 619 q 936 697 885 697 q 1020 667 981 697 q 1073 577 1059 638 q 1074 568 1074 572 l 1074 559 q 1043 479 1074 512 q 960 446 1012 446 l 950 446 q 940 447 946 446 q 893 476 908 452 q 878 530 878 501 q 886 575 878 553 q 908 610 894 597 q 918 625 915 617 q 922 640 922 633 q 914 658 923 651 q 893 666 905 666 q 878 663 886 666 q 862 655 871 660 q 852 645 857 651 q 841 633 847 640 q 821 586 828 610 q 815 538 815 562 q 819 491 815 515 q 829 445 823 467 q 839 406 834 424 q 843 372 843 387 l 843 365 q 841 359 843 362 q 763 221 823 269 q 633 172 703 173 l 625 172 q 480 243 546 176 q 404 447 414 310 l 426 448 q 464 311 439 363 q 515 234 489 259 q 543 216 529 222 q 568 211 557 211 q 600 226 587 211 q 614 269 614 241 q 596 342 614 299 q 536 436 579 384 q 481 519 504 472 q 453 615 458 566 q 452 628 453 622 q 451 641 451 634 q 468 724 451 684 q 525 797 486 765 l 634 886 q 583 927 611 909 q 528 949 555 944 q 516 952 522 951 q 505 952 511 952 q 394 869 446 954 q 328 556 343 784 l 325 504 q 322 454 323 477 q 419 115 322 211 q 636 19 516 19 l 657 19 q 852 83 761 25 q 973 217 944 141 l 996 218 q 855 51 975 112 q 587 -10 736 -8 q 553 -9 570 -10 q 518 -6 536 -8 q 185 137 335 10 q 33 530 34 263 l 33 556 q 135 833 37 717 q 352 991 234 949 q 406 1005 380 1001 q 459 1010 433 1010 q 569 983 519 1010 q 645 895 619 955 l 645 896 m 502 1038 q 518 1066 509 1051 q 538 1098 527 1081 q 553 1120 545 1109 q 569 1142 561 1131 q 604 1189 587 1167 q 634 1223 622 1210 q 668 1247 651 1240 q 700 1254 684 1254 q 753 1233 732 1255 q 775 1183 775 1210 q 767 1152 775 1167 q 743 1124 759 1137 q 719 1108 732 1116 q 691 1092 707 1101 q 620 1063 662 1078 q 513 1026 579 1048 l 502 1038 "},"ŀ":{"x_min":11.484375,"x_max":615,"ha":658,"o":"m 99 830 q 217 958 122 927 q 426 1004 312 988 l 426 984 q 325 928 344 966 q 306 840 306 890 l 306 217 q 314 166 306 187 q 354 144 322 145 q 384 148 366 144 q 426 162 402 152 l 426 141 q 368 108 401 130 q 302 61 336 87 q 261 27 281 44 q 224 -5 242 11 l 218 -11 q 201 5 210 -2 q 182 23 192 13 q 110 86 147 56 q 33 128 72 116 l 33 152 q 47 148 40 149 q 60 147 54 147 q 90 162 83 147 q 99 195 97 177 l 99 733 q 91 774 99 748 q 71 830 83 801 q 45 881 60 856 q 15 923 30 906 l 11 927 l 22 951 q 25 947 23 948 l 28 944 q 67 894 50 920 q 99 828 83 867 l 99 830 m 483 585 q 577 545 544 584 q 615 461 610 507 l 615 453 q 583 370 615 407 q 483 333 551 333 q 381 370 415 333 q 347 455 348 407 l 347 459 q 383 545 348 506 q 483 584 417 584 l 483 585 "},"~":{"x_min":98.625,"x_max":736.171875,"ha":826,"o":"m 98 246 q 174 446 130 418 q 266 474 218 474 q 313 469 290 474 q 362 454 337 464 q 394 441 377 449 q 426 425 411 433 l 443 414 q 465 401 454 408 q 504 382 483 390 q 550 374 526 374 q 617 396 581 374 q 688 479 652 418 l 736 458 q 659 254 701 283 q 572 225 616 225 q 559 225 566 225 q 547 226 552 226 q 484 243 515 230 q 426 272 454 256 q 420 275 423 273 q 412 279 416 277 q 363 301 388 290 q 311 317 337 311 q 293 319 302 318 q 276 320 284 320 q 204 300 238 320 q 141 228 169 280 l 98 246 "},"³":{"x_min":5.03125,"x_max":460,"ha":472,"o":"m 99 741 l 197 741 q 261 772 246 739 q 277 859 277 805 q 250 953 277 925 q 194 986 224 982 q 184 988 189 987 q 175 989 180 989 q 140 983 156 989 q 117 971 124 978 q 111 962 113 965 q 109 955 109 958 q 117 941 109 947 q 137 930 125 936 q 143 928 139 929 q 149 925 146 926 q 175 911 163 919 q 189 891 187 903 q 192 880 191 886 q 194 869 194 873 q 167 820 194 837 q 110 803 141 803 l 107 803 q 51 819 77 803 q 26 872 26 836 l 26 876 q 82 978 26 946 q 209 1010 138 1010 l 229 1010 q 360 974 300 1005 q 427 891 420 943 q 428 877 428 884 l 428 865 q 398 775 428 802 q 335 739 369 747 q 318 735 326 736 q 301 734 310 734 q 332 722 310 729 q 378 702 354 714 q 434 659 408 686 q 460 585 460 631 l 460 576 q 396 466 457 501 q 262 425 335 431 q 239 422 251 423 q 214 422 227 422 q 133 428 170 422 q 78 445 96 434 q 36 478 52 460 q 12 516 20 496 q 6 536 7 526 q 5 556 5 546 q 13 597 3 580 q 32 621 23 615 q 65 635 49 631 q 95 640 81 640 q 153 616 131 640 q 174 563 174 592 l 174 559 q 158 519 173 538 q 112 491 144 499 q 99 483 103 488 q 95 471 95 478 l 95 469 q 96 464 95 467 q 102 458 98 462 q 112 452 106 455 q 141 442 124 446 q 176 437 157 437 l 185 437 q 250 467 220 439 q 283 563 280 494 l 283 603 q 267 682 283 646 q 197 721 252 718 l 99 722 l 99 741 "},"":{"x_min":33.5,"x_max":783.828125,"ha":764,"o":"m 506 312 q 469 319 481 319 q 435 308 449 319 q 411 287 422 298 q 365 284 383 267 q 362 321 347 301 q 412 342 376 341 q 485 381 457 348 q 514 451 514 413 q 488 532 514 491 q 414 578 462 573 q 328 480 341 578 l 328 217 q 346 172 333 188 q 382 155 359 155 q 421 165 398 155 q 471 195 443 174 l 480 174 q 404 110 434 137 q 347 60 373 84 l 343 56 q 300 19 322 38 q 251 -22 279 0 q 204 37 233 8 q 143 85 175 66 q 96 110 119 101 q 54 119 72 119 l 54 141 q 108 156 96 140 q 121 206 121 173 l 121 547 l 33 547 l 33 567 q 150 639 94 577 q 243 773 207 701 q 279 856 265 816 q 296 927 293 897 l 328 929 l 327 609 l 568 745 q 661 649 625 695 q 703 553 697 602 q 704 545 704 549 l 704 538 q 667 449 704 492 q 543 370 630 405 q 591 363 568 370 q 630 348 613 356 q 758 199 725 276 q 781 -5 791 123 q 693 -216 770 -134 q 459 -314 616 -298 q 236 -243 312 -328 q 205 -194 218 -225 l 223 -172 q 303 -259 254 -234 q 418 -269 353 -283 q 521 -191 483 -254 q 567 -66 558 -128 q 574 45 575 -4 q 558 195 574 95 q 506 312 543 295 "},"¡":{"x_min":120,"x_max":393,"ha":502,"o":"m 250 383 l 273 383 q 281 311 275 347 q 295 240 287 275 q 310 176 302 208 q 327 114 319 144 q 365 -28 348 39 q 383 -152 383 -95 q 339 -243 378 -212 q 255 -276 300 -274 q 175 -246 212 -276 q 130 -152 138 -216 l 130 -134 q 150 -17 130 -77 q 195 124 170 42 q 226 240 212 176 q 250 382 241 303 l 250 383 m 273 722 q 308 639 281 670 q 393 599 335 608 l 393 567 q 312 517 344 551 q 273 435 281 484 l 239 437 q 211 499 234 470 q 161 546 188 528 q 140 558 150 553 q 120 566 129 563 l 120 601 q 198 634 175 608 q 238 715 221 660 q 239 717 238 716 q 239 720 239 719 l 273 722 "},"[":{"x_min":65,"x_max":437.125,"ha":460,"o":"m 65 985 l 437 985 l 437 952 l 316 952 q 263 932 276 950 q 251 840 251 914 l 251 -197 q 257 -251 251 -229 q 305 -274 264 -274 l 426 -274 l 426 -306 l 65 -306 l 65 985 "},"%":{"x_min":42,"x_max":1075,"ha":1126,"o":"m 830 471 q 1010 393 948 469 q 1075 225 1072 316 l 1075 216 q 1017 52 1075 126 q 841 -22 959 -22 q 657 54 720 -22 q 594 223 595 130 l 594 228 q 652 391 594 318 q 830 469 710 465 l 830 471 m 295 940 q 466 861 409 934 q 525 700 523 787 l 525 695 q 468 532 525 607 q 295 458 411 458 q 104 533 166 458 q 42 697 42 608 q 103 863 42 787 q 284 939 165 939 l 295 939 l 295 940 m 809 940 l 863 917 l 295 -11 l 251 21 l 809 940 m 350 875 q 329 909 350 897 q 284 922 309 922 q 238 910 259 922 q 218 873 218 898 l 218 547 q 238 495 218 513 q 281 476 258 477 l 286 476 q 329 492 309 475 q 350 545 350 509 l 350 875 m 897 51 l 897 400 q 879 437 898 425 q 837 450 860 450 q 795 437 814 450 q 776 400 776 425 l 776 65 q 796 9 776 27 q 839 -8 816 -8 q 879 5 862 -9 q 897 51 897 20 "},"P":{"x_min":4,"x_max":1103.15625,"ha":1126,"o":"m 87 383 q 153 404 128 386 q 181 443 177 422 l 181 447 q 169 477 181 462 q 130 501 158 491 q 34 583 65 529 q 4 705 4 637 q 6 739 4 722 q 11 775 8 757 q 117 937 34 887 q 297 987 201 987 l 302 987 q 489 939 402 985 q 601 820 576 893 q 662 956 605 917 q 789 995 719 995 l 800 995 q 920 966 864 992 q 996 907 976 940 q 1012 868 1007 887 q 1017 831 1017 849 q 1012 787 1017 808 q 1001 749 1007 767 q 989 713 994 729 q 985 685 985 697 q 1002 655 985 667 q 1067 644 1019 644 l 1093 644 l 1093 623 q 939 598 954 622 q 1005 534 925 575 q 1074 485 1046 521 q 1103 402 1103 450 q 1101 375 1103 389 q 1093 348 1099 362 q 1069 292 1083 322 q 1037 233 1054 262 q 894 63 980 140 q 705 -14 807 -14 q 653 -8 679 -14 q 601 9 628 -2 q 579 -70 593 -26 q 550 -158 565 -114 q 531 -206 540 -182 q 512 -252 522 -230 q 496 -291 504 -272 q 480 -328 489 -311 l 459 -328 q 440 -264 451 -304 q 416 -169 429 -223 q 392 -42 404 -112 q 372 108 380 27 q 360 121 366 115 q 344 135 354 128 q 304 163 327 149 q 256 184 280 177 q 240 188 248 187 q 223 190 231 190 q 167 167 192 190 q 130 85 141 145 l 109 87 q 119 138 112 106 q 140 205 126 170 q 204 305 160 260 q 322 351 247 351 l 341 351 q 361 348 351 351 l 361 688 q 340 839 361 769 q 262 917 319 910 q 239 920 251 919 q 216 921 227 921 q 143 907 175 921 q 112 865 112 893 q 143 804 111 840 q 251 720 175 768 q 291 670 277 702 q 307 597 305 637 q 305 572 307 584 q 301 545 304 559 q 234 430 285 484 q 87 359 183 376 l 87 383 m 908 623 q 800 685 832 645 q 757 767 768 724 q 751 810 753 789 q 749 851 749 831 q 740 908 746 884 q 711 938 735 932 q 703 940 707 939 q 696 941 699 941 q 639 886 653 941 q 624 766 626 831 l 624 273 l 810 141 q 841 124 825 130 q 874 119 857 119 q 935 138 908 119 q 962 188 962 157 q 948 233 962 209 q 897 282 933 257 q 863 308 883 294 q 821 341 843 323 q 755 409 785 371 q 725 485 725 446 q 727 504 725 495 q 733 523 729 513 q 742 538 737 530 q 753 555 747 546 q 805 601 772 580 q 886 623 837 623 l 897 623 q 908 621 903 623 l 908 623 "},"_":{"x_min":0,"x_max":688.9375,"ha":689,"o":"m 0 -99 l 688 -99 l 688 -164 l 0 -164 l 0 -99 "},"ñ":{"x_min":-10.953125,"x_max":732.34375,"ha":742,"o":"m 306 579 l 535 743 q 558 717 546 730 q 584 690 570 704 q 641 640 610 664 q 710 611 673 616 l 710 590 q 645 573 668 589 q 623 501 623 558 l 623 207 q 624 197 623 202 q 634 159 625 176 q 665 141 643 143 q 689 146 676 141 q 721 162 703 151 l 732 152 l 524 -22 q 432 78 450 33 q 415 162 415 122 l 415 525 q 405 573 415 559 q 380 587 395 587 q 360 583 370 587 q 339 572 350 579 q 322 559 330 566 l 306 546 l 306 183 q 307 171 306 178 q 315 146 308 158 q 338 129 322 134 l 338 109 q 274 81 309 101 q 203 4 239 61 q 194 -8 199 -1 l 186 -22 q 151 29 176 4 q 96 73 125 54 q 55 95 75 86 q 22 108 36 104 l 22 130 q 76 143 54 129 q 99 207 99 157 l 99 502 q 98 513 99 507 q 96 526 97 519 q 83 561 93 545 q 57 577 73 577 q 32 571 47 579 q 0 545 18 564 l -10 568 l 175 743 q 272 672 240 709 q 306 579 304 634 m 109 809 q 162 934 123 897 q 245 979 201 972 q 258 981 251 980 q 272 982 265 982 q 321 975 298 982 q 361 960 344 969 q 372 953 366 958 q 384 947 379 949 q 439 915 412 930 q 493 901 466 901 q 532 914 513 901 q 568 960 551 927 l 590 962 q 541 831 580 870 q 455 783 501 791 q 443 782 450 783 q 431 781 437 781 q 380 789 405 781 q 338 808 355 797 q 263 849 300 834 q 198 865 226 865 q 155 852 173 866 q 130 808 137 838 l 109 809 "},"‚":{"x_min":109.734375,"x_max":393.09375,"ha":511,"o":"m 109 119 l 109 153 q 174 180 144 157 q 222 232 204 204 q 233 253 229 243 q 240 272 237 262 l 273 274 q 313 199 281 230 q 393 151 344 168 l 393 121 q 343 89 369 111 q 284 -22 316 66 q 270 -61 277 -43 q 256 -95 263 -79 q 205 -194 233 -153 q 120 -274 177 -236 l 120 -240 q 177 -186 156 -219 q 206 -116 197 -153 q 215 -73 213 -94 q 218 -33 218 -51 q 217 -13 218 -23 q 213 5 216 -4 q 183 69 206 38 q 109 119 159 100 "},"Æ":{"x_min":24,"x_max":1367,"ha":1389,"o":"m 623 830 q 704 916 658 880 q 801 970 751 952 q 842 981 822 977 q 884 986 863 986 q 970 964 931 986 q 1027 895 1008 942 l 1191 1006 q 1225 927 1202 955 q 1279 900 1248 900 q 1322 911 1300 900 q 1367 950 1344 923 l 1367 929 q 1269 814 1315 845 q 1185 783 1224 783 q 1120 801 1149 783 q 1071 841 1092 819 q 1052 864 1060 853 q 1039 884 1044 876 q 1013 860 1021 874 q 1004 831 1006 846 q 1019 777 1004 806 q 1053 719 1033 748 q 1058 711 1056 715 q 1062 704 1060 706 q 1094 655 1079 679 q 1115 611 1108 632 q 1165 678 1131 657 q 1236 699 1199 699 q 1312 678 1276 699 q 1356 622 1347 657 q 1360 596 1358 608 q 1363 574 1363 585 q 1336 497 1363 522 q 1278 470 1310 472 l 1271 470 q 1214 488 1240 470 q 1189 540 1189 507 q 1197 578 1189 557 q 1225 622 1205 599 q 1234 638 1232 631 q 1237 650 1237 645 q 1232 663 1237 658 q 1219 667 1227 667 q 1204 665 1212 667 q 1187 658 1195 663 q 1153 624 1169 647 q 1138 567 1138 601 q 1146 517 1138 545 q 1165 458 1155 489 q 1175 426 1171 443 q 1184 394 1180 410 q 1190 364 1188 379 q 1193 334 1193 348 q 1178 270 1193 300 q 1126 216 1163 240 q 1065 185 1094 195 q 1011 176 1036 176 q 891 260 930 176 q 853 458 853 344 l 875 460 q 904 304 880 359 q 955 227 927 248 q 976 215 966 219 q 995 211 986 211 q 1025 224 1013 211 q 1037 261 1037 238 q 1033 291 1038 274 q 1016 326 1027 308 q 984 379 1002 351 q 947 437 966 406 q 900 517 923 476 q 864 599 877 558 q 855 631 858 615 q 853 661 853 647 q 858 702 853 681 q 873 744 864 723 q 924 813 891 779 q 1005 884 957 848 q 971 933 990 919 q 932 948 951 948 l 928 948 q 850 895 886 945 q 809 786 815 845 q 799 674 803 731 q 794 561 795 617 l 794 515 q 830 180 794 330 q 962 20 866 31 q 970 19 966 20 q 980 19 974 19 q 988 18 984 18 l 1006 18 q 1017 19 1012 18 q 1175 84 1102 25 q 1257 212 1248 143 l 1257 217 l 1278 218 q 1187 55 1262 108 q 1024 -11 1112 1 q 989 -15 1007 -14 q 955 -17 971 -17 q 919 -15 937 -17 q 885 -11 902 -14 q 744 47 805 0 q 644 147 683 94 q 620 182 630 165 q 601 216 610 200 l 551 161 q 471 75 514 119 q 372 -22 427 32 q 360 4 368 -10 q 341 36 352 19 q 289 91 320 65 q 215 116 257 116 q 150 100 184 118 q 76 41 115 83 l 54 43 q 135 167 100 128 q 202 236 171 207 l 214 247 q 249 281 232 262 q 284 326 266 300 q 320 427 308 362 q 332 566 332 493 l 332 594 q 311 771 329 687 q 262 884 293 854 q 223 912 243 904 q 186 921 204 921 q 122 893 150 922 q 91 832 95 865 l 91 821 q 103 781 91 800 q 141 752 115 762 q 245 673 209 729 q 282 551 282 616 l 282 539 q 236 413 277 472 q 110 326 194 354 l 98 350 q 177 395 155 373 q 200 434 198 416 q 181 470 200 454 q 140 500 162 486 q 118 512 129 507 q 98 523 107 518 q 42 590 61 544 q 24 691 24 636 q 25 719 24 705 l 27 747 q 106 915 43 839 q 286 992 170 992 q 322 989 304 992 q 361 983 341 987 q 497 878 438 965 q 557 678 557 791 q 552 621 557 650 q 540 562 548 591 q 454 414 515 487 q 285 283 393 341 q 328 276 304 283 q 376 257 351 269 q 450 212 415 239 q 501 155 484 185 l 502 151 l 601 251 q 597 307 598 275 q 597 373 597 339 q 595 397 595 386 l 596 476 q 596 555 596 516 q 598 629 597 594 q 600 711 599 676 q 601 763 601 747 q 584 874 601 820 q 535 961 567 927 l 546 984 q 596 918 578 958 q 623 829 614 879 l 623 830 "},"ª":{"x_min":22.15625,"x_max":405,"ha":427,"o":"m 43 885 q 62 882 52 883 q 81 881 72 881 l 90 881 q 212 904 154 883 q 306 961 271 926 q 333 940 320 949 q 357 920 346 930 q 391 882 378 902 q 405 829 405 862 l 405 655 q 377 592 405 608 q 312 567 349 576 l 296 562 q 238 539 265 553 q 197 490 210 524 q 178 508 188 498 q 155 527 167 517 q 95 565 129 546 q 22 588 61 583 l 22 612 q 40 623 37 610 q 43 649 43 635 l 43 885 m 263 590 l 263 802 q 244 844 261 824 q 197 873 227 865 l 197 645 l 263 590 "},"Œ":{"x_min":11.046875,"x_max":1379,"ha":1389,"o":"m 689 897 q 800 975 747 951 q 897 1000 854 1000 q 982 975 946 1000 q 1039 906 1018 950 l 1203 1017 q 1232 930 1207 956 q 1289 905 1258 905 l 1296 905 q 1303 906 1300 905 q 1345 924 1325 910 q 1378 960 1365 938 l 1378 939 q 1365 908 1375 927 q 1337 867 1355 888 q 1277 812 1314 837 q 1197 787 1240 787 q 1119 811 1159 787 q 1038 895 1079 836 q 1027 869 1030 881 q 1023 845 1023 856 q 1024 835 1023 840 q 1024 826 1024 830 q 1047 772 1030 800 q 1084 711 1065 744 q 1106 670 1095 691 q 1126 622 1118 648 q 1177 679 1147 658 q 1240 705 1206 700 q 1248 706 1244 706 l 1257 706 q 1334 679 1300 706 q 1378 600 1368 653 q 1379 589 1379 594 l 1379 580 q 1351 504 1379 530 q 1291 474 1323 478 l 1280 474 q 1224 491 1249 474 q 1200 541 1200 508 q 1205 574 1200 557 q 1225 611 1211 591 q 1240 637 1236 626 q 1245 657 1245 648 q 1241 667 1245 663 q 1230 672 1237 670 q 1213 668 1223 672 q 1193 655 1204 663 q 1181 645 1187 651 q 1170 633 1176 640 q 1160 613 1163 623 q 1156 590 1156 602 q 1161 557 1156 575 q 1172 522 1165 540 q 1178 505 1175 514 q 1186 487 1181 496 q 1202 448 1194 467 q 1213 414 1211 429 q 1217 396 1216 405 q 1218 378 1218 387 q 1216 358 1218 368 q 1213 337 1215 348 q 1159 237 1201 283 q 1050 185 1116 190 l 1041 185 q 1036 183 1038 183 l 1031 183 q 916 251 958 183 q 875 458 875 319 l 897 460 q 922 299 899 355 q 973 222 945 243 q 990 212 981 215 q 1006 210 998 210 q 1038 223 1026 208 q 1051 262 1051 237 q 1051 273 1052 268 q 1049 283 1051 278 q 1030 342 1044 311 q 998 403 1016 372 q 983 427 991 415 q 969 450 976 439 q 915 539 940 497 q 885 611 890 580 q 881 645 883 629 q 879 675 879 661 q 906 779 879 741 q 969 848 934 816 l 974 853 q 996 873 985 863 q 1016 895 1006 884 q 989 932 1005 921 q 955 944 973 944 q 935 941 945 944 q 913 931 924 938 q 845 862 877 910 q 797 762 812 814 q 790 729 793 745 q 787 698 787 713 q 817 618 807 660 q 832 531 827 576 q 834 500 833 516 q 835 469 835 484 q 823 332 835 397 q 798 227 812 268 q 893 73 830 130 q 1032 17 957 17 q 1054 18 1043 17 q 1077 22 1066 19 q 1184 83 1131 36 q 1279 217 1236 130 l 1301 218 q 1183 47 1266 103 q 1009 -16 1101 -7 q 993 -17 1001 -16 q 976 -18 984 -18 q 835 9 901 -18 q 733 86 769 37 q 629 2 680 26 q 531 -22 579 -22 q 427 3 476 -22 q 338 64 379 29 q 331 70 334 66 q 323 76 327 73 q 212 164 266 125 q 115 205 158 204 q 67 183 88 205 q 33 108 45 161 l 11 109 q 98 280 27 225 q 251 338 169 336 l 261 338 q 330 330 297 338 q 393 304 363 322 q 447 266 415 291 q 513 213 479 241 q 520 209 516 212 q 526 204 523 207 q 609 143 569 170 q 673 115 649 115 q 682 116 679 115 q 688 119 686 118 q 563 315 597 219 q 529 494 529 411 q 542 615 529 559 q 574 715 556 672 q 581 734 577 724 q 590 752 586 744 q 565 739 584 744 q 520 734 545 734 q 495 735 508 734 q 467 740 481 737 q 381 777 420 749 q 342 858 342 805 q 351 909 341 881 q 383 971 361 937 q 299 918 323 949 q 276 851 276 887 q 283 805 276 828 q 301 759 290 782 q 315 730 308 745 q 330 702 323 716 q 363 642 348 670 q 383 588 379 613 q 386 571 386 580 l 386 555 q 330 421 387 477 q 205 356 273 364 q 194 355 200 355 l 185 355 q 80 398 128 355 q 22 545 33 442 l 43 546 q 46 528 44 537 q 51 509 48 519 q 84 435 62 469 q 140 401 105 402 l 146 401 q 153 402 150 401 q 177 416 169 407 q 185 437 185 424 q 169 488 185 457 q 135 556 153 519 q 99 635 115 592 q 83 720 83 677 q 85 745 83 732 q 89 770 86 757 q 98 794 93 781 q 110 819 103 806 q 222 938 157 898 q 357 990 287 978 q 391 995 373 994 q 425 997 408 997 q 589 965 515 997 q 689 895 664 934 l 689 897 m 776 601 q 762 549 768 585 q 757 467 757 512 q 758 424 757 446 q 763 380 760 403 q 771 325 765 353 q 787 272 778 297 q 802 326 798 289 q 807 405 807 362 l 807 433 q 797 535 805 487 q 776 600 788 583 l 776 601 "},"ﬀ":{"x_min":21.59375,"x_max":815.0625,"ha":858,"o":"m 21 547 l 21 567 q 84 605 66 573 q 103 690 103 637 q 102 720 103 704 q 98 752 101 736 q 97 777 97 765 l 97 799 q 131 949 95 909 q 209 989 166 989 q 263 977 237 990 q 305 950 290 965 q 346 914 330 926 q 371 901 362 901 q 389 923 385 900 q 392 995 392 947 l 415 996 q 418 959 417 976 q 419 928 419 943 q 384 784 419 822 q 310 744 350 746 l 300 744 q 257 752 278 744 q 220 769 237 760 q 206 778 212 773 q 196 786 200 783 q 168 809 181 801 q 143 817 155 817 q 128 811 134 817 q 123 794 123 805 q 127 771 123 785 q 141 742 131 758 q 244 669 171 690 q 399 645 317 649 l 437 645 q 481 690 481 638 q 480 720 481 704 q 476 753 479 736 q 475 778 475 765 l 475 800 q 509 949 473 909 q 587 989 544 989 q 641 977 615 990 q 683 950 668 965 q 724 914 708 926 q 749 901 740 901 q 767 923 763 900 q 770 995 770 947 l 793 996 q 796 959 795 976 q 797 928 797 943 q 762 784 797 822 q 688 744 728 746 l 679 744 q 636 752 656 744 q 598 769 615 760 q 584 778 590 773 q 574 786 579 783 q 546 809 559 801 q 522 817 533 817 q 506 811 512 817 q 501 794 501 805 q 505 771 501 785 q 519 742 509 758 q 622 669 549 690 q 777 645 695 649 l 815 645 l 815 547 l 716 547 q 704 371 716 490 q 676 121 692 252 q 658 1 667 60 q 640 -111 649 -58 q 617 -236 629 -182 q 595 -317 605 -290 l 574 -317 q 555 -206 566 -275 q 531 -55 544 -137 q 520 28 526 -14 q 508 113 513 70 q 484 332 494 226 q 475 507 475 439 l 475 527 q 476 546 475 537 l 399 547 l 338 547 q 326 371 338 490 q 298 121 314 252 q 280 1 289 60 q 262 -111 271 -58 q 239 -236 251 -182 q 217 -317 227 -290 l 196 -317 q 177 -206 188 -275 q 153 -55 166 -137 q 142 28 148 -14 q 130 113 135 70 q 106 332 116 226 q 97 506 97 438 l 97 527 q 98 545 97 537 l 21 547 "},"Ą":{"x_min":1,"x_max":1038.84375,"ha":1050,"o":"m 1005 -227 l 1013 -244 q 822 -247 902 -270 q 712 -175 741 -224 q 709 -173 711 -174 l 708 -171 q 708 -66 682 -124 q 784 11 727 -23 q 702 89 723 46 q 678 228 678 139 l 426 0 q 404 28 419 10 q 367 65 390 46 q 300 116 338 93 q 222 143 262 139 l 212 143 q 145 124 177 144 q 87 53 113 103 l 65 65 q 128 165 98 129 q 191 225 159 200 q 203 235 197 231 q 216 246 210 240 q 265 285 241 264 q 316 337 290 306 q 344 418 335 361 q 354 544 354 475 l 354 569 q 353 596 354 582 q 341 726 350 662 q 316 829 332 789 q 265 904 297 881 q 198 931 233 928 l 190 931 q 112 903 147 931 q 77 840 77 876 q 79 825 77 833 q 84 810 82 817 q 116 774 94 792 q 175 742 137 757 q 255 667 223 722 q 289 547 287 611 l 289 540 q 243 419 287 476 q 98 337 199 362 l 98 361 q 161 385 135 371 q 198 417 186 400 q 208 432 205 424 q 211 447 211 440 q 202 467 211 458 q 174 479 193 476 q 49 569 97 504 q 1 711 1 633 q 3 748 1 729 q 12 785 6 767 q 48 858 24 822 q 109 928 71 894 q 199 978 148 961 q 304 996 250 996 l 319 996 q 513 912 425 990 q 602 665 602 835 q 551 458 602 518 q 418 356 501 399 q 369 331 394 344 q 316 304 344 318 q 359 293 337 300 q 405 278 381 286 q 505 231 458 260 q 568 162 551 203 l 678 262 l 678 711 q 674 775 678 737 q 662 853 671 812 q 642 916 654 885 q 612 972 630 947 l 634 985 q 679 910 666 950 q 700 829 691 871 l 700 831 q 776 915 726 883 q 880 963 826 946 q 966 979 924 975 q 1038 983 1009 983 l 1038 963 q 945 937 969 961 q 919 883 921 913 q 918 872 918 878 l 918 296 q 929 208 918 243 q 965 172 941 174 q 988 180 976 172 q 1016 207 1001 189 l 1038 197 l 843 28 q 802 -40 802 0 q 827 -121 802 -81 q 830 -125 829 -123 q 833 -130 832 -128 q 914 -206 865 -175 q 1004 -228 963 -237 l 1005 -227 "},"T":{"x_min":-4,"x_max":973.984375,"ha":974,"o":"m 285 546 q 228 530 254 535 q 178 525 201 525 q 41 582 87 525 q -4 713 -4 638 q -2 739 -4 726 q 0 766 -1 753 q 43 867 11 817 q 130 949 76 916 q 233 996 183 981 q 330 1011 283 1011 q 508 969 425 1011 q 662 878 592 927 q 790 786 733 828 q 887 745 847 745 q 910 749 900 745 q 929 764 921 754 q 933 770 932 767 q 935 779 933 774 q 928 806 935 790 q 911 839 922 822 q 858 890 892 867 q 776 917 825 913 l 776 940 q 919 881 873 932 q 965 768 965 829 q 916 651 967 704 q 769 599 865 599 l 757 599 q 749 599 753 599 q 743 600 746 600 q 687 610 721 600 q 615 634 653 620 l 593 643 q 571 652 582 647 q 512 679 539 666 q 471 698 485 691 q 468 686 469 693 q 467 675 467 680 q 489 627 467 647 q 543 588 511 606 q 557 579 550 584 q 573 570 565 575 q 647 517 614 547 q 680 440 680 487 q 680 427 680 434 q 678 414 679 420 q 637 341 665 373 q 576 284 608 308 q 550 266 562 275 q 525 250 537 257 q 555 230 532 246 q 612 197 579 214 q 676 168 642 182 q 746 147 711 154 q 770 143 758 144 q 794 142 782 142 q 885 167 843 140 q 951 261 928 193 l 973 262 q 833 36 921 97 q 647 -25 744 -25 q 627 -24 637 -25 q 607 -22 617 -23 q 465 12 535 -15 q 340 70 396 39 q 316 84 327 77 q 296 97 305 90 q 277 110 287 102 q 254 125 266 118 q 221 144 239 134 q 186 161 204 154 q 154 172 169 168 q 123 176 138 176 q 69 153 93 177 q 43 64 45 129 l 22 65 q 97 259 37 182 q 255 338 156 337 l 265 338 q 269 337 266 337 l 273 337 q 308 331 290 336 q 344 320 326 326 l 366 312 q 387 304 377 308 q 451 281 422 291 q 500 270 480 270 q 518 276 511 270 q 525 295 525 281 l 525 304 q 490 340 520 320 q 425 383 461 359 q 364 427 393 404 q 327 479 336 451 q 325 486 326 483 q 325 494 325 490 l 325 499 q 324 504 325 502 q 324 509 324 506 q 355 607 324 562 q 426 684 387 652 q 443 697 435 691 q 460 709 451 703 q 454 712 457 710 q 449 716 451 714 q 369 756 414 737 q 278 788 325 776 q 230 797 254 794 q 183 801 205 801 q 88 773 128 801 q 49 677 49 746 q 50 650 49 664 q 54 621 51 637 q 101 571 61 592 q 193 548 142 549 q 235 552 214 548 q 274 566 255 556 l 285 546 "},"š":{"x_min":43.109375,"x_max":665.328125,"ha":689,"o":"m 542 970 q 515 942 530 959 q 486 912 501 928 q 536 887 511 900 q 623 763 608 843 q 629 723 627 741 q 632 688 632 705 q 615 603 632 634 q 579 553 598 571 q 557 535 568 542 q 540 519 547 527 q 529 505 533 512 q 525 490 525 498 q 625 433 586 480 q 665 324 665 385 q 662 294 665 309 q 654 263 659 279 q 634 224 647 244 q 601 184 620 204 q 561 145 580 163 q 523 108 541 126 l 501 86 q 449 32 475 61 q 393 -33 423 3 q 364 -16 382 -26 q 325 2 347 -6 q 275 24 301 14 q 222 41 248 34 q 190 47 205 45 q 159 50 175 50 q 107 40 132 50 q 65 9 82 31 l 43 11 q 66 43 54 25 q 90 79 77 61 l 118 117 q 151 174 136 147 q 175 227 166 202 q 84 315 111 274 q 57 393 57 356 q 102 498 57 449 q 201 592 147 547 q 261 641 232 617 q 311 689 290 665 q 327 710 319 700 q 338 731 334 721 q 386 685 354 703 q 454 663 419 667 q 465 662 459 663 q 476 662 470 662 q 547 681 516 660 q 579 748 579 702 q 576 776 579 762 q 567 807 574 791 q 494 882 549 856 q 469 892 482 888 q 429 849 448 868 q 401 818 407 824 q 372 796 386 803 q 347 789 358 789 q 318 797 331 789 q 291 818 305 805 l 241 871 q 230 864 236 868 q 163 731 168 823 l 141 732 l 141 741 q 212 884 141 837 q 223 891 218 888 l 150 970 q 139 985 143 978 q 134 999 136 992 q 143 1012 134 1009 q 170 1005 151 1014 l 337 930 q 359 932 348 931 l 509 992 q 533 1006 523 1002 q 549 1010 544 1010 q 560 999 562 1010 q 542 971 558 988 l 542 970 m 491 121 q 508 161 502 140 q 513 203 513 182 q 474 304 515 262 q 376 347 433 347 q 335 341 357 347 q 293 322 313 335 q 243 280 268 306 q 197 217 219 254 q 363 182 291 210 q 483 125 434 155 q 488 122 486 123 q 491 119 490 121 l 491 121 m 229 589 q 212 551 218 570 q 207 515 207 533 q 249 416 207 458 q 347 375 291 375 q 361 375 354 375 q 376 377 369 376 q 444 415 411 386 q 502 501 477 444 q 468 490 486 494 q 433 486 451 486 q 350 503 390 486 q 280 541 309 520 q 247 567 261 555 q 229 588 234 580 l 229 589 "},"Þ":{"x_min":4,"x_max":1103.203125,"ha":1126,"o":"m 958 683 l 1032 683 l 1032 662 q 878 637 893 661 q 942 582 864 614 q 1044 504 985 559 q 1103 402 1103 450 q 1101 375 1103 388 q 1093 348 1099 362 q 1069 292 1083 322 q 1037 233 1054 262 q 894 63 980 140 q 705 -14 807 -14 q 653 -8 679 -14 q 601 9 628 -2 q 579 -70 593 -26 q 550 -158 565 -114 q 531 -206 540 -182 q 512 -252 522 -230 q 496 -291 504 -272 q 480 -328 489 -311 l 459 -328 q 440 -264 451 -304 q 416 -169 429 -223 q 392 -42 404 -112 q 372 108 380 27 q 360 121 366 115 q 344 135 354 128 q 304 163 327 149 q 256 184 280 177 q 240 188 248 187 q 223 190 231 190 q 167 167 192 190 q 130 85 141 145 l 109 87 q 119 138 112 106 q 140 205 126 170 q 204 305 160 260 q 322 351 247 351 l 341 351 q 361 348 351 351 l 361 688 q 340 839 361 769 q 262 917 319 910 q 239 920 251 919 q 216 921 227 921 q 143 907 175 921 q 112 865 112 893 q 143 804 111 840 q 251 720 175 768 q 291 670 277 702 q 307 597 305 637 q 305 572 307 584 q 301 545 304 559 q 234 430 285 484 q 87 359 183 376 l 87 383 q 153 404 128 386 q 181 443 177 422 l 181 447 q 169 477 181 462 q 130 501 158 491 q 34 583 65 529 q 4 705 4 637 q 6 739 4 722 q 11 775 8 757 q 117 936 34 887 q 297 986 201 986 l 299 986 q 351 985 301 986 q 489 938 402 984 q 601 819 576 892 q 793 992 603 1021 l 782 950 q 639 886 685 996 q 624 766 626 832 l 624 555 q 761 648 718 623 q 958 683 812 677 m 810 141 q 841 124 825 130 q 874 119 857 119 q 935 138 908 119 q 962 188 962 157 q 948 233 962 209 q 897 282 933 257 q 863 308 883 294 q 821 341 843 323 q 694 448 724 410 q 664 524 664 485 q 665 542 664 534 q 668 549 667 546 l 624 523 l 624 273 l 810 141 "},"j":{"x_min":-53.90625,"x_max":393.40625,"ha":405,"o":"m -53 -251 q 60 -232 19 -251 q 110 -98 101 -214 l 110 514 q 103 566 110 549 q 82 585 96 583 q 65 581 75 585 q 43 567 55 576 l 33 590 q 78 619 54 601 q 126 657 101 638 q 149 677 137 667 q 172 699 161 688 q 196 720 185 710 q 218 742 207 731 q 230 725 223 733 q 244 707 236 717 q 281 673 261 690 q 321 642 301 656 q 359 617 340 628 q 393 600 378 607 l 393 579 q 381 581 387 581 q 368 582 375 582 q 331 565 346 582 q 317 501 317 547 l 317 33 q 330 -62 322 -20 q 357 -146 339 -105 q 373 -176 364 -160 q 393 -207 382 -192 l 372 -217 q 351 -186 360 -200 q 335 -157 342 -171 q 330 -148 332 -153 q 325 -138 328 -144 q 315 -119 321 -128 l 305 -98 q 225 -219 289 -180 q 86 -269 161 -257 q 42 -274 64 -273 q 0 -276 21 -276 q -26 -275 -13 -276 q -52 -274 -40 -275 l -53 -251 m 197 765 q 169 790 182 776 q 146 817 156 803 q 122 860 131 839 q 113 903 113 882 q 140 965 113 939 q 218 995 167 990 q 285 965 254 995 q 316 896 316 936 q 312 870 316 883 q 300 844 309 857 q 263 803 288 824 q 197 764 238 782 l 197 765 "},"1":{"x_min":10.703125,"x_max":624.015625,"ha":591,"o":"m 175 119 l 175 647 q 176 651 175 648 l 176 662 q 175 675 176 668 q 173 688 174 681 q 157 718 169 705 q 120 732 145 732 l 10 733 l 10 765 l 109 765 q 233 804 176 763 q 325 895 291 845 q 339 917 333 906 q 350 938 345 927 l 449 940 l 449 109 q 464 53 449 74 q 503 31 479 31 l 624 33 l 624 0 l 11 0 l 11 33 l 120 33 q 163 46 152 31 q 175 119 175 60 "},"›":{"x_min":65.28125,"x_max":326.28125,"ha":383,"o":"m 175 383 l 65 635 l 98 635 l 305 404 l 315 394 q 322 386 319 390 q 325 366 327 376 q 305 337 323 355 l 98 110 l 65 110 l 175 383 "},"<":{"x_min":65.28125,"x_max":766.734375,"ha":831,"o":"m 65 415 l 765 722 l 766 670 l 366 359 l 765 38 l 765 0 l 65 295 l 65 415 "},"t":{"x_min":33.5,"x_max":480.796875,"ha":481,"o":"m 121 547 l 33 547 l 33 567 q 150 639 94 577 q 243 773 207 701 q 279 856 265 816 q 296 927 293 897 l 328 929 l 328 646 l 471 646 l 471 547 l 328 547 l 328 218 q 346 172 333 188 q 382 155 359 155 q 421 165 398 155 q 471 195 443 175 l 480 175 q 404 111 434 137 q 347 61 373 84 q 344 58 346 59 l 343 57 q 300 19 322 39 q 251 -22 279 0 q 204 37 233 8 q 143 86 175 66 q 96 110 119 101 q 54 119 72 119 l 54 141 q 108 157 96 140 q 121 206 121 173 l 121 547 "},"¬":{"x_min":73.5625,"x_max":689,"ha":756,"o":"m 73 448 l 689 448 l 689 179 l 575 179 l 575 327 l 73 327 l 73 448 "},"ù":{"x_min":0.265625,"x_max":743.34375,"ha":743,"o":"m 22 547 l 0 568 l 208 733 q 269 689 240 725 q 310 611 297 652 q 314 589 312 600 q 317 566 317 577 l 317 186 q 331 136 319 150 q 357 123 343 123 q 371 126 364 123 q 387 133 379 129 q 403 143 396 137 q 419 157 411 150 q 429 165 425 161 l 438 173 l 438 514 q 429 571 438 552 q 404 589 421 589 l 404 612 q 460 640 435 616 q 505 691 485 664 q 521 712 514 702 q 536 732 529 722 q 558 707 546 722 q 586 679 571 693 q 641 636 610 655 q 711 611 672 616 l 711 590 q 656 572 678 589 q 635 523 635 555 l 635 197 q 649 152 635 169 q 683 134 664 134 q 708 141 696 134 q 733 162 721 148 l 743 141 l 558 -22 q 460 51 485 16 q 435 115 435 86 q 435 128 435 122 q 438 140 436 134 l 208 -22 q 134 55 175 18 q 43 108 93 91 l 43 130 q 97 147 85 129 q 110 207 110 165 l 110 491 q 98 550 110 525 q 68 575 87 575 q 46 568 58 575 q 22 546 34 561 l 22 547 m 438 754 q 410 763 424 758 q 382 773 396 768 q 367 780 375 777 q 351 786 358 783 q 267 823 304 805 q 218 851 229 840 q 191 884 200 868 q 183 914 183 900 q 208 960 183 941 q 264 979 233 979 l 269 979 q 278 978 273 979 q 298 972 287 976 q 317 961 308 968 q 364 907 336 948 q 422 818 392 865 q 441 790 432 804 q 460 764 450 776 l 438 754 "},"ï":{"x_min":-18.078125,"x_max":417,"ha":404,"o":"m 98 513 q 89 565 98 548 q 66 581 81 581 q 45 575 56 581 q 22 556 34 569 l 11 579 q 115 668 67 627 q 196 741 163 709 q 225 712 210 727 q 256 680 239 697 q 309 636 281 658 q 371 599 338 615 l 371 579 q 317 566 330 577 q 305 523 305 555 l 305 197 q 315 150 305 165 q 342 136 326 136 q 366 142 354 136 q 393 162 379 148 l 404 141 l 208 -22 q 190 -12 199 -17 q 173 0 181 -6 q 121 62 145 23 q 98 151 98 101 l 98 513 m 65 787 q 1 851 20 819 q -18 910 -18 884 q 6 962 -19 942 q 76 983 31 983 q 141 960 117 983 q 165 906 165 938 q 162 885 165 896 q 155 864 160 874 q 123 822 145 842 q 65 785 101 802 l 65 787 m 317 787 q 267 826 287 802 q 237 876 246 851 q 232 894 233 885 q 231 912 231 903 q 251 962 231 941 q 317 983 271 983 q 393 962 369 983 q 417 912 417 941 q 415 897 417 905 q 411 881 414 889 q 378 826 403 852 q 317 785 353 799 l 317 787 "},"ī":{"x_min":11.375,"x_max":415.734375,"ha":405,"o":"m 22 578 l 11 601 q 46 618 28 607 q 82 641 64 628 q 148 692 115 664 q 208 752 180 720 q 283 673 240 712 q 383 610 325 635 l 383 589 l 368 589 q 326 574 340 591 q 307 537 311 557 q 306 530 306 534 l 306 207 q 318 154 306 174 q 349 134 331 134 q 371 141 360 134 q 393 162 382 148 l 415 152 q 342 89 371 116 q 286 42 312 63 q 253 16 269 28 q 217 -6 237 3 q 213 -8 215 -7 q 208 -11 211 -9 q 126 70 143 27 q 110 162 110 113 l 110 546 q 100 583 110 573 q 79 594 91 594 q 67 592 73 594 q 54 589 61 591 q 48 587 51 588 q 40 584 44 585 q 31 580 36 582 q 22 577 26 578 l 22 578 m 38 963 l 366 963 l 366 864 l 38 864 l 38 963 "},"Ò":{"x_min":0.1875,"x_max":1096,"ha":1127,"o":"m 426 962 q 337 915 362 942 q 311 853 311 888 q 331 776 311 817 q 376 691 351 734 q 378 688 378 690 q 380 685 379 687 q 422 604 403 644 q 441 529 441 565 q 441 515 441 522 q 437 501 440 508 q 357 393 421 433 q 219 353 293 353 q 77 400 143 353 q 0 556 12 448 l 22 558 q 25 528 22 544 q 37 497 29 513 q 84 428 52 459 q 155 397 116 398 l 162 397 q 171 398 166 397 q 178 399 175 398 q 186 402 182 401 q 207 416 201 408 q 214 434 214 424 q 197 478 214 453 q 161 534 180 503 q 130 582 144 556 q 109 633 115 608 q 107 644 108 638 q 105 655 107 649 q 105 666 105 660 q 104 677 104 671 l 104 694 q 197 871 112 788 q 415 982 282 953 q 492 991 455 989 q 564 994 529 994 q 891 905 783 995 q 1046 706 1000 814 q 1060 669 1054 688 q 1072 633 1066 651 q 1090 550 1084 591 q 1096 469 1096 509 q 971 125 1096 272 q 637 -22 846 -22 q 562 -16 601 -22 q 480 0 522 -10 q 409 32 443 9 q 341 81 375 54 q 328 91 334 86 q 315 102 322 97 q 234 165 276 135 q 141 206 191 194 l 137 206 q 133 208 136 206 l 125 208 q 62 186 83 208 q 32 139 41 164 l 26 123 q 22 108 23 114 l 0 109 q 89 246 19 183 q 239 336 159 309 q 280 346 259 343 q 321 350 301 350 l 330 350 q 334 349 332 349 l 339 349 q 443 312 384 343 q 568 246 503 282 q 614 221 590 233 l 661 196 q 757 157 709 172 q 850 142 805 142 q 934 161 894 142 q 1005 228 973 180 q 1044 303 1030 261 q 1060 387 1057 344 l 1060 409 q 1024 559 1058 489 q 929 665 990 630 q 847 696 890 687 q 759 707 804 705 l 730 707 q 697 706 714 707 q 665 705 680 705 q 633 704 648 705 q 603 704 618 704 q 530 709 564 704 q 471 731 496 715 q 456 742 468 734 q 430 765 444 751 q 403 805 415 781 q 390 860 390 828 q 398 907 390 881 q 426 960 407 932 l 426 962 m 679 1043 q 651 1052 665 1047 q 623 1062 637 1057 q 608 1069 616 1066 q 593 1075 600 1072 q 508 1112 545 1094 q 459 1140 470 1129 q 433 1173 441 1157 q 425 1203 425 1189 q 450 1249 425 1230 q 505 1268 475 1268 l 511 1268 q 519 1267 515 1268 q 539 1261 529 1265 q 558 1250 550 1257 q 605 1196 577 1237 q 663 1107 633 1154 q 682 1079 673 1093 q 701 1053 691 1065 l 679 1043 "},"":{"x_min":33.5,"x_max":892.78125,"ha":896,"o":"m 121 547 l 33 547 l 33 567 q 150 639 94 577 q 243 773 207 701 q 279 856 265 816 q 296 927 293 897 l 328 929 l 328 646 l 470 646 q 608 712 555 646 q 687 843 669 790 q 708 928 705 897 l 740 929 l 740 646 l 883 646 l 883 547 l 740 547 l 740 218 q 758 172 745 188 q 794 155 771 155 q 833 165 810 155 q 883 195 855 175 l 892 175 q 816 111 846 137 q 759 61 785 84 l 755 57 q 712 19 734 39 q 663 -22 691 0 q 616 37 645 8 q 555 86 587 66 q 456 96 531 101 q 347 61 381 90 q 334 49 345 59 q 300 19 322 39 q 251 -22 279 0 q 204 37 233 8 q 143 86 175 66 q 96 110 119 101 q 54 119 72 119 l 54 141 q 108 157 96 140 q 121 206 121 173 l 121 547 m 533 547 l 328 547 l 332 173 q 350 127 337 144 q 386 110 364 110 q 428 117 402 110 q 481 137 454 123 q 523 172 508 151 q 541 255 538 194 l 533 547 "},"Ď":{"x_min":28,"x_max":1084,"ha":1104,"o":"m 481 754 q 475 753 478 753 l 472 753 q 342 740 406 751 q 229 715 278 729 q 200 707 214 711 q 175 698 186 702 q 96 643 122 677 q 67 573 69 609 l 67 565 q 105 478 67 517 q 216 440 144 440 q 264 444 240 440 q 316 458 288 448 l 316 437 q 266 420 290 426 q 219 415 243 415 q 81 476 134 413 q 28 628 28 538 q 34 689 28 658 q 54 752 40 720 q 236 926 104 863 q 520 990 369 990 l 538 990 q 558 989 548 990 q 905 859 745 980 q 1083 479 1064 739 l 1083 471 q 1084 465 1083 468 l 1084 451 q 942 117 1084 240 q 630 -12 801 -5 l 611 -12 q 522 -5 566 -13 q 437 21 477 3 q 396 43 420 28 q 341 79 371 59 q 301 102 322 90 q 260 122 280 113 q 221 135 240 130 q 183 140 201 140 q 121 119 149 141 q 77 41 93 96 l 54 42 q 172 244 95 187 q 342 304 250 302 q 395 300 368 304 q 447 290 421 297 q 514 267 481 280 q 579 238 547 255 q 609 269 600 255 q 620 297 618 284 q 583 347 620 326 q 503 387 547 367 l 502 387 l 500 388 q 461 406 481 397 q 427 424 442 415 q 374 470 389 445 q 358 522 358 495 q 371 579 358 550 q 403 637 383 608 q 418 660 410 648 q 435 684 427 672 q 458 718 446 701 q 481 753 471 736 l 481 754 m 502 754 q 488 723 492 736 q 483 701 483 711 q 503 665 483 678 q 556 644 524 652 q 589 634 572 639 q 623 623 606 629 q 683 594 653 612 q 733 546 712 576 q 751 505 745 525 q 756 466 756 486 q 731 380 756 421 q 673 307 705 340 q 632 264 652 284 q 601 227 612 244 q 724 165 667 184 q 826 146 780 146 q 966 198 914 144 q 1033 318 1017 252 q 1037 345 1036 332 q 1039 371 1039 358 l 1039 380 q 888 616 1040 514 q 556 746 737 719 q 529 750 542 748 q 502 753 516 751 l 502 754 m 745 1223 q 718 1196 733 1212 q 686 1162 702 1180 l 683 1159 l 683 1158 q 632 1102 655 1127 q 604 1072 609 1077 q 575 1050 588 1057 q 550 1043 561 1043 q 521 1050 534 1043 q 494 1072 508 1058 l 352 1223 q 342 1238 345 1232 q 337 1252 338 1245 q 345 1265 337 1262 q 373 1258 354 1268 l 548 1180 l 712 1245 q 736 1259 726 1255 q 752 1263 747 1263 q 763 1252 765 1263 q 745 1225 761 1241 l 745 1223 "},"&":{"x_min":39,"x_max":1156,"ha":1127,"o":"m 285 568 q 252 641 263 604 q 241 712 241 678 q 327 904 241 824 q 515 995 413 985 q 528 996 522 996 l 556 996 q 562 995 558 996 q 568 995 565 995 q 684 935 646 986 q 724 825 722 885 q 690 724 724 771 q 590 665 657 678 q 600 659 596 662 q 610 653 604 655 q 659 614 636 633 q 704 579 682 596 q 729 562 717 571 q 754 546 741 553 q 757 555 755 550 q 761 565 759 560 q 778 621 769 589 q 799 686 787 653 q 861 796 822 746 q 973 851 900 846 l 987 851 q 1107 806 1058 853 q 1156 694 1156 758 q 1154 673 1156 685 q 1150 651 1153 662 q 1136 620 1144 636 q 1115 589 1128 604 q 1078 562 1098 571 q 1035 553 1057 553 q 952 581 990 553 q 914 655 915 610 q 925 702 914 678 q 962 753 936 726 q 1002 794 987 778 q 984 819 1016 811 q 979 820 981 819 q 975 821 977 821 q 969 822 972 822 l 965 822 q 858 738 901 822 q 776 523 814 654 q 917 396 867 475 q 974 233 967 318 q 975 220 975 227 l 975 208 q 887 2 975 93 q 615 -89 799 -89 l 591 -89 q 567 -88 580 -89 l 567 -54 q 580 -56 574 -56 l 592 -56 q 717 -5 674 -56 q 761 103 761 44 l 761 110 q 738 185 759 149 q 677 238 717 220 q 552 46 636 108 q 377 -21 469 -14 q 363 -22 370 -22 l 351 -22 q 230 0 288 -22 q 130 63 172 21 q 59 162 80 113 q 39 258 39 210 q 82 399 39 334 q 176 505 125 463 q 236 546 207 530 q 285 566 266 562 l 285 568 m 296 547 q 255 502 269 525 q 235 456 240 479 q 231 441 232 448 q 231 426 231 433 q 262 331 231 377 q 339 250 293 286 q 355 238 347 244 q 371 227 362 233 q 451 188 411 202 q 526 173 490 173 q 600 193 567 172 q 655 261 633 213 q 564 325 615 288 q 458 402 512 361 q 374 472 415 436 q 296 545 332 509 l 296 547 m 579 677 q 625 728 607 698 q 652 790 643 758 q 656 818 654 804 q 659 844 659 832 q 642 919 660 888 q 590 950 624 950 l 583 950 q 512 912 540 950 q 485 825 485 875 q 485 813 485 819 q 486 802 486 808 q 513 732 491 765 q 579 676 534 698 l 579 677 "},"˝":{"x_min":-20.828125,"x_max":498.65625,"ha":624,"o":"m 226 773 q 242 801 233 786 q 261 833 251 816 q 275 855 268 844 q 291 877 283 866 q 327 924 309 902 q 356 958 344 945 q 390 982 373 975 q 422 989 406 989 q 476 968 454 990 q 498 918 498 945 q 491 887 498 902 q 466 859 483 872 q 443 843 455 851 q 415 827 430 836 q 343 798 386 813 q 237 761 301 783 l 226 773 m -20 773 q -4 801 -13 786 q 13 833 4 816 q 28 855 20 844 q 44 877 36 866 q 79 924 62 902 q 109 958 97 945 q 143 982 126 975 q 175 989 159 989 q 229 968 206 990 q 251 918 251 945 q 243 887 251 902 q 219 859 236 872 q 195 843 208 851 q 168 827 183 836 q 96 798 138 813 q -9 761 54 783 l -20 773 "},"I":{"x_min":12,"x_max":897.296875,"ha":918,"o":"m 840 554 q 799 596 820 580 q 772 612 785 607 q 745 617 758 617 q 710 603 724 617 q 697 562 697 590 q 710 503 697 537 q 753 425 723 469 q 819 305 799 361 q 840 200 840 248 q 735 8 840 75 q 502 -58 630 -58 q 301 -7 395 -58 q 174 151 206 43 q 157 204 166 181 q 138 243 148 227 q 115 275 127 265 q 92 284 103 284 q 55 247 70 286 q 40 144 40 208 q 40 115 40 130 q 43 86 41 101 l 21 87 q 14 130 16 109 q 12 169 12 151 q 68 322 12 272 q 194 373 124 373 l 199 373 q 317 332 262 372 q 392 216 371 293 q 394 209 394 212 q 397 201 395 205 q 460 32 426 90 q 551 -25 494 -25 l 565 -25 q 579 -22 572 -25 q 627 0 612 -16 q 643 44 643 16 q 613 154 643 84 q 536 326 584 223 q 510 394 518 362 q 503 455 503 426 q 563 598 503 546 q 701 653 624 651 l 708 653 q 817 614 766 650 q 895 503 869 578 l 874 491 q 840 554 859 529 m 371 646 l 382 623 q 308 600 344 607 q 241 593 273 593 q 106 637 156 591 q 57 751 57 682 q 66 816 57 782 q 98 884 76 850 q 198 985 141 957 q 316 1014 254 1014 q 362 1011 339 1014 q 409 1002 386 1008 q 502 975 455 993 q 590 937 548 956 q 636 915 614 926 q 677 895 658 905 q 726 877 705 883 q 762 872 747 872 q 800 883 789 872 q 812 911 812 895 q 812 920 812 915 q 809 930 811 924 q 789 960 804 945 q 754 983 775 975 l 765 1017 q 842 946 818 986 q 868 865 866 907 q 814 746 868 800 q 672 693 761 693 q 577 708 629 693 q 471 763 526 724 q 349 830 404 810 q 251 851 294 849 q 148 817 186 851 q 100 745 111 784 q 97 729 98 737 q 96 714 96 722 q 104 673 96 691 q 130 644 112 654 q 141 637 134 642 q 158 629 148 633 q 191 618 172 624 q 237 613 211 613 q 296 619 263 613 q 371 644 330 626 l 371 646 m 897 502 l 895 502 l 897 501 l 897 502 "},"":{"x_min":21.796875,"x_max":1013,"ha":1066,"o":"m 683 590 l 913 754 q 928 736 920 745 q 945 718 936 727 q 991 647 970 687 q 1013 556 1013 606 l 1013 545 q 1012 534 1013 541 l 1012 120 q 989 11 1012 86 q 878 -145 967 -62 q 766 -228 833 -187 q 606 -305 699 -269 l 595 -284 q 726 -208 683 -254 q 785 -114 769 -162 q 801 -37 799 -75 q 804 29 804 0 l 804 523 q 792 577 802 552 q 759 602 783 602 q 726 592 745 602 q 683 556 708 581 l 683 197 q 696 149 683 163 q 733 136 710 136 q 746 137 739 136 l 760 140 l 760 120 q 693 79 726 102 q 632 31 660 55 q 607 10 620 20 q 585 -11 595 0 q 505 60 552 27 q 410 119 459 94 l 410 141 q 416 140 413 140 l 434 140 q 463 148 451 138 q 476 195 476 158 l 476 711 q 471 752 476 729 q 459 801 466 776 q 428 873 446 838 q 417 891 423 883 q 384 783 412 815 q 310 744 351 745 l 300 744 q 257 752 278 744 q 220 769 237 759 q 206 778 212 773 q 196 786 200 783 q 168 809 181 801 q 144 816 155 816 q 128 811 134 816 q 123 794 123 805 q 127 771 123 784 q 141 741 131 758 q 244 669 171 690 q 338 547 317 648 q 326 371 338 490 q 298 122 314 252 q 280 1 289 60 q 262 -111 271 -58 q 239 -236 250 -182 q 217 -317 227 -290 l 196 -317 q 177 -206 188 -275 q 153 -55 166 -137 q 141 28 148 -14 q 130 113 135 70 q 106 332 116 226 q 96 506 96 438 l 96 527 q 98 545 96 537 l 21 547 l 21 567 q 84 605 66 573 q 102 690 102 637 q 101 720 102 704 q 98 752 100 736 q 96 777 96 765 l 96 800 q 130 949 95 909 q 209 988 166 988 q 263 977 237 990 q 305 950 289 965 q 346 913 330 926 q 371 901 362 901 q 388 923 385 900 q 389 926 388 925 l 388 927 l 389 931 q 392 994 392 954 l 414 995 q 417 959 417 976 q 419 929 419 944 q 453 879 439 904 q 476 829 469 851 q 556 944 496 905 q 684 997 616 983 q 735 1004 710 1002 q 784 1007 760 1007 q 812 1006 799 1007 q 837 1004 826 1005 l 837 984 q 817 982 827 983 q 797 980 808 981 q 718 952 753 974 q 683 884 683 930 l 683 590 "},"G":{"x_min":43,"x_max":1175,"ha":1225,"o":"m 743 558 q 777 569 761 561 q 808 588 793 577 q 835 610 821 598 q 864 633 849 622 q 878 647 874 640 q 880 661 882 654 q 866 683 878 672 q 840 708 854 694 q 830 719 836 713 q 821 731 825 724 q 805 759 812 742 q 799 797 799 776 q 811 845 799 819 q 857 898 823 872 q 939 947 887 923 q 1072 995 991 972 l 1072 974 q 1031 956 1048 964 q 1001 939 1013 947 q 983 902 977 919 q 1027 874 988 885 q 1077 838 1055 865 q 1100 774 1100 810 q 1098 756 1100 765 q 1094 739 1097 747 q 1049 681 1083 708 q 951 633 1016 653 q 1120 543 1065 611 q 1175 389 1175 475 q 1172 349 1175 369 q 1163 308 1169 329 q 995 82 1129 185 q 640 -22 861 -20 l 623 -22 q 254 82 379 -16 q 83 301 130 182 q 52 410 61 357 q 43 508 43 463 l 43 534 q 161 843 58 736 q 386 981 265 951 q 435 990 411 987 q 483 993 459 993 q 593 976 543 993 q 677 927 644 959 l 699 942 q 722 955 711 949 l 724 956 q 744 968 734 962 q 765 983 754 974 l 765 962 q 741 945 752 952 q 720 931 730 938 q 704 920 712 926 q 688 906 697 913 q 729 865 713 890 q 754 808 745 840 l 733 809 q 731 813 731 811 q 729 819 730 816 q 704 860 720 840 q 666 895 688 880 q 634 854 644 874 q 624 815 624 834 q 636 763 624 788 q 659 711 647 737 q 663 704 661 708 q 666 698 665 701 l 743 558 m 655 917 q 641 924 651 919 q 617 934 631 929 q 574 947 598 941 q 523 954 549 954 q 506 953 515 954 q 490 951 498 952 q 377 861 429 938 q 325 584 326 784 q 325 544 325 565 q 328 501 326 523 q 416 112 336 215 q 634 10 495 10 q 843 83 790 10 q 897 337 897 156 q 886 496 897 426 q 831 566 876 566 q 802 559 819 566 q 765 534 785 551 q 801 451 790 491 q 812 373 812 411 q 756 215 813 280 q 631 137 699 151 q 616 135 624 136 q 599 134 608 134 q 579 136 590 134 q 558 140 569 137 q 470 191 501 158 q 423 261 438 225 q 407 321 411 291 q 404 370 404 351 l 426 372 q 461 246 436 290 q 515 186 486 202 q 534 177 524 180 q 554 175 544 175 q 594 189 577 175 q 611 227 611 204 q 606 254 611 240 q 590 283 601 268 q 578 299 584 291 q 566 315 572 306 q 522 381 544 347 q 481 451 499 416 q 445 536 459 494 q 430 617 430 579 q 432 642 430 630 q 437 665 434 654 q 488 761 452 715 q 563 844 523 808 q 612 885 588 867 q 655 916 635 904 l 655 917 "},"`":{"x_min":8.328125,"x_max":284.75,"ha":492,"o":"m 262 765 q 234 774 248 769 q 206 784 220 778 q 191 791 200 788 q 176 796 183 794 q 91 833 129 816 q 43 862 54 851 q 16 894 25 878 q 8 924 8 910 q 33 971 8 952 q 88 990 58 990 l 94 990 q 102 989 98 990 q 122 983 112 987 q 141 972 133 979 q 188 918 161 959 q 247 829 216 876 q 265 801 256 815 q 284 774 275 787 l 262 765 "},"·":{"x_min":93,"x_max":361,"ha":624,"o":"m 229 492 q 323 452 290 490 q 361 368 356 414 l 361 359 q 329 276 361 314 q 229 239 297 239 q 127 276 161 239 q 93 361 94 313 l 93 365 q 129 451 94 412 q 229 490 163 490 l 229 492 "},"¿":{"x_min":41.421875,"x_max":593,"ha":613,"o":"m 163 208 q 162 221 162 214 l 162 233 q 200 355 162 316 q 287 396 239 394 l 291 396 q 376 363 338 396 q 415 272 415 330 l 415 262 q 393 167 415 214 q 344 76 371 121 q 296 -9 318 32 q 273 -91 273 -51 q 286 -144 273 -119 q 327 -197 298 -170 q 361 -216 343 -210 q 398 -222 380 -222 q 458 -209 430 -222 q 499 -181 487 -196 q 504 -174 502 -177 q 506 -166 506 -170 q 495 -150 506 -156 q 459 -141 484 -144 q 393 -112 415 -137 q 371 -56 371 -87 l 371 -49 q 402 13 373 -14 q 480 42 430 42 q 565 10 537 42 q 593 -64 593 -20 q 590 -87 593 -75 q 586 -110 588 -98 q 506 -214 567 -167 q 338 -262 445 -262 q 118 -200 188 -262 q 41 -63 48 -138 l 41 -48 q 47 -1 41 -24 q 65 41 53 21 q 126 105 85 80 q 210 150 166 129 q 218 153 215 151 q 226 157 221 155 q 327 215 283 183 q 372 304 372 247 q 346 351 372 332 q 289 371 321 371 l 278 371 q 214 330 244 366 q 185 207 185 293 l 163 208 m 315 743 q 351 661 324 693 q 436 622 379 630 l 436 590 q 356 539 388 572 q 315 458 324 506 l 283 459 q 254 522 278 492 q 203 570 231 552 q 182 581 192 577 q 163 588 172 586 l 163 623 q 243 657 219 630 q 283 741 267 684 l 315 743 "},"":{"x_min":11.375,"x_max":1060.625,"ha":1050,"o":"m 503 754 q 592 702 551 740 q 638 623 632 665 q 639 618 639 621 l 639 607 q 637 601 639 604 q 636 594 637 597 q 634 589 636 591 l 863 754 q 864 750 864 751 l 910 705 q 965 659 935 682 q 1038 622 995 637 l 1038 601 q 1027 602 1032 601 q 1017 602 1023 602 q 977 586 993 602 q 962 534 962 569 l 962 223 q 969 174 962 197 q 1000 151 977 151 q 1026 156 1012 151 q 1060 173 1041 161 l 1060 152 l 863 -11 q 772 76 790 36 q 754 140 754 116 l 754 547 q 745 592 754 579 q 722 605 737 605 q 701 600 712 605 q 679 587 690 595 q 668 581 673 584 q 659 575 664 577 q 646 565 652 569 q 635 557 640 561 l 635 212 q 644 155 635 182 q 678 129 654 129 l 678 109 q 649 102 665 108 q 618 84 633 95 q 572 41 594 66 q 536 -11 550 16 q 501 37 519 15 q 462 75 482 59 q 420 100 440 91 q 383 108 400 108 l 383 130 q 430 155 422 129 q 438 212 438 182 l 438 536 q 429 589 438 575 q 406 604 421 604 q 379 597 394 604 q 348 582 364 590 q 345 580 347 580 q 342 579 343 579 q 330 572 336 575 q 317 566 323 569 l 317 208 q 326 155 317 173 q 361 129 336 137 l 361 109 q 281 72 319 108 q 218 -11 243 36 q 198 9 208 -1 l 179 32 q 121 84 153 61 q 43 108 89 108 l 43 130 q 92 141 72 129 q 113 197 111 152 q 112 211 113 204 q 110 227 111 219 l 110 525 q 99 578 110 561 q 73 595 89 595 q 49 588 62 595 q 22 566 36 580 l 11 590 l 186 754 q 207 742 195 748 q 230 727 219 736 q 281 681 256 708 q 313 625 305 654 q 317 612 316 618 q 318 601 318 607 l 318 594 q 317 590 318 593 l 503 754 m 102 954 l 965 954 l 965 872 l 102 872 l 102 954 "},"ý":{"x_min":35,"x_max":656,"ha":712,"o":"m 121 558 q 56 600 78 566 q 35 677 35 634 q 35 694 35 686 q 37 712 36 702 q 99 820 48 770 q 240 873 150 869 l 240 852 q 170 823 193 840 q 146 789 147 807 q 170 751 146 769 q 240 720 194 733 q 289 689 271 712 q 315 640 307 666 q 325 598 322 618 q 328 566 328 577 l 547 722 q 603 664 580 695 q 639 600 626 633 q 651 554 647 577 q 656 512 656 532 l 656 152 q 553 -123 649 -11 q 251 -317 457 -236 l 251 -296 q 254 -294 253 -294 q 257 -293 255 -293 q 401 -165 353 -235 q 449 31 449 -96 l 449 502 q 438 557 449 538 q 407 576 428 576 q 373 565 393 576 q 328 534 353 555 l 328 208 q 341 162 328 173 q 372 151 354 151 l 382 151 q 402 154 391 151 q 419 159 412 156 l 423 161 q 426 162 425 162 l 426 141 q 357 100 392 129 q 287 38 322 72 q 259 13 273 26 q 229 -11 244 0 q 212 2 221 -4 q 196 17 203 9 q 169 42 182 30 q 144 66 157 55 q 102 100 123 86 q 54 119 80 115 l 54 141 q 100 155 79 140 q 121 195 121 170 l 121 558 m 219 776 q 235 804 226 789 q 254 836 244 819 q 268 858 261 847 q 284 880 276 869 q 320 927 302 905 q 350 961 337 948 q 383 985 366 978 q 415 992 400 992 q 469 971 447 993 q 491 921 491 948 q 484 890 491 905 q 459 862 476 875 q 436 846 448 854 q 408 830 423 839 q 336 801 379 816 q 230 764 294 786 l 219 776 "},"ſ":{"x_min":21.984375,"x_max":419,"ha":377,"o":"m 21 547 l 21 568 q 84 605 66 573 q 103 690 103 637 q 102 720 103 704 q 98 752 101 736 q 97 777 97 765 l 97 800 q 131 949 95 909 q 209 989 166 989 q 263 977 237 990 q 305 950 290 965 q 346 914 330 926 q 371 901 362 901 q 389 923 385 900 q 392 994 392 947 l 415 996 q 418 959 417 976 q 419 927 419 943 q 384 784 419 822 q 310 744 350 745 l 301 744 q 258 752 278 744 q 220 769 237 759 q 206 778 212 773 q 196 786 201 783 q 168 809 181 801 q 144 816 155 816 q 128 811 134 816 q 123 794 123 805 q 127 771 123 784 q 141 741 131 758 q 244 669 171 690 q 338 547 317 648 q 326 371 338 490 q 298 122 314 252 q 280 1 289 60 q 262 -111 271 -58 q 239 -236 251 -182 q 217 -317 227 -290 l 196 -317 q 177 -206 188 -275 q 153 -55 166 -137 q 142 28 148 -14 q 130 113 135 70 q 106 332 116 226 q 97 506 97 438 l 97 527 q 98 545 97 537 l 21 547 "},"º":{"x_min":22,"x_max":447.9375,"ha":448,"o":"m 240 589 l 109 503 l 101 505 q 92 510 96 507 q 47 544 66 523 q 22 622 28 565 l 22 809 q 41 849 26 836 q 83 872 56 862 q 157 900 112 884 q 262 950 202 915 q 276 937 267 944 q 294 923 284 930 q 319 906 306 915 q 348 891 333 898 q 381 877 364 883 q 412 872 398 872 l 419 872 q 426 873 423 872 l 426 852 q 392 836 401 851 q 383 797 383 820 l 383 634 q 389 606 383 617 q 406 594 395 595 q 420 597 413 594 q 436 610 427 601 l 447 589 q 415 567 428 577 q 391 548 402 557 l 388 545 l 387 545 q 362 523 375 534 q 327 501 348 513 q 317 507 321 503 q 309 513 313 510 l 287 530 q 264 553 276 539 q 240 588 253 566 l 240 589 m 240 623 l 240 830 q 214 840 224 834 q 196 854 204 845 q 185 862 190 858 l 175 873 l 175 634 q 184 591 175 608 q 217 599 194 574 l 240 623 "},"ź":{"x_min":-7,"x_max":512,"ha":536,"o":"m 42 547 l 295 733 q 380 649 344 695 q 422 554 416 602 q 423 545 423 550 l 423 538 q 386 449 423 493 q 262 370 349 405 q 310 363 287 370 q 349 348 332 356 q 412 378 374 365 q 491 391 450 391 l 491 372 q 473 365 482 368 q 455 361 464 363 q 406 347 430 355 q 371 326 382 338 q 477 199 443 276 q 512 41 510 123 l 512 33 q 430 -203 509 -94 q 217 -317 352 -311 l 208 -317 q 47 -239 102 -317 q -7 -59 -7 -162 q -5 -27 -7 -43 q -1 4 -4 -11 q 72 179 12 95 q 239 304 131 262 q 212 315 224 312 q 188 319 199 319 q 154 309 167 319 q 130 287 141 298 q 114 272 121 279 q 98 261 106 265 q 89 257 94 259 q 81 255 85 255 q 77 254 78 254 l 73 254 q 51 263 59 254 q 42 284 42 272 q 43 290 42 287 q 45 298 44 294 q 66 322 51 311 q 109 337 81 334 q 204 381 176 348 q 233 451 233 413 q 205 524 233 491 q 134 558 177 556 q 96 550 116 558 q 53 523 76 541 l 42 547 m 251 284 q 128 174 170 255 q 76 2 87 94 q 73 -26 74 -11 q 72 -57 72 -41 q 103 -223 72 -151 q 192 -295 135 -295 l 196 -295 q 272 -209 250 -295 q 294 -15 294 -122 l 294 -1 q 280 179 292 95 q 251 283 267 263 l 251 284 m 131 776 q 147 804 138 789 q 166 836 156 819 q 181 858 173 847 q 197 880 188 869 q 232 927 215 905 q 262 961 250 948 q 295 985 279 978 q 327 992 312 992 q 381 971 359 993 q 404 921 404 948 q 396 890 404 905 q 372 862 388 875 q 348 846 361 854 q 320 830 336 839 q 249 801 291 816 q 143 764 206 786 l 131 776 "},"ű":{"x_min":0.265625,"x_max":743.34375,"ha":743,"o":"m 22 547 l 0 568 l 208 733 q 269 689 240 725 q 310 611 297 653 q 314 589 312 600 q 317 566 317 578 l 317 186 q 331 137 319 150 q 357 123 343 123 q 371 126 364 123 q 387 133 379 129 q 403 143 396 137 q 419 157 411 150 q 429 165 425 161 l 438 173 l 438 514 q 429 571 438 553 q 404 589 421 589 l 404 612 q 460 640 435 616 q 505 691 485 664 q 521 712 514 703 q 536 732 529 722 q 558 707 546 722 q 586 679 571 693 q 641 636 610 655 q 711 611 672 616 l 711 590 q 656 572 678 589 q 635 523 635 555 l 635 197 q 649 152 635 169 q 683 134 664 134 q 708 141 696 134 q 733 162 721 148 l 743 141 l 558 -22 q 460 51 485 16 q 435 115 435 86 q 435 128 435 122 q 438 140 436 134 l 208 -22 q 134 55 175 18 q 43 108 93 91 l 43 130 q 97 147 85 129 q 110 207 110 165 l 110 491 q 98 550 110 525 q 68 575 87 575 q 46 568 58 575 q 22 546 34 561 l 22 547 m 111 773 q 126 801 117 786 q 145 833 136 816 q 160 855 152 844 q 176 877 168 866 q 211 924 194 902 q 241 958 229 945 q 275 982 258 975 q 307 989 291 989 q 361 968 338 990 q 383 918 383 945 q 375 887 383 902 q 351 859 368 872 q 327 843 340 851 q 300 827 315 836 q 228 798 270 813 q 122 761 186 783 l 111 773 m 358 773 q 374 801 365 786 q 393 833 383 816 q 408 855 400 844 q 424 877 415 866 q 459 924 442 902 q 489 958 476 945 q 522 982 505 975 q 554 989 539 989 q 608 968 586 990 q 631 918 631 945 q 623 887 631 902 q 599 859 615 872 q 575 843 587 851 q 547 827 562 836 q 476 798 518 813 q 369 761 433 783 l 358 773 "},"ń":{"x_min":23.046875,"x_max":765.34375,"ha":744,"o":"m 339 579 l 568 743 q 592 717 579 730 q 617 690 604 704 q 674 640 643 664 q 743 611 706 616 l 743 590 q 679 573 703 589 q 656 501 656 558 l 656 207 q 657 197 656 202 q 667 159 658 176 q 698 141 676 143 q 722 146 709 141 q 754 162 736 151 l 765 152 l 558 -22 q 467 78 485 33 q 449 162 449 122 l 449 525 q 439 573 449 559 q 414 587 429 587 q 394 583 404 587 q 372 572 383 579 q 355 559 364 566 l 339 546 l 339 183 q 340 171 339 178 q 348 146 341 158 q 371 129 355 134 l 371 109 q 299 75 338 100 q 218 -22 259 50 q 182 30 208 5 q 128 75 157 55 q 87 96 107 87 q 54 108 68 105 l 54 130 q 109 143 87 129 q 131 207 131 157 l 131 502 q 130 513 131 507 q 130 526 130 519 q 116 561 125 546 q 91 577 107 577 q 66 571 80 579 q 34 546 52 564 l 23 568 l 208 743 q 305 672 273 709 q 339 579 337 634 m 303 773 q 319 801 310 786 q 338 833 328 816 q 352 855 344 844 q 368 877 360 866 q 403 924 386 902 q 433 958 421 945 q 467 982 450 975 q 499 989 483 989 q 553 968 531 990 q 575 918 575 945 q 567 887 575 902 q 543 859 560 872 q 519 843 532 851 q 492 827 507 836 q 420 798 463 813 q 314 761 378 783 l 303 773 "},";":{"x_min":76.390625,"x_max":361.140625,"ha":449,"o":"m 76 108 l 76 141 q 141 169 111 146 q 188 221 172 193 q 200 241 195 232 q 208 261 205 251 l 240 262 q 280 189 248 221 q 361 140 312 157 l 361 109 q 356 106 358 107 q 351 105 354 105 q 305 72 329 97 q 251 -33 281 47 q 238 -69 244 -52 q 225 -102 231 -87 q 176 -200 204 -159 q 94 -279 148 -241 q 90 -282 93 -280 q 87 -285 88 -283 l 87 -251 q 144 -196 123 -230 q 175 -124 165 -162 q 184 -81 181 -102 q 186 -42 186 -60 q 184 -21 186 -31 q 180 0 183 -10 q 149 60 173 30 q 76 108 125 90 m 229 722 q 265 639 237 670 q 350 599 293 608 l 350 567 q 269 517 301 551 q 229 435 237 484 l 197 437 q 168 500 191 470 q 116 548 144 530 q 95 560 105 555 q 76 566 86 565 l 76 601 q 156 635 133 608 q 197 720 180 663 l 229 722 "},"6":{"x_min":43,"x_max":810,"ha":842,"o":"m 350 480 q 420 557 373 532 q 523 583 468 583 q 546 582 534 583 q 569 579 558 582 q 734 492 659 564 q 810 304 810 421 q 807 266 810 286 q 800 227 805 247 q 700 73 780 144 q 448 -11 620 1 l 433 -11 q 156 134 259 -12 q 44 457 53 280 q 43 474 43 465 l 43 490 q 157 803 47 690 q 399 946 267 915 q 449 956 424 953 q 498 959 474 959 q 665 915 592 959 q 754 786 738 872 l 754 782 q 755 778 754 781 l 755 769 q 718 691 755 715 q 634 667 681 667 l 620 667 q 530 698 571 671 q 490 772 490 725 l 490 775 q 491 779 490 778 l 491 786 q 506 813 493 801 q 534 835 520 825 q 541 839 538 837 q 547 844 545 842 q 569 862 560 853 q 578 882 578 871 q 576 894 578 887 q 567 907 574 900 q 544 921 561 915 q 503 928 527 928 q 484 926 493 928 l 464 923 q 402 891 431 915 q 361 819 373 867 q 350 734 355 779 q 346 621 346 689 q 347 555 346 590 q 350 479 348 521 l 350 480 m 514 470 q 495 520 514 498 q 452 541 477 541 q 442 541 447 541 q 432 537 437 540 q 393 503 412 530 q 361 425 373 476 q 355 361 357 400 q 353 280 353 322 l 353 262 q 355 171 353 213 q 361 108 357 129 q 388 47 365 70 q 438 19 411 23 l 447 19 q 490 38 470 19 q 514 97 509 56 q 520 177 518 129 q 522 277 522 226 q 520 384 522 333 q 514 469 518 436 l 514 470 "},"n":{"x_min":23.046875,"x_max":765.34375,"ha":744,"o":"m 339 579 l 568 743 q 592 717 579 730 q 617 690 604 704 q 674 640 643 663 q 743 611 706 616 l 743 590 q 679 573 703 588 q 656 501 656 558 l 656 207 q 657 197 656 202 q 667 159 658 176 q 698 141 676 143 q 722 146 709 141 q 754 162 736 151 l 765 152 l 558 -22 q 467 78 485 33 q 449 162 449 122 l 449 525 q 439 573 449 559 q 414 587 429 587 q 394 583 404 587 q 372 572 383 579 q 355 559 364 566 l 339 546 l 339 183 q 340 171 339 178 q 348 146 341 158 q 371 129 355 134 l 371 109 q 299 75 338 100 q 218 -22 259 50 q 182 30 208 5 q 128 75 157 55 q 87 96 107 87 q 54 108 68 105 l 54 130 q 109 143 87 129 q 131 207 131 157 l 131 502 q 130 513 131 506 q 130 526 130 519 q 116 561 125 545 q 91 577 107 577 q 66 571 80 579 q 34 545 52 563 l 23 568 l 208 743 q 305 672 273 709 q 339 579 337 634 "},"":{"x_min":21.984375,"x_max":750.390625,"ha":759,"o":"m 303 -251 q 417 -232 376 -251 q 467 -98 458 -214 l 467 513 q 464 547 467 533 l 339 547 q 327 371 339 490 q 298 121 315 252 q 281 1 290 60 q 262 -111 272 -58 q 239 -236 251 -182 q 218 -317 227 -290 l 197 -317 q 177 -206 188 -275 q 154 -55 166 -137 q 142 28 148 -14 q 130 113 135 70 q 106 332 116 226 q 97 507 97 439 l 97 527 q 98 546 97 537 l 21 547 l 21 568 q 84 605 66 573 q 103 690 103 637 q 102 720 103 704 q 98 752 101 736 q 97 777 97 765 l 97 800 q 131 949 95 909 q 209 989 166 989 q 263 977 237 990 q 305 950 290 965 q 346 914 330 926 q 371 901 362 901 q 389 923 385 900 q 392 994 392 947 l 415 996 q 418 959 417 976 q 419 927 419 943 q 384 783 419 822 q 310 744 350 745 l 300 744 q 257 751 278 744 q 220 769 237 759 q 206 778 212 773 q 196 785 200 783 q 168 808 181 801 q 143 816 155 816 q 128 810 134 816 q 123 794 123 805 q 127 771 123 784 q 141 741 131 758 q 243 657 171 689 q 396 630 316 625 q 492 666 430 625 q 505 675 499 670 q 529 698 517 686 q 552 719 541 709 q 575 741 563 730 q 586 724 580 732 q 601 706 593 716 q 638 672 618 689 q 678 641 658 655 q 716 616 697 627 q 750 599 735 606 l 750 578 q 738 580 744 580 q 725 581 732 581 q 688 564 703 581 q 674 500 674 546 l 674 33 q 687 -63 679 -21 q 714 -147 696 -105 q 730 -177 721 -161 q 750 -208 739 -193 l 729 -218 q 708 -187 717 -201 q 692 -158 699 -172 q 687 -149 689 -154 q 682 -139 685 -144 q 672 -119 678 -129 l 662 -98 q 582 -219 646 -180 q 443 -269 518 -258 q 399 -275 421 -273 q 357 -276 378 -276 q 330 -275 343 -276 q 304 -273 316 -275 l 303 -251 m 554 765 q 526 790 539 776 q 503 817 513 803 q 479 860 488 839 q 470 903 470 882 q 497 965 470 939 q 575 995 524 990 q 642 965 611 995 q 673 896 673 936 q 669 870 673 883 q 657 844 666 857 q 620 803 645 824 q 554 764 595 782 l 554 765 "},"¤":{"x_min":121,"x_max":777.109375,"ha":898,"o":"m 208 799 l 273 733 q 343 771 305 757 q 419 792 380 786 q 437 792 429 792 q 454 793 446 793 q 549 777 504 793 q 624 731 595 761 l 689 799 l 777 711 l 711 646 q 750 578 735 626 q 766 469 766 529 q 765 445 766 457 q 763 421 764 433 q 746 348 758 385 q 711 283 733 312 l 776 218 l 689 142 l 624 208 q 551 166 594 180 q 460 149 507 151 l 442 148 q 344 162 390 148 q 273 206 298 177 l 197 142 l 121 229 l 185 285 q 165 317 174 300 q 149 350 156 333 q 133 405 138 378 q 129 460 129 433 q 140 547 129 507 q 165 612 151 587 q 176 632 170 623 q 185 644 181 640 l 121 711 l 208 799 m 460 634 q 457 633 458 633 l 448 633 q 326 582 366 633 q 285 470 286 531 q 326 356 285 408 q 448 304 368 304 q 569 356 528 304 q 610 470 610 408 l 610 474 q 571 580 608 531 q 460 633 535 628 l 460 634 "},"p":{"x_min":29,"x_max":689,"ha":743,"o":"m 349 590 l 590 742 q 648 677 625 717 q 680 592 670 637 q 686 557 684 574 q 689 523 689 540 l 689 228 q 661 165 689 187 q 597 123 634 142 q 578 114 587 119 q 559 103 569 109 q 486 55 520 84 q 437 -22 451 26 q 389 17 412 1 q 350 41 366 34 q 339 -28 347 10 q 322 -107 331 -66 q 312 -148 318 -128 q 302 -187 307 -168 q 280 -265 291 -230 q 262 -317 269 -300 l 240 -317 q 186 -74 208 -186 q 164 119 164 37 q 142 136 157 128 q 108 145 126 144 l 103 145 q 68 133 83 145 q 52 90 53 122 q 52 77 52 84 q 54 63 53 70 l 33 65 q 30 92 31 78 q 29 117 29 105 q 65 243 29 199 q 153 294 102 287 l 153 558 q 79 617 103 579 q 56 699 56 656 l 56 708 q 106 822 58 770 q 238 875 154 875 l 250 875 q 263 874 257 875 l 263 853 l 246 853 q 189 839 215 853 q 163 807 163 826 q 164 798 163 803 q 169 789 165 793 q 191 770 176 779 q 229 752 205 761 q 253 745 239 750 q 284 730 268 740 q 330 688 309 716 q 351 609 351 661 l 351 599 q 349 594 349 597 l 349 590 m 372 237 q 397 223 384 230 q 443 190 421 208 q 481 151 465 173 l 481 513 q 466 570 481 549 q 428 592 451 591 q 391 581 411 592 q 350 545 370 569 l 350 251 q 372 237 361 244 "},"‡":{"x_min":59.53125,"x_max":785.640625,"ha":842,"o":"m 404 612 q 398 648 404 630 q 384 683 392 666 q 370 711 377 697 q 354 740 362 725 q 323 804 337 769 q 306 884 310 838 l 306 891 q 339 964 304 935 q 416 997 374 992 q 421 999 419 999 l 427 999 q 496 975 464 999 q 535 896 528 951 l 535 892 q 537 889 535 890 l 537 882 q 523 819 537 850 q 492 756 509 788 q 489 751 491 754 q 487 747 488 749 q 452 681 468 714 q 437 611 437 647 q 450 609 443 610 q 462 609 456 609 q 494 613 478 609 q 525 625 510 618 q 546 636 535 631 q 566 647 556 642 q 622 675 592 663 q 688 688 652 688 q 759 655 735 688 q 785 582 784 622 l 785 578 q 757 504 784 538 q 677 470 731 470 l 666 470 q 629 476 646 470 q 595 494 612 483 q 580 503 588 499 q 566 514 573 508 q 513 543 541 529 q 452 557 485 557 l 437 557 l 437 550 q 436 547 436 548 l 436 543 q 459 466 436 504 q 511 395 483 427 q 542 364 527 379 q 567 337 556 348 q 540 309 558 327 q 505 265 523 290 q 483 236 494 251 q 463 207 473 222 q 442 165 451 186 q 434 126 434 144 q 434 116 434 121 q 437 108 435 112 q 484 116 463 108 q 527 136 506 125 q 542 144 535 140 q 557 152 549 148 q 610 179 581 166 q 677 196 639 191 l 684 196 q 745 164 724 197 q 767 91 766 130 l 767 87 q 748 12 768 46 q 685 -22 727 -22 l 677 -22 q 618 -6 646 -19 q 563 21 589 5 q 507 52 534 37 q 457 66 481 66 l 446 66 q 437 64 442 66 q 450 -19 437 15 q 481 -84 464 -53 q 485 -93 483 -88 q 490 -102 488 -98 q 514 -156 504 -128 q 525 -217 525 -183 q 491 -293 525 -266 q 415 -322 457 -320 q 346 -297 378 -322 q 306 -217 314 -272 l 306 -205 q 307 -186 306 -195 q 311 -167 308 -177 q 329 -121 317 -145 q 355 -72 341 -97 q 386 -8 372 -41 q 404 64 399 25 q 393 68 398 66 q 381 69 388 69 q 335 55 360 69 q 280 23 309 40 q 251 6 266 14 q 220 -8 235 -1 q 191 -18 205 -15 q 163 -22 177 -22 q 89 11 115 -22 q 59 86 63 44 l 59 93 q 82 164 59 133 q 152 196 105 196 q 224 182 191 196 q 285 151 256 168 q 324 129 305 140 q 360 112 342 118 q 375 108 367 109 q 391 107 383 107 l 394 107 q 398 108 395 107 l 404 108 q 383 191 404 154 q 337 259 362 229 q 298 304 316 284 q 273 337 280 323 q 288 355 280 346 q 305 372 297 364 q 308 376 306 375 l 312 380 q 375 459 347 418 q 404 557 404 500 q 397 559 401 558 q 388 560 392 560 q 336 546 366 560 q 276 515 306 532 q 215 483 245 497 q 163 470 185 470 q 88 501 112 470 q 65 571 65 532 l 65 578 q 92 653 67 619 q 163 688 117 688 q 228 675 202 688 q 278 649 255 662 q 282 646 280 647 q 285 644 284 646 q 329 621 306 632 q 384 610 352 610 l 392 610 q 404 611 398 610 l 404 612 "},"ň":{"x_min":23.046875,"x_max":765.34375,"ha":744,"o":"m 339 579 l 568 743 q 592 717 579 730 q 617 690 604 704 q 674 640 643 664 q 743 611 706 616 l 743 590 q 679 573 703 589 q 656 501 656 558 l 656 207 q 657 197 656 203 q 667 159 658 176 q 698 141 676 143 q 722 146 709 141 q 754 162 736 151 l 765 153 l 558 -22 q 467 78 485 33 q 449 162 449 122 l 449 525 q 439 573 449 559 q 414 587 429 587 q 394 583 404 587 q 372 572 383 579 q 355 559 364 566 l 339 546 l 339 183 q 340 171 339 178 q 348 146 341 158 q 371 129 355 134 l 371 109 q 299 75 338 100 q 218 -22 259 50 q 182 30 208 5 q 128 75 157 55 q 87 96 107 87 q 54 108 68 105 l 54 130 q 109 143 87 129 q 131 207 131 157 l 131 503 q 130 513 131 507 q 130 526 130 519 q 116 562 125 546 q 91 578 107 578 q 66 571 80 579 q 34 546 52 564 l 23 568 l 208 743 q 305 672 273 710 q 339 579 337 634 m 565 945 q 537 918 552 934 q 505 884 522 902 l 502 882 l 502 880 q 452 825 475 850 q 423 794 429 800 q 394 772 408 779 q 369 765 380 765 q 340 772 354 765 q 313 794 327 780 l 172 945 q 161 961 165 954 q 156 975 158 968 q 165 987 156 984 q 193 980 173 990 l 368 902 l 531 968 q 556 982 545 977 q 572 986 566 986 q 582 975 584 986 q 565 947 580 963 l 565 945 "},"ę":{"x_min":50,"x_max":579.046875,"ha":590,"o":"m 540 -222 l 548 -239 q 356 -242 437 -265 q 247 -170 276 -219 q 244 -168 245 -169 l 242 -166 q 242 -61 216 -119 q 291 -2 256 -30 q 137 92 187 34 q 63 227 81 158 q 57 255 59 241 q 54 283 55 269 q 51 326 52 304 q 50 372 50 348 l 50 390 q 51 409 50 399 q 78 542 54 479 q 163 633 102 605 l 415 743 l 567 502 l 262 305 q 329 192 287 227 q 416 154 370 158 q 423 152 420 152 l 431 152 q 506 170 470 152 q 567 216 542 187 l 579 197 q 534 158 556 176 q 488 122 512 140 q 398 54 442 87 l 374 36 l 380 30 q 337 -35 337 5 q 362 -116 337 -76 q 365 -120 363 -118 q 367 -125 366 -123 q 449 -201 399 -170 q 538 -223 498 -232 l 540 -222 m 251 645 l 251 338 l 392 426 l 251 645 "},"S":{"x_min":49,"x_max":1039.1875,"ha":1072,"o":"m 1039 917 q 927 727 991 777 q 786 677 862 677 q 680 692 735 677 q 571 727 625 707 l 562 730 q 555 733 558 731 q 439 771 497 754 q 329 789 382 789 q 201 747 261 790 q 98 588 141 704 q 83 535 89 562 q 78 485 78 509 q 188 294 78 361 q 437 227 298 227 q 844 279 699 227 q 990 413 990 332 q 980 456 990 433 q 951 500 970 478 q 927 520 940 514 q 899 527 915 527 q 816 493 862 527 q 712 419 770 459 q 588 344 656 378 q 440 311 520 311 q 391 314 416 311 q 338 326 365 317 q 228 401 270 348 q 175 513 186 453 q 171 533 172 523 q 171 552 171 542 q 211 662 171 614 q 337 709 251 709 q 407 701 369 709 q 491 676 445 694 l 480 655 q 415 676 445 669 q 359 683 384 683 q 264 648 295 683 q 229 571 233 613 q 228 564 228 568 l 228 557 q 243 495 226 522 q 291 468 261 468 q 324 475 307 468 q 361 500 341 482 q 522 597 426 554 q 722 641 619 639 l 735 641 q 752 640 744 641 q 842 621 798 637 q 928 577 887 606 q 1001 490 976 542 q 1026 376 1026 437 q 1023 338 1026 358 q 1016 299 1021 319 q 867 89 987 186 q 524 -22 748 -8 l 512 -23 q 501 -24 506 -23 q 179 132 298 -24 q 50 478 61 289 q 49 496 49 488 l 49 516 q 157 839 49 695 q 503 983 265 983 q 644 961 580 983 q 761 913 708 939 q 855 865 814 887 q 930 844 897 844 q 978 860 957 844 q 1016 916 998 876 l 1039 917 "},"/":{"x_min":-22.21875,"x_max":372.25,"ha":350,"o":"m 262 996 l 372 996 l 87 -11 l -22 -11 l 262 996 "},"y":{"x_min":35,"x_max":656,"ha":712,"o":"m 121 558 q 56 600 78 566 q 35 678 35 634 q 35 694 35 686 q 37 712 36 703 q 99 820 48 771 q 240 874 150 869 l 240 853 q 170 823 193 840 q 146 789 147 807 q 170 751 146 769 q 240 721 194 733 q 289 689 271 712 q 315 640 307 666 q 325 598 322 618 q 328 566 328 578 l 547 722 q 603 664 580 696 q 639 600 626 633 q 651 555 647 577 q 656 512 656 532 l 656 152 q 553 -123 649 -11 q 251 -317 457 -236 l 251 -296 q 254 -294 253 -294 q 257 -293 255 -293 q 401 -165 353 -235 q 449 31 449 -96 l 449 502 q 438 557 449 538 q 407 576 428 576 q 373 565 393 576 q 328 534 353 555 l 328 208 q 341 162 328 173 q 372 151 354 151 l 382 151 q 402 154 391 151 q 419 159 412 156 l 423 161 q 426 162 425 162 l 426 141 q 357 100 392 129 q 287 38 322 72 q 259 13 273 26 q 229 -11 244 0 q 212 2 221 -4 q 196 18 203 9 q 169 43 182 30 q 144 66 157 55 q 102 100 123 86 q 54 119 80 115 l 54 141 q 100 155 79 140 q 121 195 121 170 l 121 558 "},"g":{"x_min":54,"x_max":669,"ha":688,"o":"m 392 733 q 421 702 403 720 q 466 664 439 684 q 550 615 500 638 q 666 588 600 592 l 666 567 q 612 554 634 566 q 590 501 590 542 l 590 120 q 600 79 590 95 q 623 48 610 63 q 625 45 624 46 q 627 42 626 44 q 636 31 631 37 q 645 20 641 26 q 662 -18 656 3 q 669 -66 669 -40 q 666 -100 669 -83 q 657 -134 663 -118 q 557 -267 635 -207 q 327 -328 480 -328 l 305 -328 q 142 -290 194 -328 q 83 -209 91 -253 q 82 -201 83 -205 q 82 -192 82 -196 q 111 -119 82 -151 q 187 -87 140 -87 l 197 -87 q 273 -119 242 -92 q 304 -180 304 -145 q 303 -189 304 -184 q 301 -198 302 -194 q 275 -239 295 -219 q 217 -273 255 -259 l 217 -274 q 237 -291 216 -285 q 288 -297 258 -297 q 321 -295 304 -297 q 355 -291 338 -294 q 443 -262 402 -283 q 491 -208 484 -242 q 495 -185 494 -197 q 497 -165 497 -174 q 485 -110 497 -133 q 459 -67 474 -88 q 450 -54 455 -61 q 440 -41 445 -48 q 401 25 419 -12 q 383 129 383 63 q 331 92 355 109 q 285 56 308 75 q 265 42 274 50 q 245 26 255 34 q 216 3 231 15 q 185 -22 201 -8 l 183 -20 q 98 36 134 2 q 54 151 62 70 l 54 470 q 79 549 54 524 q 148 592 105 574 q 258 640 195 613 q 392 731 321 667 l 392 733 m 383 525 q 345 540 362 531 q 314 556 328 548 q 289 570 300 563 l 267 584 q 264 586 266 586 q 262 588 263 587 l 262 175 q 270 128 262 147 q 296 109 278 109 q 332 121 312 109 q 383 162 353 133 l 383 525 "},"²":{"x_min":0.390625,"x_max":460.421875,"ha":472,"o":"m 78 555 q 129 568 103 565 q 182 572 156 572 q 213 571 197 572 q 245 569 229 570 q 274 568 260 569 q 303 568 289 568 l 328 568 q 406 578 371 568 q 440 647 440 588 l 440 659 l 460 661 q 415 471 457 524 q 320 419 374 419 q 295 421 307 419 q 270 426 282 423 q 202 459 235 437 q 145 509 170 481 q 136 516 140 513 q 128 523 132 520 q 102 540 115 535 q 76 545 88 545 q 54 538 64 545 q 44 520 44 531 q 48 506 44 514 q 59 489 51 498 q 78 460 72 473 q 84 438 84 448 q 77 422 84 427 q 60 417 70 417 l 56 417 q 42 421 49 418 q 32 430 36 425 q 26 448 28 439 q 24 469 24 458 q 51 552 24 505 q 137 647 78 598 q 208 714 176 679 q 257 784 239 750 q 275 827 269 807 q 280 869 280 848 l 280 877 q 279 887 280 883 q 276 905 278 897 q 269 922 274 914 q 231 961 255 948 q 179 975 207 973 l 175 975 q 117 962 144 975 q 78 929 89 950 q 75 920 76 923 q 74 914 74 916 q 83 899 74 902 q 103 894 93 896 q 105 893 105 894 l 108 893 q 117 891 112 893 q 125 890 122 890 q 171 865 157 882 q 184 830 184 848 l 184 823 q 153 770 180 794 q 93 746 126 746 q 59 753 76 746 q 26 778 42 761 q 6 812 12 794 q 0 847 0 829 l 0 857 q 58 951 4 908 q 211 995 112 995 q 246 993 228 995 q 282 989 264 992 q 312 981 297 986 q 344 968 328 976 q 422 906 386 946 q 458 814 458 867 q 453 774 458 794 q 433 732 447 754 q 363 677 411 698 q 262 640 315 655 q 224 629 243 634 q 189 619 205 625 q 109 592 141 606 q 78 555 78 577 "},"ë":{"x_min":50,"x_max":579.046875,"ha":590,"o":"m 415 743 l 567 503 l 262 305 q 329 193 287 227 q 416 154 370 158 q 423 152 420 152 l 431 152 q 506 170 470 152 q 567 216 542 187 l 579 197 q 534 158 556 176 q 488 122 512 140 q 399 54 442 87 q 316 -11 355 20 q 138 93 194 27 q 63 227 81 158 q 57 255 59 241 q 54 283 55 269 q 51 326 52 304 q 50 372 50 348 l 50 390 q 51 409 50 400 q 78 542 54 479 q 163 633 102 605 l 415 743 m 404 799 q 354 838 374 814 q 324 888 333 863 q 319 906 320 897 q 318 924 318 915 q 338 974 318 953 q 404 995 358 995 q 480 974 456 995 q 504 924 504 953 q 502 909 504 917 q 498 893 501 901 q 465 838 490 864 q 404 797 440 811 l 404 799 m 152 799 q 88 863 108 831 q 68 922 68 896 q 92 974 66 954 q 163 995 119 995 q 228 972 204 995 q 252 918 252 950 q 249 897 252 908 q 242 876 247 886 q 210 834 232 854 q 152 797 188 814 l 152 799 m 251 646 l 251 339 l 392 426 l 251 646 "},"–":{"x_min":-11.109375,"x_max":688.9375,"ha":689,"o":"m -11 449 l 688 449 l 688 328 l -11 328 l -11 449 "},"ƒ":{"x_min":-129,"x_max":437,"ha":460,"o":"m 327 148 l 327 117 q 332 78 327 92 q 350 48 338 63 q 352 45 352 47 q 355 42 353 44 q 364 31 359 37 q 373 20 369 26 q 390 -18 384 3 q 397 -66 397 -40 q 394 -100 397 -83 q 385 -134 391 -118 q 262 -268 363 -207 q 74 -328 162 -329 q -68 -289 -16 -326 q -128 -208 -119 -252 q -128 -200 -128 -204 q -129 -191 -129 -195 q -99 -117 -129 -149 q -23 -86 -70 -86 l -13 -86 q 62 -117 31 -91 q 93 -179 93 -144 q 92 -188 93 -183 q 90 -197 91 -193 q 64 -238 84 -218 q 6 -272 44 -258 l 6 -273 q 26 -290 5 -284 q 77 -296 47 -296 q 166 -269 120 -296 q 219 -208 212 -243 q 223 -186 222 -197 q 225 -165 225 -175 q 213 -111 225 -133 q 187 -68 202 -88 q 178 -54 183 -61 q 167 -41 173 -48 q 128 24 146 -12 q 105 105 116 51 q 97 507 97 439 l 97 527 q 98 546 97 537 l 21 547 l 21 568 q 84 605 66 573 q 103 690 103 637 q 102 720 103 704 q 98 752 101 736 q 97 777 97 765 l 97 800 q 131 949 95 909 q 209 989 166 989 q 263 977 237 990 q 305 950 290 965 q 346 914 330 926 q 372 901 362 901 q 389 923 386 900 q 393 994 393 947 l 415 996 q 418 959 417 976 q 419 927 419 943 q 384 783 419 822 q 310 744 350 745 l 300 744 q 257 751 278 744 q 220 769 237 759 q 206 778 212 773 q 196 785 200 783 q 168 808 181 801 q 143 816 155 816 q 128 810 134 816 q 123 794 123 805 q 127 771 123 784 q 141 741 131 758 q 244 669 171 689 q 399 644 317 648 l 437 644 l 437 547 l 338 547 q 326 370 338 490 l 327 148 "},"":{"x_min":22.15625,"x_max":1159.78125,"ha":1160,"o":"m 365 547 l 365 567 q 427 605 409 573 q 445 690 445 637 q 445 720 445 704 q 441 752 444 736 q 440 758 441 755 q 377 719 408 723 q 308 731 347 716 q 228 775 270 746 q 170 811 186 805 q 144 817 155 817 q 129 811 134 817 q 123 794 123 805 q 127 771 123 785 q 141 741 131 758 q 245 669 172 690 q 338 547 318 648 q 327 371 338 490 q 298 122 315 252 q 281 1 290 61 q 262 -111 272 -58 q 239 -236 251 -182 q 218 -317 227 -290 l 197 -317 q 177 -206 188 -275 q 154 -55 166 -137 q 142 28 148 -14 q 130 113 136 70 q 106 332 116 226 q 97 507 97 439 l 97 527 q 98 546 97 537 l 22 547 l 22 568 q 84 605 66 573 q 102 690 102 637 q 102 720 102 704 q 98 752 101 736 q 97 777 97 765 l 97 800 q 131 949 95 909 q 209 989 166 989 q 333 931 263 984 q 430 879 404 877 q 448 895 443 877 q 473 948 456 930 q 552 989 509 989 q 674 943 630 986 q 738 882 718 901 q 774 850 758 862 q 800 837 790 837 q 817 860 813 836 q 820 930 820 883 l 843 932 q 846 896 845 912 q 847 864 847 879 q 813 720 847 758 q 738 680 779 682 l 729 680 q 625 732 706 680 q 534 792 544 783 q 511 809 524 801 q 487 817 498 817 q 472 811 477 817 q 466 794 466 805 q 470 771 466 785 q 484 741 474 758 q 588 669 515 690 q 681 547 661 648 q 670 371 681 490 q 641 122 658 252 q 624 1 633 61 q 605 -111 615 -58 q 582 -236 594 -182 q 561 -317 570 -290 l 540 -317 q 520 -206 531 -275 q 497 -55 509 -137 q 485 28 491 -14 q 473 113 479 70 q 449 332 459 226 q 440 506 440 438 l 440 527 q 441 545 440 537 l 365 547 m 800 547 l 712 547 l 712 567 q 829 639 773 577 q 922 773 886 701 q 958 857 944 816 q 975 927 972 897 l 1007 929 l 1007 646 l 1150 646 l 1150 547 l 1007 547 l 1007 217 q 1025 171 1012 188 q 1061 155 1038 155 q 1100 165 1077 155 q 1150 195 1122 174 l 1159 174 q 1083 110 1113 137 q 1026 60 1052 84 q 1023 58 1025 59 l 1022 56 q 979 19 1001 38 q 930 -22 958 0 q 883 37 912 8 q 822 85 854 66 q 775 110 798 101 q 733 119 751 119 l 733 141 q 787 156 775 140 q 800 206 800 173 l 800 547 "},"J":{"x_min":-51.265625,"x_max":897.234375,"ha":918,"o":"m 897 384 l 875 384 q 847 446 868 418 q 802 489 826 474 q 779 502 790 497 q 758 506 768 506 q 734 496 744 506 q 725 465 725 486 q 746 384 725 436 q 820 250 768 332 q 873 143 856 195 q 890 43 890 92 q 766 -202 891 -103 q 491 -314 641 -301 q 471 -314 482 -314 q 451 -315 461 -315 q 234 -250 334 -315 q 98 -42 134 -186 q 73 18 90 -7 q 37 58 55 43 q 20 68 29 64 q 5 71 12 71 q -17 56 -8 71 q -26 8 -26 42 q -22 -36 -26 -9 q -9 -97 -19 -63 l -33 -97 q -47 -52 -42 -74 q -51 -9 -51 -29 q 11 132 -51 77 q 150 189 73 188 l 154 189 q 254 161 207 190 q 327 64 301 131 q 364 -41 348 7 q 395 -131 380 -91 q 452 -235 422 -197 q 534 -273 482 -273 q 566 -270 550 -273 q 601 -261 583 -268 q 674 -215 654 -245 q 694 -149 694 -185 q 688 -102 694 -127 q 672 -54 681 -78 q 648 -3 662 -28 q 619 45 634 21 q 586 99 602 74 l 558 140 q 510 241 525 193 q 496 331 496 289 q 559 486 496 428 q 697 550 622 545 q 704 552 701 552 l 712 552 q 829 511 776 552 q 897 384 881 471 m 852 852 l 874 852 q 817 634 874 698 q 677 571 759 571 q 620 577 649 571 q 560 594 591 583 q 468 642 513 612 q 383 710 423 672 q 267 794 319 769 q 174 820 215 820 q 78 772 110 820 q 47 665 47 725 l 47 650 q 93 531 51 585 q 216 476 135 476 q 296 490 252 476 q 392 535 341 504 l 415 525 q 370 494 392 507 q 324 474 348 482 q 279 462 302 465 q 234 458 256 458 q 73 518 141 457 q 5 679 6 579 q 6 705 5 692 q 10 732 7 718 q 12 740 12 736 q 14 747 13 743 q 126 910 37 836 q 330 985 215 985 q 410 975 370 986 q 491 939 451 964 q 535 909 513 925 q 576 879 556 894 q 708 770 654 819 q 797 721 763 721 q 833 750 819 721 q 852 851 847 780 l 852 852 "}}}
